<svg width="2187" height="1050" viewBox="0 0 2187 1050" fill="none" xmlns="http://www.w3.org/2000/svg">
<path d="M2069.99 150.619C2069.99 150.619 2055.08 107.231 2033.6 147.062L2055.08 107.231L2069.99 150.619Z" fill="white"/>
<path d="M0 1054.75C1851.54 1054.75 2012.44 984.8 2054.59 110.031" stroke="white"/>
<path d="M450.667 1070.15C501.286 1010.9 636.393 902.757 771.873 944.185C941.223 995.97 1070.68 1070.15 1288.32 1041.46C1505.96 1012.76 1511.55 924.591 1626.32 907.096C1741.09 889.601 1967.12 870.007 2002.11 709.054C2037.1 548.102 1970.62 378.752 2002.11 284.279C2033.6 189.807 2107.78 198.905 2148.37 89.7367C2180.84 2.40244 2171.69 -90.3436 2163.06 -125.8" stroke="white"/>
<path d="M548.638 1082.04C617.451 1060.82 779.151 1005.77 875.442 955.382C995.807 892.4 1454.87 1035.86 1512.25 1035.86C1569.64 1035.86 1718.69 977.775 1776.08 843.415C1833.46 709.054 2036.4 597.087 2085.39 473.923C2134.37 350.76 1959.42 196.105 2022.4 6.46112C2072.79 -145.254 2152.57 -173.386 2186.16 -168.487" stroke="white"/>
</svg>
