<svg width="2026" height="1024" viewBox="0 0 2026 1024" fill="none" xmlns="http://www.w3.org/2000/svg">
<path d="M0 1051.32C1715.5 1051.32 1864.57 986.549 1903.63 176.539" stroke="white"/>
<path d="M1921.34 200.445C1921.34 200.445 1905.01 152.633 1881.49 196.526L1905.01 152.633L1921.34 200.445Z" fill="white"/>
<path d="M417.913 1066.38C464.801 1011.46 589.951 911.22 715.447 949.619C872.316 997.619 992.237 1066.38 1193.83 1039.78C1395.43 1013.19 1400.62 931.457 1506.93 915.241C1613.23 899.025 1822.61 880.863 1855.02 731.675C1887.43 582.487 1825.85 425.515 1855.02 337.948C1884.19 250.382 1952.9 258.814 1990.5 157.626C2020.58 76.6749 2012.11 -9.292 2004.11 -42.1566" stroke="white"/>
<path d="M508.225 1077C571.998 1057.33 721.855 1006.33 811.094 959.656C922.644 901.309 1348.09 1034.21 1401.27 1034.21C1454.45 1034.21 1592.59 980.402 1645.77 855.927C1698.95 731.452 1887.03 627.723 1932.43 513.621C1977.82 399.519 1815.69 256.243 1874.06 80.5517C1920.75 -60.0013 1994.69 -86.0632 2025.82 -81.5251" stroke="white"/>
</svg>
