<svg width="487" height="675" viewBox="0 0 487 675" fill="none" xmlns="http://www.w3.org/2000/svg">
<path d="M18.8497 533.718C26.8707 503.783 57.662 486.024 87.6241 494.052C117.586 502.081 135.373 532.856 127.352 562.791C119.331 592.726 88.5396 610.484 58.5775 602.456C28.6155 594.428 10.8287 563.652 18.8497 533.718Z" fill="url(#paint0_linear)"/>
<path d="M23.6531 498.486C31.6741 468.551 62.4654 450.792 92.4275 458.821C122.39 466.849 140.176 497.624 132.155 527.559C124.134 557.494 93.343 575.252 63.3809 567.224C33.4188 559.196 15.6321 528.42 23.6531 498.486Z" fill="url(#paint1_linear)"/>
<path d="M57.2434 487.094C65.2644 457.16 96.0558 439.401 126.018 447.429C155.98 455.457 173.767 486.233 165.746 516.167C157.725 546.102 126.933 563.861 96.9713 555.833C67.0092 547.804 49.2224 517.029 57.2434 487.094Z" fill="url(#paint2_linear)"/>
<path d="M84.9816 510.286C93.0026 480.351 123.794 462.592 153.756 470.621C183.718 478.649 201.505 509.424 193.484 539.359C185.463 569.294 154.672 587.052 124.709 579.024C94.7474 570.996 76.9606 540.221 84.9816 510.286Z" fill="url(#paint3_linear)"/>
<path d="M114.461 532.122C122.482 502.187 153.273 484.428 183.235 492.457C213.197 500.485 230.984 531.26 222.963 561.195C214.942 591.13 184.151 608.888 154.189 600.86C124.227 592.832 106.44 562.056 114.461 532.122Z" fill="url(#paint4_linear)"/>
<path d="M127.656 507.28C135.677 477.345 166.468 459.586 196.43 467.614C226.392 475.643 244.179 506.418 236.158 536.353C228.137 566.287 197.346 584.046 167.384 576.018C137.421 567.989 119.635 537.214 127.656 507.28Z" fill="url(#paint5_linear)"/>
<path d="M95.8216 487.643C103.843 457.708 134.634 439.949 164.596 447.978C194.558 456.006 212.345 486.781 204.324 516.716C196.303 546.651 165.512 564.409 135.549 556.381C105.587 548.353 87.8006 517.578 95.8216 487.643Z" fill="url(#paint6_linear)"/>
<path d="M70.2634 463.194C78.2844 433.259 109.076 415.5 139.038 423.529C169 431.557 186.787 462.332 178.766 492.267C170.745 522.202 139.953 539.961 109.991 531.932C80.0291 523.904 62.2424 493.129 70.2634 463.194Z" fill="url(#paint7_linear)"/>
<path d="M77.8311 427.927C85.8521 397.992 116.643 380.234 146.606 388.262C176.568 396.29 194.354 427.066 186.333 457C178.312 486.935 147.521 504.694 117.559 496.665C87.5968 488.637 69.8101 457.862 77.8311 427.927Z" fill="url(#paint8_linear)"/>
<path d="M108.592 407.617C116.613 377.683 147.404 359.924 177.367 367.952C207.329 375.98 225.115 406.756 217.094 436.69C209.073 466.625 178.282 484.384 148.32 476.356C118.358 468.327 100.571 437.552 108.592 407.617Z" fill="url(#paint9_linear)"/>
<path d="M144.691 412.134C152.712 382.199 183.503 364.44 213.465 372.469C243.427 380.497 261.214 411.272 253.193 441.207C245.172 471.142 214.381 488.9 184.419 480.872C154.457 472.844 136.67 442.068 144.691 412.134Z" fill="url(#paint10_linear)"/>
<path d="M153.044 444.824C161.065 414.889 191.856 397.131 221.818 405.159C251.78 413.187 269.567 443.962 261.546 473.897C253.525 503.832 222.733 521.591 192.771 513.562C162.809 505.534 145.023 474.759 153.044 444.824Z" fill="url(#paint11_linear)"/>
<path d="M143.721 482.005C151.742 452.07 182.534 434.311 212.496 442.339C242.458 450.368 260.245 481.143 252.224 511.078C244.203 541.012 213.411 558.771 183.449 550.743C153.487 542.715 135.7 511.939 143.721 482.005Z" fill="url(#paint12_linear)"/>
<path d="M163.135 510.777C171.156 480.842 201.947 463.084 231.909 471.112C261.872 479.14 279.658 509.916 271.637 539.85C263.616 569.785 232.825 587.544 202.863 579.515C172.901 571.487 155.114 540.712 163.135 510.777Z" fill="url(#paint13_linear)"/>
<path d="M195.867 500.416C203.888 470.481 234.68 452.723 264.642 460.751C294.604 468.779 312.39 499.554 304.369 529.489C296.348 559.424 265.557 577.183 235.595 569.154C205.633 561.126 187.846 530.351 195.867 500.416Z" fill="url(#paint14_linear)"/>
<path d="M194.759 465.597C202.78 435.662 233.571 417.903 263.534 425.931C293.496 433.96 311.282 464.735 303.261 494.67C295.24 524.604 264.449 542.363 234.487 534.335C204.525 526.306 186.738 495.531 194.759 465.597Z" fill="url(#paint15_linear)"/>
<path d="M174.311 435.326C182.332 405.391 213.123 387.632 243.085 395.661C273.048 403.689 290.834 434.464 282.813 464.399C274.792 494.334 244.001 512.092 214.039 504.064C184.077 496.036 166.29 465.26 174.311 435.326Z" fill="url(#paint16_linear)"/>
<path d="M194.955 408.389C202.976 378.454 233.767 360.696 263.729 368.724C293.691 376.752 311.478 407.527 303.457 437.462C295.436 467.397 264.645 485.156 234.682 477.127C204.72 469.099 186.934 438.324 194.955 408.389Z" fill="url(#paint17_linear)"/>
<path d="M225.143 425.841C233.164 395.906 263.955 378.147 293.917 386.175C323.879 394.204 341.666 424.979 333.645 454.914C325.624 484.848 294.833 502.607 264.871 494.579C234.908 486.55 217.122 455.775 225.143 425.841Z" fill="url(#paint18_linear)"/>
<path d="M258.346 438.052C266.367 408.117 297.158 390.358 327.12 398.387C357.082 406.415 374.869 437.19 366.848 467.125C358.827 497.06 328.036 514.818 298.074 506.79C268.112 498.762 250.325 467.987 258.346 438.052Z" fill="url(#paint19_linear)"/>
<path d="M283.032 413.478C291.053 383.543 321.844 365.784 351.806 373.813C381.768 381.841 399.555 412.616 391.534 442.551C383.513 472.486 352.722 490.244 322.76 482.216C292.797 474.188 275.011 443.413 283.032 413.478Z" fill="url(#paint20_linear)"/>
<path d="M269.954 380.394C277.975 350.459 308.766 332.7 338.728 340.729C368.69 348.757 386.477 379.532 378.456 409.467C370.435 439.402 339.643 457.16 309.681 449.132C279.719 441.104 261.933 410.329 269.954 380.394Z" fill="url(#paint21_linear)"/>
<path d="M233.989 372.191C242.01 342.257 272.801 324.498 302.763 332.526C332.725 340.555 350.512 371.33 342.491 401.265C334.47 431.199 303.679 448.958 273.717 440.93C243.755 432.901 225.968 402.126 233.989 372.191Z" fill="url(#paint22_linear)"/>
<path d="M203.332 353.084C211.353 323.149 242.145 305.39 272.107 313.418C302.069 321.447 319.856 352.222 311.835 382.157C303.814 412.091 273.022 429.85 243.06 421.822C213.098 413.794 195.311 383.018 203.332 353.084Z" fill="url(#paint23_linear)"/>
<path d="M198.688 317.414C206.709 287.479 237.501 269.72 267.463 277.748C297.425 285.777 315.212 316.552 307.191 346.487C299.17 376.421 268.378 394.18 238.416 386.152C208.454 378.123 190.667 347.348 198.688 317.414Z" fill="url(#paint24_linear)"/>
<path d="M224.099 291.657C232.12 261.722 262.911 243.964 292.873 251.992C322.835 260.02 340.622 290.796 332.601 320.73C324.58 350.665 293.788 368.424 263.826 360.395C233.864 352.367 216.078 321.592 224.099 291.657Z" fill="url(#paint25_linear)"/>
<path d="M259.488 296.72C267.509 266.786 298.301 249.027 328.263 257.055C358.225 265.084 376.011 295.859 367.99 325.794C359.969 355.728 329.178 373.487 299.216 365.459C269.254 357.43 251.467 326.655 259.488 296.72Z" fill="url(#paint26_linear)"/>
<path d="M266.031 330.301C274.052 300.367 304.843 282.608 334.805 290.636C364.767 298.665 382.554 329.44 374.533 359.375C366.512 389.309 335.721 407.068 305.759 399.04C275.797 391.011 258.01 360.236 266.031 330.301Z" fill="url(#paint27_linear)"/>
<path d="M232.693 338.795C240.714 308.86 271.506 291.101 301.468 299.13C331.43 307.158 349.216 337.933 341.195 367.868C333.174 397.803 302.383 415.561 272.421 407.533C242.459 399.505 224.672 368.73 232.693 338.795Z" fill="url(#paint28_linear)"/>
<path d="M209.794 310.794C217.815 280.86 248.606 263.101 278.568 271.129C308.53 279.158 326.317 309.933 318.296 339.868C310.275 369.802 279.484 387.561 249.522 379.533C219.56 371.504 201.773 340.729 209.794 310.794Z" fill="url(#paint29_linear)"/>
<path d="M212.782 274.301C220.803 244.366 251.594 226.607 281.556 234.636C311.518 242.664 329.305 273.439 321.284 303.374C313.263 333.309 282.472 351.067 252.51 343.039C222.548 335.011 204.761 304.235 212.782 274.301Z" fill="url(#paint30_linear)"/>
<path d="M238.242 248.286C246.263 218.352 277.054 200.593 307.016 208.621C336.979 216.649 354.765 247.425 346.744 277.359C338.723 307.294 307.932 325.053 277.97 317.024C248.008 308.996 230.221 278.221 238.242 248.286Z" fill="url(#paint31_linear)"/>
<path d="M273.56 236.021C281.581 206.086 312.373 188.327 342.335 196.355C372.297 204.384 390.084 235.159 382.063 265.094C374.042 295.028 343.25 312.787 313.288 304.759C283.326 296.731 265.539 265.955 273.56 236.021Z" fill="url(#paint32_linear)"/>
<path d="M302.718 213.73C310.739 183.795 341.53 166.037 371.492 174.065C401.454 182.093 419.241 212.869 411.22 242.803C403.199 272.738 372.408 290.497 342.446 282.468C312.484 274.44 294.697 243.665 302.718 213.73Z" fill="url(#paint33_linear)"/>
<path d="M308.078 178.085C316.099 148.151 346.89 130.392 376.853 138.42C406.815 146.449 424.601 177.224 416.58 207.159C408.559 237.093 377.768 254.852 347.806 246.824C317.844 238.795 300.057 208.02 308.078 178.085Z" fill="url(#paint34_linear)"/>
<path d="M282.475 153.295C290.496 123.36 321.288 105.602 351.25 113.63C381.212 121.658 398.999 152.433 390.978 182.368C382.957 212.303 352.165 230.062 322.203 222.033C292.241 214.005 274.454 183.23 282.475 153.295Z" fill="url(#paint35_linear)"/>
<path d="M249.672 166.312C257.693 136.378 288.484 118.619 318.446 126.647C348.408 134.676 366.195 165.451 358.174 195.386C350.153 225.32 319.362 243.079 289.4 235.051C259.438 227.022 241.651 196.247 249.672 166.312Z" fill="url(#paint36_linear)"/>
<path d="M254.962 200.295C262.983 170.36 293.775 152.601 323.737 160.63C353.699 168.658 371.485 199.433 363.464 229.368C355.443 259.303 324.652 277.061 294.69 269.033C264.728 261.005 246.941 230.229 254.962 200.295Z" fill="url(#paint37_linear)"/>
<path d="M288.276 198.986C296.297 169.052 327.088 151.293 357.05 159.321C387.012 167.35 404.799 198.125 396.778 228.06C388.757 257.994 357.966 275.753 328.004 267.725C298.042 259.696 280.255 228.921 288.276 198.986Z" fill="url(#paint38_linear)"/>
<path d="M306.239 166.486C314.26 136.551 345.051 118.792 375.013 126.821C404.975 134.849 422.762 165.624 414.741 195.559C406.72 225.494 375.929 243.252 345.967 235.224C316.005 227.196 298.218 196.421 306.239 166.486Z" fill="url(#paint39_linear)"/>
<path d="M321.194 132.539C329.215 102.604 360.006 84.8458 389.968 92.8741C419.93 100.902 437.717 131.678 429.696 161.612C421.675 191.547 390.884 209.306 360.922 201.278C330.96 193.249 313.173 162.474 321.194 132.539Z" fill="url(#paint40_linear)"/>
<path d="M350.236 109.811C358.257 79.8764 389.048 62.1177 419.01 70.146C448.972 78.1743 466.759 108.949 458.738 138.884C450.717 168.819 419.926 186.578 389.964 178.549C360.002 170.521 342.215 139.746 350.236 109.811Z" fill="url(#paint41_linear)"/>
<defs>
<linearGradient id="paint0_linear" x1="58.5783" y1="602.456" x2="87.6253" y2="494.051" gradientUnits="userSpaceOnUse">
<stop offset="8.52446e-08" stop-color="#4D78FF"/>
<stop offset="1" stop-color="white"/>
</linearGradient>
<linearGradient id="paint1_linear" x1="63.3898" y1="567.224" x2="92.4368" y2="458.819" gradientUnits="userSpaceOnUse">
<stop offset="8.52446e-08" stop-color="#4D78FF"/>
<stop offset="1" stop-color="white"/>
</linearGradient>
<linearGradient id="paint2_linear" x1="96.9807" y1="555.828" x2="126.028" y2="447.423" gradientUnits="userSpaceOnUse">
<stop offset="8.52446e-08" stop-color="#4D78FF"/>
<stop offset="1" stop-color="white"/>
</linearGradient>
<linearGradient id="paint3_linear" x1="124.711" y1="579.021" x2="153.758" y2="470.615" gradientUnits="userSpaceOnUse">
<stop offset="8.52446e-08" stop-color="#4D78FF"/>
<stop offset="1" stop-color="white"/>
</linearGradient>
<linearGradient id="paint4_linear" x1="154.191" y1="600.859" x2="183.238" y2="492.454" gradientUnits="userSpaceOnUse">
<stop offset="8.52446e-08" stop-color="#4D78FF"/>
<stop offset="1" stop-color="white"/>
</linearGradient>
<linearGradient id="paint5_linear" x1="167.382" y1="576.027" x2="196.429" y2="467.622" gradientUnits="userSpaceOnUse">
<stop offset="8.52446e-08" stop-color="#4D78FF"/>
<stop offset="1" stop-color="white"/>
</linearGradient>
<linearGradient id="paint6_linear" x1="135.557" y1="556.384" x2="164.604" y2="447.978" gradientUnits="userSpaceOnUse">
<stop offset="8.52446e-08" stop-color="#4D78FF"/>
<stop offset="1" stop-color="white"/>
</linearGradient>
<linearGradient id="paint7_linear" x1="109.994" y1="531.942" x2="139.041" y2="423.537" gradientUnits="userSpaceOnUse">
<stop offset="8.52446e-08" stop-color="#4D78FF"/>
<stop offset="1" stop-color="white"/>
</linearGradient>
<linearGradient id="paint8_linear" x1="117.561" y1="496.675" x2="146.608" y2="388.27" gradientUnits="userSpaceOnUse">
<stop offset="8.52446e-08" stop-color="#4D78FF"/>
<stop offset="1" stop-color="white"/>
</linearGradient>
<linearGradient id="paint9_linear" x1="148.324" y1="476.352" x2="177.372" y2="367.946" gradientUnits="userSpaceOnUse">
<stop offset="8.52446e-08" stop-color="#4D78FF"/>
<stop offset="1" stop-color="white"/>
</linearGradient>
<linearGradient id="paint10_linear" x1="184.421" y1="480.874" x2="213.469" y2="372.468" gradientUnits="userSpaceOnUse">
<stop offset="8.52446e-08" stop-color="#4D78FF"/>
<stop offset="1" stop-color="white"/>
</linearGradient>
<linearGradient id="paint11_linear" x1="192.762" y1="513.565" x2="221.809" y2="405.16" gradientUnits="userSpaceOnUse">
<stop offset="8.52446e-08" stop-color="#4D78FF"/>
<stop offset="1" stop-color="white"/>
</linearGradient>
<linearGradient id="paint12_linear" x1="183.443" y1="550.741" x2="212.49" y2="442.336" gradientUnits="userSpaceOnUse">
<stop offset="8.52446e-08" stop-color="#4D78FF"/>
<stop offset="1" stop-color="white"/>
</linearGradient>
<linearGradient id="paint13_linear" x1="202.859" y1="579.516" x2="231.906" y2="471.11" gradientUnits="userSpaceOnUse">
<stop offset="8.52446e-08" stop-color="#4D78FF"/>
<stop offset="1" stop-color="white"/>
</linearGradient>
<linearGradient id="paint14_linear" x1="235.589" y1="569.154" x2="264.636" y2="460.749" gradientUnits="userSpaceOnUse">
<stop offset="8.52446e-08" stop-color="#4D78FF"/>
<stop offset="1" stop-color="white"/>
</linearGradient>
<linearGradient id="paint15_linear" x1="234.487" y1="534.339" x2="263.534" y2="425.934" gradientUnits="userSpaceOnUse">
<stop offset="8.52446e-08" stop-color="#4D78FF"/>
<stop offset="1" stop-color="white"/>
</linearGradient>
<linearGradient id="paint16_linear" x1="214.048" y1="504.063" x2="243.095" y2="395.658" gradientUnits="userSpaceOnUse">
<stop offset="8.52446e-08" stop-color="#4D78FF"/>
<stop offset="1" stop-color="white"/>
</linearGradient>
<linearGradient id="paint17_linear" x1="234.682" y1="477.137" x2="263.729" y2="368.731" gradientUnits="userSpaceOnUse">
<stop offset="8.52446e-08" stop-color="#4D78FF"/>
<stop offset="1" stop-color="white"/>
</linearGradient>
<linearGradient id="paint18_linear" x1="264.87" y1="494.577" x2="293.917" y2="386.172" gradientUnits="userSpaceOnUse">
<stop offset="8.52446e-08" stop-color="#4D78FF"/>
<stop offset="1" stop-color="white"/>
</linearGradient>
<linearGradient id="paint19_linear" x1="298.065" y1="506.79" x2="327.112" y2="398.385" gradientUnits="userSpaceOnUse">
<stop offset="8.52446e-08" stop-color="#4D78FF"/>
<stop offset="1" stop-color="white"/>
</linearGradient>
<linearGradient id="paint20_linear" x1="322.756" y1="482.225" x2="351.803" y2="373.82" gradientUnits="userSpaceOnUse">
<stop offset="8.52446e-08" stop-color="#4D78FF"/>
<stop offset="1" stop-color="white"/>
</linearGradient>
<linearGradient id="paint21_linear" x1="309.679" y1="449.13" x2="338.726" y2="340.725" gradientUnits="userSpaceOnUse">
<stop offset="8.52446e-08" stop-color="#4D78FF"/>
<stop offset="1" stop-color="white"/>
</linearGradient>
<linearGradient id="paint22_linear" x1="273.714" y1="440.928" x2="302.761" y2="332.523" gradientUnits="userSpaceOnUse">
<stop offset="8.52446e-08" stop-color="#4D78FF"/>
<stop offset="1" stop-color="white"/>
</linearGradient>
<linearGradient id="paint23_linear" x1="243.066" y1="421.822" x2="272.113" y2="313.417" gradientUnits="userSpaceOnUse">
<stop offset="8.52446e-08" stop-color="#4D78FF"/>
<stop offset="1" stop-color="white"/>
</linearGradient>
<linearGradient id="paint24_linear" x1="238.411" y1="386.158" x2="267.458" y2="277.752" gradientUnits="userSpaceOnUse">
<stop offset="8.52446e-08" stop-color="#4D78FF"/>
<stop offset="1" stop-color="white"/>
</linearGradient>
<linearGradient id="paint25_linear" x1="263.836" y1="360.392" x2="292.883" y2="251.987" gradientUnits="userSpaceOnUse">
<stop offset="8.52446e-08" stop-color="#4D78FF"/>
<stop offset="1" stop-color="white"/>
</linearGradient>
<linearGradient id="paint26_linear" x1="299.217" y1="365.456" x2="328.264" y2="257.051" gradientUnits="userSpaceOnUse">
<stop offset="8.52446e-08" stop-color="#4D78FF"/>
<stop offset="1" stop-color="white"/>
</linearGradient>
<linearGradient id="paint27_linear" x1="305.762" y1="399.042" x2="334.809" y2="290.637" gradientUnits="userSpaceOnUse">
<stop offset="8.52446e-08" stop-color="#4D78FF"/>
<stop offset="1" stop-color="white"/>
</linearGradient>
<linearGradient id="paint28_linear" x1="272.42" y1="407.537" x2="301.467" y2="299.131" gradientUnits="userSpaceOnUse">
<stop offset="8.52446e-08" stop-color="#4D78FF"/>
<stop offset="1" stop-color="white"/>
</linearGradient>
<linearGradient id="paint29_linear" x1="249.522" y1="379.533" x2="278.569" y2="271.128" gradientUnits="userSpaceOnUse">
<stop offset="8.52446e-08" stop-color="#4D78FF"/>
<stop offset="1" stop-color="white"/>
</linearGradient>
<linearGradient id="paint30_linear" x1="252.499" y1="343.046" x2="281.546" y2="234.641" gradientUnits="userSpaceOnUse">
<stop offset="8.52446e-08" stop-color="#4D78FF"/>
<stop offset="1" stop-color="white"/>
</linearGradient>
<linearGradient id="paint31_linear" x1="277.965" y1="317.016" x2="307.012" y2="208.61" gradientUnits="userSpaceOnUse">
<stop offset="8.52446e-08" stop-color="#4D78FF"/>
<stop offset="1" stop-color="white"/>
</linearGradient>
<linearGradient id="paint32_linear" x1="313.289" y1="304.766" x2="342.336" y2="196.361" gradientUnits="userSpaceOnUse">
<stop offset="8.52446e-08" stop-color="#4D78FF"/>
<stop offset="1" stop-color="white"/>
</linearGradient>
<linearGradient id="paint33_linear" x1="342.436" y1="282.472" x2="371.483" y2="174.066" gradientUnits="userSpaceOnUse">
<stop offset="8.52446e-08" stop-color="#4D78FF"/>
<stop offset="1" stop-color="white"/>
</linearGradient>
<linearGradient id="paint34_linear" x1="347.805" y1="246.823" x2="376.853" y2="138.418" gradientUnits="userSpaceOnUse">
<stop offset="8.52446e-08" stop-color="#4D78FF"/>
<stop offset="1" stop-color="white"/>
</linearGradient>
<linearGradient id="paint35_linear" x1="322.198" y1="222.037" x2="351.245" y2="113.631" gradientUnits="userSpaceOnUse">
<stop offset="8.52446e-08" stop-color="#4D78FF"/>
<stop offset="1" stop-color="white"/>
</linearGradient>
<linearGradient id="paint36_linear" x1="289.407" y1="235.047" x2="318.454" y2="126.642" gradientUnits="userSpaceOnUse">
<stop offset="8.52446e-08" stop-color="#4D78FF"/>
<stop offset="1" stop-color="white"/>
</linearGradient>
<linearGradient id="paint37_linear" x1="294.688" y1="269.031" x2="323.735" y2="160.626" gradientUnits="userSpaceOnUse">
<stop offset="8.52446e-08" stop-color="#4D78FF"/>
<stop offset="1" stop-color="white"/>
</linearGradient>
<linearGradient id="paint38_linear" x1="328.01" y1="267.733" x2="357.057" y2="159.327" gradientUnits="userSpaceOnUse">
<stop offset="8.52446e-08" stop-color="#4D78FF"/>
<stop offset="1" stop-color="white"/>
</linearGradient>
<linearGradient id="paint39_linear" x1="345.975" y1="235.219" x2="375.022" y2="126.814" gradientUnits="userSpaceOnUse">
<stop offset="8.52446e-08" stop-color="#4D78FF"/>
<stop offset="1" stop-color="white"/>
</linearGradient>
<linearGradient id="paint40_linear" x1="360.911" y1="201.283" x2="389.958" y2="92.8779" gradientUnits="userSpaceOnUse">
<stop offset="8.52446e-08" stop-color="#4D78FF"/>
<stop offset="1" stop-color="white"/>
</linearGradient>
<linearGradient id="paint41_linear" x1="389.963" y1="178.554" x2="419.01" y2="70.1489" gradientUnits="userSpaceOnUse">
<stop offset="8.52446e-08" stop-color="#4D78FF"/>
<stop offset="1" stop-color="white"/>
</linearGradient>
</defs>
</svg>
