<svg width="105" height="91" viewBox="0 0 105 91" fill="none" xmlns="http://www.w3.org/2000/svg">
<g filter="url(#filter0_d)">
<path d="M33.7053 43.7428C33.7164 43.7428 33.7275 43.7454 33.7385 43.7454C33.7164 43.5425 33.7053 43.3368 33.7053 43.1285C33.7053 39.7262 36.568 36.9649 40.1015 36.9649C40.3675 36.9649 40.6308 36.9835 40.8885 37.0129C42.5568 32.9083 46.6999 30 51.5497 30C56.6545 30 60.9777 33.2207 62.4548 37.6699C62.9425 37.4963 63.4691 37.3975 64.0206 37.3975C66.4205 37.3975 68.3798 39.1921 68.5461 41.4648C68.5517 41.4648 68.5572 41.4648 68.5627 41.4648C71.6334 41.4621 74.1248 43.8629 74.1248 46.8246C74.1248 49.7863 71.6334 52.1871 68.56 52.1871C68.5433 52.1871 68.5267 52.1844 68.5101 52.1844C68.1637 54.8256 65.8302 56.8713 62.9952 56.8713C62.9758 56.8713 62.9564 56.8686 62.937 56.8686C60.8031 59.3896 57.5551 61 53.9136 61C50.5908 61 47.5951 59.6567 45.475 57.5042C44.4995 57.9288 43.4159 58.1665 42.2742 58.1665C37.9648 58.1665 34.4729 54.8016 34.4729 50.6489C34.4729 50.6222 34.4757 50.5955 34.4757 50.5661C34.2263 50.6195 33.9713 50.6489 33.7053 50.6489C31.7266 50.6489 30.1248 49.1026 30.1248 47.1985C30.1248 45.2944 31.7293 43.7428 33.7053 43.7428Z" fill="white"/>
</g>
<defs>
<filter id="filter0_d" x="0.124756" y="0" width="104" height="91" filterUnits="userSpaceOnUse" color-interpolation-filters="sRGB">
<feFlood flood-opacity="0" result="BackgroundImageFix"/>
<feColorMatrix in="SourceAlpha" type="matrix" values="0 0 0 0 0 0 0 0 0 0 0 0 0 0 0 0 0 0 127 0"/>
<feOffset/>
<feGaussianBlur stdDeviation="15"/>
<feColorMatrix type="matrix" values="0 0 0 0 0.301961 0 0 0 0 0.470588 0 0 0 0 1 0 0 0 0.4 0"/>
<feBlend mode="normal" in2="BackgroundImageFix" result="effect1_dropShadow"/>
<feBlend mode="normal" in="SourceGraphic" in2="effect1_dropShadow" result="shape"/>
</filter>
</defs>
</svg>
