<svg width="523" height="382" viewBox="0 0 523 382" fill="none" xmlns="http://www.w3.org/2000/svg">
<path d="M42.5594 169.346C42.6912 169.346 42.823 169.379 42.9547 169.379C42.6912 166.878 42.5594 164.344 42.5594 161.777C42.5594 119.852 76.5872 85.825 118.587 85.825C121.749 85.825 124.878 86.0553 127.942 86.4173C147.772 35.8372 197.019 0 254.665 0C315.342 0 366.729 39.6875 384.287 94.5127C390.084 92.3737 396.343 91.1561 402.898 91.1561C431.425 91.1561 454.714 113.271 456.69 141.275C456.756 141.275 456.822 141.275 456.888 141.275C493.386 141.243 523 170.827 523 207.323C523 243.818 493.386 273.402 456.855 273.402C456.657 273.402 456.46 273.37 456.262 273.37C452.144 305.916 424.408 331.124 390.71 331.124C390.479 331.124 390.249 331.091 390.018 331.091C364.654 362.156 326.047 382 282.763 382C243.267 382 207.658 365.447 182.459 338.923C170.864 344.155 157.984 347.084 144.412 347.084C93.1893 347.084 51.684 305.62 51.684 254.447C51.684 254.118 51.7169 253.789 51.7169 253.427C48.7523 254.085 45.7217 254.447 42.5594 254.447C19.0397 254.447 0 235.393 0 211.93C0 188.466 19.0727 169.346 42.5594 169.346Z" fill="url(#paint0_linear)"/>
<defs>
<linearGradient id="paint0_linear" x1="9.46365e-06" y1="191" x2="523" y2="191" gradientUnits="userSpaceOnUse">
<stop stop-color="white"/>
<stop offset="1" stop-color="white" stop-opacity="0"/>
</linearGradient>
</defs>
</svg>
