<svg width="692" height="400" viewBox="0 0 692 400" fill="none" xmlns="http://www.w3.org/2000/svg">
<path d="M56.3119 224.761C56.4863 224.761 56.6606 224.804 56.835 224.804C56.4863 221.485 56.3119 218.122 56.3119 214.715C56.3119 159.071 101.335 113.909 156.906 113.909C161.09 113.909 165.231 114.215 169.284 114.695C195.523 47.564 260.682 0 336.956 0C417.24 0 485.232 52.6742 508.463 125.44C516.134 122.601 524.415 120.985 533.089 120.985C570.834 120.985 601.648 150.335 604.263 187.504C604.35 187.504 604.438 187.504 604.525 187.504C652.817 187.461 692 226.726 692 275.164C692 323.601 652.817 362.867 604.481 362.867C604.22 362.867 603.958 362.823 603.697 362.823C598.249 406.019 561.55 439.476 516.962 439.476C516.657 439.476 516.352 439.432 516.047 439.432C482.487 480.663 431.405 507 374.134 507C321.876 507 274.76 485.031 241.418 449.827C226.076 456.772 209.034 460.659 191.077 460.659C123.302 460.659 68.385 405.626 68.385 337.709C68.385 337.272 68.4285 336.835 68.4285 336.355C64.5059 337.228 60.4961 337.709 56.3119 337.709C25.1922 337.709 0 312.42 0 281.278C0 250.137 25.2358 224.761 56.3119 224.761Z" fill="white"/>
</svg>
