<svg width="606" height="446" viewBox="0 0 606 446" fill="none" xmlns="http://www.w3.org/2000/svg">
<g filter="url(#filter0_d)">
<path d="M102.848 212.041C102.978 212.041 103.108 212.074 103.238 212.074C102.978 209.607 102.848 207.107 102.848 204.575C102.848 163.221 136.36 129.657 177.722 129.657C180.836 129.657 183.918 129.884 186.935 130.241C206.465 80.3493 254.964 45 311.736 45C371.492 45 422.1 84.1472 439.391 138.226C445.101 136.116 451.264 134.915 457.72 134.915C485.814 134.915 508.75 156.729 510.696 184.352C510.761 184.352 510.826 184.352 510.891 184.352C546.836 184.32 576 213.502 576 249.5C576 285.499 546.836 314.681 510.858 314.681C510.664 314.681 510.469 314.648 510.275 314.648C506.219 346.752 478.904 371.616 445.717 371.616C445.49 371.616 445.263 371.584 445.036 371.584C420.056 402.226 382.035 421.8 339.408 421.8C300.511 421.8 265.442 405.472 240.625 379.309C229.206 384.471 216.521 387.36 203.156 387.36C152.71 387.36 111.834 346.459 111.834 295.984C111.834 295.659 111.867 295.334 111.867 294.977C108.947 295.627 105.963 295.984 102.848 295.984C79.6853 295.984 60.9344 277.189 60.9344 254.045C60.9344 230.901 79.7178 212.041 102.848 212.041Z" fill="white"/>
</g>
<defs>
<filter id="filter0_d" x="0.934448" y="0" width="605.066" height="466.8" filterUnits="userSpaceOnUse" color-interpolation-filters="sRGB">
<feFlood flood-opacity="0" result="BackgroundImageFix"/>
<feColorMatrix in="SourceAlpha" type="matrix" values="0 0 0 0 0 0 0 0 0 0 0 0 0 0 0 0 0 0 127 0"/>
<feOffset dx="-15"/>
<feGaussianBlur stdDeviation="22.5"/>
<feColorMatrix type="matrix" values="0 0 0 0 0.619608 0 0 0 0 0.709804 0 0 0 0 1 0 0 0 0.35 0"/>
<feBlend mode="normal" in2="BackgroundImageFix" result="effect1_dropShadow"/>
<feBlend mode="normal" in="SourceGraphic" in2="effect1_dropShadow" result="shape"/>
</filter>
</defs>
</svg>
