<svg width="516" height="377" viewBox="0 0 516 377" fill="none" xmlns="http://www.w3.org/2000/svg">
<path d="M41.9137 167.041C42.0435 167.041 42.1733 167.074 42.3031 167.074C42.0435 164.607 41.9137 162.107 41.9137 159.575C41.9137 118.221 75.4253 84.6566 116.788 84.6566C119.902 84.6566 122.984 84.8839 126.001 85.2409C145.53 35.3493 194.03 0 250.801 0C310.558 0 361.166 39.1472 378.457 93.2262C384.166 91.1163 390.33 89.9152 396.786 89.9152C424.88 89.9152 447.815 111.729 449.762 139.352C449.827 139.352 449.892 139.352 449.956 139.352C485.901 139.32 515.066 168.502 515.066 204.5C515.066 240.499 485.901 269.681 449.924 269.681C449.729 269.681 449.535 269.648 449.34 269.648C445.285 301.752 417.97 326.616 384.783 326.616C384.555 326.616 384.328 326.584 384.101 326.584C359.122 357.226 321.101 376.8 278.473 376.8C239.577 376.8 204.508 360.472 179.691 334.309C168.271 339.471 155.587 342.36 142.221 342.36C91.7755 342.36 50.8999 301.459 50.8999 250.984C50.8999 250.659 50.9323 250.334 50.9323 249.977C48.0126 250.627 45.0281 250.984 41.9137 250.984C18.7509 250.984 0 232.189 0 209.045C0 185.901 18.7833 167.041 41.9137 167.041Z" fill="white"/>
</svg>
