<svg width="152" height="111" viewBox="0 0 152 111" fill="none" xmlns="http://www.w3.org/2000/svg">
<path d="M12.3691 49.208C12.4074 49.208 12.4457 49.2175 12.484 49.2175C12.4074 48.4908 12.3691 47.7545 12.3691 47.0086C12.3691 34.8262 22.2586 24.9387 34.465 24.9387C35.384 24.9387 36.2935 25.0056 37.1839 25.1108C42.9472 10.4134 57.2597 0 74.0135 0C91.648 0 106.583 11.5322 111.686 27.4631C113.371 26.8416 115.19 26.4878 117.095 26.4878C125.385 26.4878 132.154 32.9137 132.728 41.0513C132.747 41.0513 132.767 41.0513 132.786 41.0513C143.393 41.0417 152 49.6383 152 60.2429C152 70.8476 143.393 79.4442 132.776 79.4442C132.719 79.4442 132.661 79.4346 132.604 79.4346C131.407 88.8918 123.346 96.2166 113.552 96.2166C113.485 96.2166 113.418 96.207 113.351 96.207C105.98 105.234 94.7595 111 82.1798 111C70.701 111 60.352 106.19 53.0282 98.4829C49.6583 100.003 45.915 100.854 41.9706 100.854C27.0837 100.854 15.021 88.8057 15.021 73.9362C15.021 73.8406 15.0305 73.745 15.0305 73.6398C14.1689 73.8311 13.2881 73.9362 12.3691 73.9362C5.53354 73.9362 0 68.3996 0 61.5817C0 54.7637 5.54311 49.208 12.3691 49.208Z" fill="white"/>
</svg>
