<svg xmlns="http://www.w3.org/2000/svg" xmlns:xlink="http://www.w3.org/1999/xlink" viewBox="0 0 300.42 88.06"><defs><style>.cls-1{opacity:0.47;}.cls-2{fill:url(#linear-gradient);}.cls-3{fill:url(#linear-gradient-2);}.cls-4{fill:url(#linear-gradient-3);}.cls-5{fill:#fff;}.cls-6{fill:url(#linear-gradient-4);}</style><linearGradient id="linear-gradient" x1="159.03" y1="44.03" x2="300.84" y2="44.03" gradientUnits="userSpaceOnUse"><stop offset="0.49" stop-color="#d8e1ff"/><stop offset="0.68" stop-color="#b9c9ff"/><stop offset="1" stop-color="#7d9cff"/></linearGradient><linearGradient id="linear-gradient-2" x1="172.31" y1="67.19" x2="228.88" y2="119.75" gradientUnits="userSpaceOnUse"><stop offset="0" stop-color="#d8e1ff"/><stop offset="0.68" stop-color="#7d9cff"/></linearGradient><linearGradient id="linear-gradient-3" x1="159.51" y1="44.17" x2="294.6" y2="44.17" gradientUnits="userSpaceOnUse"><stop offset="0" stop-color="#d8e1ff"/><stop offset="0.19" stop-color="#d5deff"/><stop offset="0.36" stop-color="#cad6ff"/><stop offset="0.52" stop-color="#b8c9ff"/><stop offset="0.67" stop-color="#9eb5ff"/><stop offset="0.82" stop-color="#7d9dff"/><stop offset="0.97" stop-color="#567fff"/><stop offset="1" stop-color="#4d78ff"/></linearGradient><linearGradient id="linear-gradient-4" x1="253" y1="86.81" x2="254.36" y2="86.81" gradientUnits="userSpaceOnUse"><stop offset="0" stop-color="#d8e1ff"/><stop offset="0.04" stop-color="#becdff"/><stop offset="0.09" stop-color="#a6bbff"/><stop offset="0.15" stop-color="#94adff"/><stop offset="0.22" stop-color="#87a3ff"/><stop offset="0.31" stop-color="#7f9eff"/><stop offset="0.49" stop-color="#7d9cff"/></linearGradient></defs><g id="Layer_5" data-name="Layer 5"><path class="cls-2" d="M285.16,86.12a75.65,75.65,0,0,1-9.81,1.59,94.41,94.41,0,0,1-10,.32A119.82,119.82,0,0,1,245.6,86a162.42,162.42,0,0,1-37.75-12.49,147.43,147.43,0,0,1-17.42-9.69,111.35,111.35,0,0,1-15.71-12.27A61.77,61.77,0,0,1,162.43,35.8a31,31,0,0,1-3.2-9.53,19.58,19.58,0,0,1,1.12-10l.52-1.17c.17-.39.41-.74.61-1.12a20,20,0,0,1,1.42-2.11,21.71,21.71,0,0,1,3.59-3.58,31.74,31.74,0,0,1,8.82-4.83A63.4,63.4,0,0,1,195,.05a92.3,92.3,0,0,1,10,.21c3.32.21,6.62.59,9.91,1.09a148.43,148.43,0,0,1,19.45,4.33,162.66,162.66,0,0,1,36.52,15.73A117.82,117.82,0,0,1,287,33.05a89.66,89.66,0,0,1,7.19,6.87,70.11,70.11,0,0,1,6.22,7.75,71.25,71.25,0,0,0-6.4-7.58,90.58,90.58,0,0,0-7.33-6.66,118,118,0,0,0-16.35-11.16A161.33,161.33,0,0,0,234,6.64a146.81,146.81,0,0,0-19.32-4.3c-3.26-.5-6.54-.87-9.83-1.09a95.82,95.82,0,0,0-9.88-.2,62.11,62.11,0,0,0-19.34,3.33,30.7,30.7,0,0,0-8.54,4.67,18.55,18.55,0,0,0-5.84,7.58,18.51,18.51,0,0,0-1.06,9.5,30,30,0,0,0,3.1,9.21,60.82,60.82,0,0,0,12.09,15.45A111,111,0,0,0,191,63a143.77,143.77,0,0,0,17.3,9.61A161.63,161.63,0,0,0,245.79,85a121.08,121.08,0,0,0,19.63,2.54,91,91,0,0,0,9.91-.07A74.17,74.17,0,0,0,285.16,86.12Z"/><path class="cls-3" d="M300.42,47.8H0s308.39-.85,263.64-29C263.64,18.8,290.42,31.24,300.42,47.8Z"/><path class="cls-4" d="M294.6,78.24a7,7,0,0,1-3.66,6.16h0c-.66.25-1.33.47-2,.69h-.06C279.72,88,267.76,88.6,254.4,86.9c0,0,0,0,0,0L253,86.71a153.83,153.83,0,0,1-32.66-8.48c-40.06-15.1-66.78-42.59-59.69-61.4,6.93-18.4,43.65-21.68,82.74-7.67C205.71-4,170.21-.47,163.93,17.21s19.31,43.13,57.23,56.6a146.71,146.71,0,0,0,28.42,7.07,4.89,4.89,0,0,1,4.78-3.78,4.74,4.74,0,0,1,1.42.21,7.9,7.9,0,0,1,7.71-6.2,8.37,8.37,0,0,1,2.36.35,11.1,11.1,0,0,1,21.27-.19h.49a7,7,0,0,1,6.26,3.86A7,7,0,0,1,294.6,78.24Z"/><path class="cls-5" d="M254.36,86.9a5,5,0,0,1-1.36-.19Z"/><path class="cls-6" d="M253,86.71a5,5,0,0,0,1.36.19L253,86.71Z"/></g></svg>