<svg width="105" height="91" viewBox="0 0 105 91" fill="none" xmlns="http://www.w3.org/2000/svg">
<g filter="url(#filter0_d)">
<path d="M33.705 43.7428C33.7161 43.7428 33.7272 43.7454 33.7383 43.7454C33.7161 43.5425 33.705 43.3368 33.705 43.1285C33.705 39.7262 36.5678 36.9649 40.1012 36.9649C40.3673 36.9649 40.6305 36.9835 40.8883 37.0129C42.5566 32.9083 46.6997 30 51.5495 30C56.6542 30 60.9774 33.2207 62.4545 37.6699C62.9423 37.4963 63.4688 37.3975 64.0203 37.3975C66.4203 37.3975 68.3796 39.1921 68.5459 41.4648C68.5514 41.4648 68.557 41.4648 68.5625 41.4648C71.6331 41.4621 74.1245 43.8629 74.1245 46.8246C74.1245 49.7863 71.6331 52.1871 68.5597 52.1871C68.5431 52.1871 68.5265 52.1844 68.5098 52.1844C68.1634 54.8256 65.83 56.8713 62.995 56.8713C62.9756 56.8713 62.9562 56.8686 62.9368 56.8686C60.8029 59.3896 57.5549 61 53.9134 61C50.5906 61 47.5948 59.6567 45.4748 57.5042C44.4993 57.9288 43.4157 58.1665 42.2739 58.1665C37.9645 58.1665 34.4727 54.8016 34.4727 50.6489C34.4727 50.6222 34.4755 50.5955 34.4755 50.5661C34.226 50.6195 33.9711 50.6489 33.705 50.6489C31.7263 50.6489 30.1245 49.1026 30.1245 47.1985C30.1245 45.2944 31.7291 43.7428 33.705 43.7428Z" fill="white"/>
</g>
<defs>
<filter id="filter0_d" x="0.124512" y="0" width="104" height="91" filterUnits="userSpaceOnUse" color-interpolation-filters="sRGB">
<feFlood flood-opacity="0" result="BackgroundImageFix"/>
<feColorMatrix in="SourceAlpha" type="matrix" values="0 0 0 0 0 0 0 0 0 0 0 0 0 0 0 0 0 0 127 0"/>
<feOffset/>
<feGaussianBlur stdDeviation="15"/>
<feColorMatrix type="matrix" values="0 0 0 0 0.301961 0 0 0 0 0.470588 0 0 0 0 1 0 0 0 0.4 0"/>
<feBlend mode="normal" in2="BackgroundImageFix" result="effect1_dropShadow"/>
<feBlend mode="normal" in="SourceGraphic" in2="effect1_dropShadow" result="shape"/>
</filter>
</defs>
</svg>
