<svg width="2257" height="379" viewBox="0 0 2257 379" fill="none" xmlns="http://www.w3.org/2000/svg">
<g filter="url(#filter0_d)">
<path d="M136 330.84C224.2 330.84 263.8 236.88 263.8 155.52C263.8 115.2 251.2 73.8 214.48 73.8C196.12 73.8 174.16 85.68 160.48 106.56L159.76 105.84C163.36 95.4 170.56 86.76 176.32 81C171.64 71.28 160.48 63.72 142.84 63.72C98.92 63.72 35.2 117.72 35.2 211.68C35.2 280.08 69.04 330.84 136 330.84ZM150.76 135C144.28 156.6 141.76 173.52 141.76 186.48C141.76 204.84 147.16 215.64 156.16 222.84C155.08 228.96 152.56 235.08 147.16 235.08C137.8 235.08 131.32 218.52 131.32 197.28C131.32 177.84 136.72 154.08 150.04 135H150.76ZM333.421 330.84C351.061 330.84 364.381 321.84 371.221 311.76C355.741 294.48 346.021 277.92 336.301 254.16H337.381C355.741 290.52 386.341 328.68 425.221 328.68C477.421 328.68 513.781 259.56 513.781 212.4C513.781 183.6 500.101 161.64 465.901 161.64C438.901 161.64 419.821 175.32 400.021 193.68L399.301 193.32C415.501 171.36 445.381 156.6 471.301 156.6C479.221 156.6 487.141 158.04 493.261 160.56C504.061 145.8 508.741 129.24 508.741 113.4C508.741 84.24 492.541 63.72 466.981 63.72C428.461 63.72 402.541 108.72 379.501 161.64H378.781C385.261 128.88 394.981 97.2 407.221 72.36C402.901 72.72 396.061 73.44 388.861 73.44C353.581 73.44 304.621 64.08 270.781 41.04C267.181 52.56 265.741 63 265.741 72C265.741 110.16 292.741 134.28 337.741 139.68V140.4C337.741 140.4 333.781 140.76 328.021 140.76C316.141 140.76 303.541 138.96 292.021 134.64C283.741 159.84 275.821 202.32 275.821 234.36C275.821 307.08 304.981 330.84 333.421 330.84ZM412.981 159.12C417.301 138.96 423.781 122.4 432.781 104.76H433.501C433.501 127.08 425.941 144.36 412.981 159.12ZM376.621 278.28C381.661 252.36 390.661 229.68 401.821 209.16H402.541C401.821 235.44 392.461 255.96 376.621 278.28ZM670.445 247.68C671.165 241.56 671.525 235.44 671.525 229.68V224.28C719.765 216 746.405 173.16 746.405 132.84C746.405 82.44 710.405 59.04 671.525 59.04C623.285 59.04 582.605 87.12 575.765 136.44C585.125 142.56 604.925 148.32 624.725 149.4V150.12C622.925 150.12 620.765 150.48 618.605 150.48C596.285 150.48 568.925 143.28 550.925 129.96C532.565 137.52 523.205 155.16 523.205 175.32C523.205 207 544.805 222.12 570.005 224.64C588.725 226.44 609.965 230.76 623.285 239.04V239.76C608.165 233.64 590.885 229.32 570.005 229.32C529.325 229.32 503.045 247.68 503.045 283.68C503.045 315 541.925 343.8 582.245 343.8C597.005 343.8 612.845 338.4 626.525 330.48C596.645 315.36 561.365 288.72 540.125 260.28L540.485 259.92C577.565 299.16 629.765 336.6 680.885 336.6C764.765 336.6 791.045 271.08 791.045 226.44C791.045 211.68 789.245 207 782.045 205.92C761.885 236.16 728.405 249.84 694.205 249.84C686.285 249.84 678.365 249.12 670.445 247.68ZM688.805 82.08C687.725 96.84 680.885 119.52 669.725 134.28H669.005C671.165 115.56 677.645 94.68 688.085 82.08H688.805ZM1048.2 251.64C1043.52 231.84 1041.36 210.96 1041.36 190.08C1041.36 151.92 1048.92 114.12 1062.96 83.52H1063.68C1058.28 99.36 1054.68 117 1052.52 135C1068 124.2 1078.8 105.48 1078.8 88.56C1078.8 70.92 1066.92 56.16 1035.96 56.16C1015.8 56.16 1000.32 63.36 987.718 75.6C960.358 63.72 927.598 56.88 896.278 56.88C838.318 56.88 786.118 81 786.118 142.92C786.118 179.64 811.318 214.2 857.758 214.2C886.918 214.2 916.078 193.68 916.078 168.48C900.598 168.48 889.078 155.52 889.078 140.76C889.078 120.96 907.438 97.92 970.438 97.92C959.998 115.92 952.078 137.88 945.958 162C919.678 213.12 868.558 263.16 827.878 263.16C812.038 263.16 791.518 254.88 790.078 236.16C767.398 236.16 753.358 259.92 753.358 285.12C753.358 312.84 770.998 342.36 813.838 342.36C856.318 342.36 883.678 318.96 906.358 286.56C908.158 271.08 912.118 255.96 916.798 243.72H917.518C914.278 254.16 912.478 265.68 912.478 275.76C912.478 293.4 918.238 307.44 930.118 307.44C944.518 307.44 953.878 290.88 956.038 276.48C963.598 304.2 981.238 330.84 1012.92 330.84C1064.04 330.84 1085.28 257.4 1085.28 218.88C1085.28 211.32 1082.4 205.92 1076.28 204.84C1069.44 222.12 1058.64 240.12 1048.2 251.64ZM927.238 230.04C934.798 216.72 940.198 202.68 943.438 184.68H944.158C942.718 194.04 941.278 204.48 941.278 212.04C941.278 218.16 941.998 223.92 943.438 230.76C940.918 231.48 938.038 231.84 935.518 231.84C931.918 231.84 929.398 231.48 927.238 230.04ZM1067.07 41.04C1063.47 52.56 1062.03 63 1062.03 72C1062.03 110.16 1089.03 134.28 1134.03 139.68V140.4C1134.03 140.4 1130.07 140.76 1124.31 140.76C1112.43 140.76 1099.83 138.96 1088.31 134.64C1080.03 159.84 1072.11 202.32 1072.11 234.36C1072.11 307.08 1100.91 330.84 1129.35 330.84C1153.83 330.84 1172.91 313.56 1182.63 294.12C1188.75 311.76 1202.07 330.84 1226.55 330.84C1275.15 330.84 1310.43 285.84 1310.43 242.28C1310.43 232.92 1307.19 223.92 1300.71 223.92C1293.15 235.44 1282.71 246.6 1270.83 246.6C1252.83 246.6 1242.75 223.92 1242.75 194.04C1225.47 215.28 1208.55 241.92 1196.67 265.68H1195.59C1228.71 195.84 1254.99 153 1307.55 131.04C1309.71 124.92 1310.79 118.44 1310.79 112.32C1310.79 87.12 1293.15 63.72 1260.75 63.72C1190.55 63.72 1173.99 178.56 1165.35 270.36H1164.63C1167.51 213.84 1170.75 138.96 1203.51 72.36C1198.83 72.72 1192.35 73.44 1185.15 73.44C1149.87 73.44 1100.91 64.08 1067.07 41.04ZM1399.16 330.84C1487.36 330.84 1526.96 236.88 1526.96 155.52C1526.96 115.2 1514.36 73.8 1477.64 73.8C1459.28 73.8 1437.32 85.68 1423.64 106.56L1422.92 105.84C1426.52 95.4 1433.72 86.76 1439.48 81C1434.8 71.28 1423.64 63.72 1406 63.72C1362.08 63.72 1298.36 117.72 1298.36 211.68C1298.36 280.08 1332.2 330.84 1399.16 330.84ZM1413.92 135C1407.44 156.6 1404.92 173.52 1404.92 186.48C1404.92 204.84 1410.32 215.64 1419.32 222.84C1418.24 228.96 1415.72 235.08 1410.32 235.08C1400.96 235.08 1394.48 218.52 1394.48 197.28C1394.48 177.84 1399.88 154.08 1413.2 135H1413.92ZM1598.02 330.84C1691.26 330.84 1776.94 195.48 1776.94 115.56C1776.94 78.48 1759.66 63.72 1738.42 63.72C1708.9 63.72 1671.46 92.16 1661.02 131.04C1661.02 131.04 1662.1 138.6 1662.1 150.84C1662.1 183.96 1655.98 251.64 1597.3 301.68L1596.58 300.6C1606.3 289.8 1619.62 273.6 1627.54 254.52C1633.3 177.12 1648.06 132.12 1677.58 83.52H1675.06C1630.78 83.52 1573.18 65.52 1536.1 35.64C1531.78 46.44 1528.9 59.04 1528.9 70.92C1528.9 108 1557.34 131.4 1596.22 142.56V143.28C1581.46 141.84 1565.62 137.16 1551.94 130.32C1538.62 166.68 1531.78 198.72 1531.78 239.4C1531.78 276.84 1540.78 330.84 1598.02 330.84ZM1870.61 330.84C1958.81 330.84 1998.41 236.88 1998.41 155.52C1998.41 115.2 1985.81 73.8 1949.09 73.8C1930.73 73.8 1908.77 85.68 1895.09 106.56L1894.37 105.84C1897.97 95.4 1905.17 86.76 1910.93 81C1906.25 71.28 1895.09 63.72 1877.45 63.72C1833.53 63.72 1769.81 117.72 1769.81 211.68C1769.81 280.08 1803.65 330.84 1870.61 330.84ZM1885.37 135C1878.89 156.6 1876.37 173.52 1876.37 186.48C1876.37 204.84 1881.77 215.64 1890.77 222.84C1889.69 228.96 1887.17 235.08 1881.77 235.08C1872.41 235.08 1865.93 218.52 1865.93 197.28C1865.93 177.84 1871.33 154.08 1884.65 135H1885.37ZM2202.21 252.72C2202.21 189.72 2145.69 144.72 2083.05 100.44L2083.41 100.08C2120.85 122.4 2151.09 141.12 2183.49 176.76C2204.01 165.6 2221.29 146.16 2221.29 126.36C2221.29 85.32 2175.21 63.72 2127.69 63.72C2078.01 63.72 2027.25 87.48 2027.25 136.44C2027.25 196.56 2091.33 251.28 2146.41 299.88L2146.05 300.6C2111.85 277.92 2070.81 242.28 2043.45 203.4C2011.77 203.4 1989.45 230.4 1989.45 259.56C1989.45 301.68 2029.77 330.84 2098.53 330.84C2165.49 330.84 2202.21 305.28 2202.21 252.72Z" fill="#D8E1FF" fill-opacity="0.5"/>
<path d="M160.48 106.56L159.773 107.267L160.643 108.137L161.316 107.108L160.48 106.56ZM159.76 105.84L158.815 105.514L158.611 106.105L159.053 106.547L159.76 105.84ZM176.32 81L177.027 81.7071L177.529 81.2054L177.221 80.5662L176.32 81ZM150.76 135L151.718 135.287L152.104 134H150.76V135ZM156.16 222.84L157.145 223.014L157.248 222.43L156.785 222.059L156.16 222.84ZM150.04 135V134H149.519L149.22 134.428L150.04 135ZM136 331.84C180.521 331.84 212.76 308.102 233.824 274.218C254.87 240.364 264.8 196.34 264.8 155.52H262.8C262.8 196.06 252.93 239.696 232.126 273.162C211.34 306.598 179.679 329.84 136 329.84V331.84ZM264.8 155.52C264.8 135.282 261.642 114.676 253.803 99.0907C245.942 83.4597 233.315 72.8 214.48 72.8V74.8C232.365 74.8 244.398 84.8402 252.017 99.9893C259.658 115.184 262.8 135.438 262.8 155.52H264.8ZM214.48 72.8C195.73 72.8 173.478 84.8969 159.644 106.012L161.316 107.108C174.842 86.463 196.51 74.8 214.48 74.8V72.8ZM161.187 105.853L160.467 105.133L159.053 106.547L159.773 107.267L161.187 105.853ZM160.705 106.166C164.233 95.9354 171.311 87.4235 177.027 81.7071L175.613 80.2929C169.809 86.0965 162.487 94.8645 158.815 105.514L160.705 106.166ZM177.221 80.5662C172.34 70.4277 160.777 62.72 142.84 62.72V64.72C160.183 64.72 170.94 72.1322 175.419 81.4338L177.221 80.5662ZM142.84 62.72C120.504 62.72 93.3372 76.4201 71.7875 101.818C50.212 127.246 34.2 164.466 34.2 211.68H36.2C36.2 164.934 52.048 128.174 73.3125 103.112C94.6028 78.0199 121.256 64.72 142.84 64.72V62.72ZM34.2 211.68C34.2 246.03 42.6958 276.063 59.7062 297.531C76.7411 319.03 102.24 331.84 136 331.84V329.84C102.8 329.84 77.8989 317.27 61.2738 296.289C44.6242 275.277 36.2 245.73 36.2 211.68H34.2ZM149.802 134.713C143.303 156.377 140.76 173.396 140.76 186.48H142.76C142.76 173.644 145.257 156.823 151.718 135.287L149.802 134.713ZM140.76 186.48C140.76 205.065 146.243 216.187 155.535 223.621L156.785 222.059C148.077 215.093 142.76 204.615 142.76 186.48H140.76ZM155.175 222.666C154.645 225.673 153.773 228.587 152.433 230.724C151.107 232.836 149.404 234.08 147.16 234.08V236.08C150.316 236.08 152.573 234.264 154.127 231.786C155.667 229.333 156.595 226.127 157.145 223.014L155.175 222.666ZM147.16 234.08C143.139 234.08 139.418 230.495 136.655 223.765C133.929 217.126 132.32 207.814 132.32 197.28H130.32C130.32 207.986 131.951 217.574 134.805 224.525C137.622 231.385 141.821 236.08 147.16 236.08V234.08ZM132.32 197.28C132.32 177.999 137.681 154.45 150.86 135.572L149.22 134.428C135.759 153.71 130.32 177.681 130.32 197.28H132.32ZM150.04 136H150.76V134H150.04V136ZM371.221 311.76L372.048 312.322L372.487 311.675L371.965 311.093L371.221 311.76ZM336.301 254.16V253.16H334.811L335.375 254.539L336.301 254.16ZM337.381 254.16L338.273 253.709L337.996 253.16H337.381V254.16ZM400.021 193.68L399.573 194.574L400.193 194.884L400.701 194.413L400.021 193.68ZM399.301 193.32L398.496 192.726L397.79 193.683L398.853 194.214L399.301 193.32ZM493.261 160.56L492.88 161.485L493.605 161.783L494.068 161.15L493.261 160.56ZM379.501 161.64V162.64H380.156L380.418 162.039L379.501 161.64ZM378.781 161.64L377.8 161.446L377.563 162.64H378.781V161.64ZM407.221 72.36L408.118 72.802L408.899 71.2167L407.138 71.3634L407.221 72.36ZM270.781 41.04L271.343 40.2134L270.228 39.4543L269.826 40.7417L270.781 41.04ZM337.741 139.68H338.741V138.793L337.86 138.687L337.741 139.68ZM337.741 140.4L337.831 141.396L338.741 141.313V140.4H337.741ZM292.021 134.64L292.372 133.704L291.396 133.338L291.071 134.328L292.021 134.64ZM412.981 159.12L412.003 158.91L411.198 162.666L413.732 159.78L412.981 159.12ZM432.781 104.76V103.76H432.168L431.89 104.306L432.781 104.76ZM433.501 104.76H434.501V103.76H433.501V104.76ZM376.621 278.28L375.639 278.089L377.436 278.859L376.621 278.28ZM401.821 209.16V208.16H401.226L400.942 208.682L401.821 209.16ZM402.541 209.16L403.54 209.187L403.568 208.16H402.541V209.16ZM333.421 331.84C351.414 331.84 365.035 322.657 372.048 312.322L370.393 311.198C363.726 321.023 350.707 329.84 333.421 329.84V331.84ZM371.965 311.093C356.577 293.915 346.912 277.459 337.226 253.781L335.375 254.539C345.129 278.381 354.904 295.045 370.476 312.427L371.965 311.093ZM336.301 255.16H337.381V253.16H336.301V255.16ZM336.488 254.611C345.7 272.853 358.001 291.59 372.916 305.78C387.831 319.969 405.435 329.68 425.221 329.68V327.68C406.126 327.68 388.991 318.311 374.295 304.331C359.6 290.35 347.422 271.827 338.273 253.709L336.488 254.611ZM425.221 329.68C451.793 329.68 474.199 312.094 489.905 288.784C505.619 265.462 514.781 236.2 514.781 212.4H512.781C512.781 235.76 503.762 264.638 488.246 287.666C472.723 310.706 450.849 327.68 425.221 327.68V329.68ZM514.781 212.4C514.781 197.859 511.329 184.906 503.429 175.574C495.505 166.213 483.228 160.64 465.901 160.64V162.64C482.773 162.64 494.437 168.047 501.902 176.866C509.392 185.714 512.781 198.141 512.781 212.4H514.781ZM465.901 160.64C438.503 160.64 419.181 174.55 399.341 192.947L400.701 194.413C420.46 176.09 439.298 162.64 465.901 162.64V160.64ZM400.468 192.786L399.748 192.426L398.853 194.214L399.573 194.574L400.468 192.786ZM400.105 193.914C416.117 172.209 445.699 157.6 471.301 157.6V155.6C445.063 155.6 414.884 170.511 398.496 192.726L400.105 193.914ZM471.301 157.6C479.113 157.6 486.901 159.023 492.88 161.485L493.641 159.635C487.381 157.057 479.328 155.6 471.301 155.6V157.6ZM494.068 161.15C505.001 146.209 509.741 129.439 509.741 113.4H507.741C507.741 129.041 503.121 145.391 492.454 159.969L494.068 161.15ZM509.741 113.4C509.741 98.6425 505.641 85.9807 498.217 76.9883C490.777 67.9778 480.052 62.72 466.981 62.72V64.72C479.469 64.72 489.624 69.7221 496.674 78.2617C503.74 86.8193 507.741 98.9975 507.741 113.4H509.741ZM466.981 62.72C447.282 62.72 430.914 74.2388 416.652 92.2134C402.391 110.187 390.109 134.77 378.584 161.241L380.418 162.039C391.933 135.59 404.13 111.213 418.219 93.4565C432.307 75.7011 448.16 64.72 466.981 64.72V62.72ZM379.501 160.64H378.781V162.64H379.501V160.64ZM379.762 161.834C386.231 129.13 395.928 97.5401 408.118 72.802L406.324 71.918C394.033 96.8599 384.291 128.63 377.8 161.446L379.762 161.834ZM407.138 71.3634C402.792 71.7256 396.007 72.44 388.861 72.44V74.44C396.114 74.44 403.01 73.7144 407.304 73.3565L407.138 71.3634ZM388.861 72.44C353.7 72.44 304.961 63.1018 271.343 40.2134L270.218 41.8666C304.28 65.0582 353.462 74.44 388.861 74.44V72.44ZM269.826 40.7417C266.198 52.3533 264.741 62.8938 264.741 72H266.741C266.741 63.1062 268.164 52.7667 271.735 41.3383L269.826 40.7417ZM264.741 72C264.741 91.3369 271.591 107.18 284.186 118.858C296.759 130.518 314.98 137.956 337.621 140.673L337.86 138.687C315.501 136.004 297.722 128.682 285.546 117.392C273.39 106.12 266.741 90.823 266.741 72H264.741ZM336.741 139.68V140.4H338.741V139.68H336.741ZM337.741 140.4C337.65 139.404 337.65 139.404 337.65 139.404C337.65 139.404 337.65 139.404 337.65 139.404C337.65 139.404 337.65 139.404 337.65 139.404C337.65 139.404 337.649 139.404 337.648 139.404C337.647 139.404 337.644 139.405 337.641 139.405C337.634 139.406 337.623 139.407 337.608 139.408C337.579 139.41 337.535 139.414 337.477 139.419C337.361 139.428 337.186 139.442 336.959 139.459C336.504 139.492 335.836 139.537 334.988 139.581C333.292 139.671 330.88 139.76 328.021 139.76V141.76C330.921 141.76 333.369 141.669 335.093 141.579C335.956 141.533 336.637 141.488 337.105 141.454C337.339 141.436 337.519 141.422 337.641 141.412C337.703 141.407 337.749 141.403 337.781 141.4C337.797 141.399 337.809 141.398 337.818 141.397C337.822 141.397 337.825 141.396 337.827 141.396C337.828 141.396 337.829 141.396 337.83 141.396C337.83 141.396 337.831 141.396 337.831 141.396C337.831 141.396 337.831 141.396 337.831 141.396C337.831 141.396 337.831 141.396 337.741 140.4ZM328.021 139.76C316.235 139.76 303.758 137.973 292.372 133.704L291.669 135.576C303.323 139.947 316.046 141.76 328.021 141.76V139.76ZM291.071 134.328C282.762 159.616 274.821 202.202 274.821 234.36H276.821C276.821 202.438 284.72 160.064 292.971 134.952L291.071 134.328ZM274.821 234.36C274.821 270.834 282.13 295.191 293.145 310.455C304.186 325.757 318.894 331.84 333.421 331.84V329.84C319.507 329.84 305.415 324.043 294.767 309.285C284.091 294.489 276.821 270.606 276.821 234.36H274.821ZM413.958 159.33C418.257 139.271 424.702 122.794 433.671 105.214L431.89 104.306C422.859 122.006 416.345 138.649 412.003 158.91L413.958 159.33ZM432.781 105.76H433.501V103.76H432.781V105.76ZM432.501 104.76C432.501 126.819 425.042 143.868 412.229 158.46L413.732 159.78C426.84 144.852 434.501 127.341 434.501 104.76H432.501ZM377.602 278.471C382.62 252.666 391.58 230.082 402.699 209.638L400.942 208.682C389.741 229.278 380.701 252.054 375.639 278.089L377.602 278.471ZM401.821 210.16H402.541V208.16H401.821V210.16ZM401.541 209.133C400.828 235.148 391.577 255.478 375.805 277.701L377.436 278.859C393.345 256.442 402.813 235.732 403.54 209.187L401.541 209.133ZM670.445 247.68L669.452 247.563L669.342 248.496L670.266 248.664L670.445 247.68ZM671.525 224.28L671.356 223.294L670.525 223.437V224.28H671.525ZM575.765 136.44L574.775 136.303L574.688 136.93L575.218 137.277L575.765 136.44ZM624.725 149.4H625.725V148.453L624.78 148.401L624.725 149.4ZM624.725 150.12V151.12H625.725V150.12H624.725ZM550.925 129.96L551.52 129.156L551.066 128.82L550.545 129.035L550.925 129.96ZM570.005 224.64L569.906 225.635L569.91 225.635L570.005 224.64ZM623.285 239.04H624.285V238.484L623.813 238.191L623.285 239.04ZM623.285 239.76L622.91 240.687L624.285 241.244V239.76H623.285ZM626.525 330.48L627.026 331.345L628.623 330.421L626.977 329.588L626.525 330.48ZM540.125 260.28L539.418 259.573L538.806 260.185L539.324 260.878L540.125 260.28ZM540.485 259.92L541.212 259.233L540.506 258.486L539.778 259.213L540.485 259.92ZM782.045 205.92L782.194 204.931L781.566 204.837L781.213 205.365L782.045 205.92ZM688.805 82.08L689.803 82.153L689.881 81.08H688.805V82.08ZM669.725 134.28V135.28H670.223L670.523 134.883L669.725 134.28ZM669.005 134.28L668.012 134.165L667.883 135.28H669.005V134.28ZM688.085 82.08V81.08H687.615L687.315 81.442L688.085 82.08ZM671.438 247.797C672.163 241.639 672.525 235.48 672.525 229.68H670.525C670.525 235.4 670.168 241.48 669.452 247.563L671.438 247.797ZM672.525 229.68V224.28H670.525V229.68H672.525ZM671.694 225.266C720.503 216.888 747.405 173.552 747.405 132.84H745.405C745.405 172.768 719.028 215.112 671.356 223.294L671.694 225.266ZM747.405 132.84C747.405 107.382 738.303 88.6469 724.205 76.288C710.127 63.9471 691.156 58.04 671.525 58.04V60.04C690.774 60.04 709.244 65.8329 722.886 77.792C736.508 89.733 745.405 107.898 745.405 132.84H747.405ZM671.525 58.04C622.893 58.04 581.697 86.3894 574.775 136.303L576.756 136.577C583.514 87.8506 623.678 60.04 671.525 60.04V58.04ZM575.218 137.277C584.779 143.528 604.772 149.313 624.671 150.399L624.78 148.401C605.078 147.327 585.472 141.592 576.313 135.603L575.218 137.277ZM623.725 149.4V150.12H625.725V149.4H623.725ZM624.725 149.12C623.772 149.12 622.734 149.215 621.714 149.304C620.675 149.394 619.636 149.48 618.605 149.48V151.48C619.735 151.48 620.855 151.386 621.887 151.296C622.937 151.205 623.878 151.12 624.725 151.12V149.12ZM618.605 149.48C596.448 149.48 569.311 142.321 551.52 129.156L550.33 130.764C568.54 144.239 596.122 151.48 618.605 151.48V149.48ZM550.545 129.035C531.727 136.784 522.205 154.852 522.205 175.32H524.205C524.205 155.468 533.403 138.256 551.306 130.885L550.545 129.035ZM522.205 175.32C522.205 191.407 527.699 203.38 536.47 211.643C545.22 219.886 557.147 224.359 569.906 225.635L570.105 223.645C557.663 222.401 546.191 218.054 537.841 210.187C529.512 202.34 524.205 190.913 524.205 175.32H522.205ZM569.91 225.635C588.604 227.433 609.645 231.738 622.757 239.889L623.813 238.191C610.285 229.781 588.847 225.447 570.101 223.645L569.91 225.635ZM622.285 239.04V239.76H624.285V239.04H622.285ZM623.661 238.833C608.439 232.672 591.032 228.32 570.005 228.32V230.32C590.739 230.32 607.891 234.608 622.91 240.687L623.661 238.833ZM570.005 228.32C549.533 228.32 532.546 232.938 520.655 242.211C508.728 251.514 502.045 265.411 502.045 283.68H504.045C504.045 265.949 510.502 252.666 521.885 243.789C533.305 234.882 549.798 230.32 570.005 230.32V228.32ZM502.045 283.68C502.045 299.762 512.014 315.056 526.924 326.284C541.849 337.523 561.858 344.8 582.245 344.8V342.8C562.312 342.8 542.722 335.677 528.127 324.686C513.516 313.684 504.045 298.918 504.045 283.68H502.045ZM582.245 344.8C597.232 344.8 613.245 339.324 627.026 331.345L626.024 329.615C612.446 337.476 596.779 342.8 582.245 342.8V344.8ZM626.977 329.588C597.2 314.52 562.054 287.97 540.927 259.682L539.324 260.878C560.677 289.47 596.091 316.2 626.074 331.372L626.977 329.588ZM540.832 260.987L541.192 260.627L539.778 259.213L539.418 259.573L540.832 260.987ZM539.758 260.607C558.346 280.277 580.737 299.512 604.911 313.835C629.079 328.156 655.086 337.6 680.885 337.6V335.6C655.564 335.6 629.912 326.324 605.93 312.115C581.954 297.908 559.705 278.803 541.212 259.233L539.758 260.607ZM680.885 337.6C723.122 337.6 750.958 321.087 768.21 298.873C785.43 276.701 792.045 248.93 792.045 226.44H790.045C790.045 248.59 783.521 275.899 766.631 297.647C749.772 319.353 722.528 335.6 680.885 335.6V337.6ZM792.045 226.44C792.045 219.077 791.606 214.02 790.164 210.656C789.428 208.938 788.419 207.63 787.06 206.685C785.712 205.748 784.088 205.215 782.194 204.931L781.897 206.909C783.603 207.165 784.904 207.622 785.918 208.327C786.922 209.025 787.712 210.012 788.326 211.444C789.585 214.38 790.045 219.043 790.045 226.44H792.045ZM781.213 205.365C761.277 235.269 728.147 248.84 694.205 248.84V250.84C728.664 250.84 762.493 237.051 782.877 206.475L781.213 205.365ZM694.205 248.84C686.346 248.84 678.486 248.126 670.624 246.696L670.266 248.664C678.245 250.114 686.224 250.84 694.205 250.84V248.84ZM687.808 82.007C686.739 96.6138 679.95 119.099 668.928 133.677L670.523 134.883C681.821 119.941 688.711 97.0661 689.803 82.153L687.808 82.007ZM669.725 133.28H669.005V135.28H669.725V133.28ZM669.999 134.395C672.148 115.764 678.592 95.1053 688.855 82.718L687.315 81.442C676.699 94.2547 670.182 115.356 668.012 134.165L669.999 134.395ZM688.085 83.08H688.805V81.08H688.085V83.08ZM1048.2 251.64L1047.22 251.87L1047.66 253.72L1048.94 252.312L1048.2 251.64ZM1062.96 83.52V82.52H1062.32L1062.05 83.103L1062.96 83.52ZM1063.68 83.52L1064.62 83.8427L1065.08 82.52H1063.68V83.52ZM1052.52 135L1051.52 134.881L1051.26 137.098L1053.09 135.82L1052.52 135ZM987.718 75.6L987.32 76.5172L987.934 76.7841L988.415 76.3173L987.718 75.6ZM916.078 168.48H917.078V167.48H916.078V168.48ZM970.438 97.92L971.303 98.4217L972.174 96.92H970.438V97.92ZM945.958 162L946.847 162.457L946.899 162.356L946.927 162.246L945.958 162ZM790.078 236.16L791.075 236.083L791.004 235.16H790.078V236.16ZM906.358 286.56L907.177 287.133L907.322 286.926L907.351 286.676L906.358 286.56ZM916.798 243.72V242.72H916.11L915.864 243.363L916.798 243.72ZM917.518 243.72L918.473 244.016L918.875 242.72H917.518V243.72ZM956.038 276.48L957.003 276.217L955.049 276.332L956.038 276.48ZM1076.28 204.84L1076.45 203.855L1075.65 203.713L1075.35 204.472L1076.28 204.84ZM927.238 230.04L926.368 229.546L925.909 230.356L926.683 230.872L927.238 230.04ZM943.438 184.68V183.68H942.602L942.454 184.503L943.438 184.68ZM944.158 184.68L945.146 184.832L945.323 183.68H944.158V184.68ZM943.438 230.76L943.713 231.722L944.608 231.466L944.416 230.554L943.438 230.76ZM1049.17 251.41C1044.51 231.695 1042.36 210.893 1042.36 190.08H1040.36C1040.36 211.027 1042.52 231.985 1047.22 251.87L1049.17 251.41ZM1042.36 190.08C1042.36 152.042 1049.9 114.387 1063.87 83.937L1062.05 83.103C1047.94 113.853 1040.36 151.798 1040.36 190.08H1042.36ZM1062.96 84.52H1063.68V82.52H1062.96V84.52ZM1062.73 83.1973C1057.3 99.1195 1053.69 116.831 1051.52 134.881L1053.51 135.119C1055.66 117.169 1059.25 99.6005 1064.62 83.8427L1062.73 83.1973ZM1053.09 135.82C1068.79 124.866 1079.8 105.86 1079.8 88.56H1077.8C1077.8 105.1 1067.2 123.534 1051.95 134.18L1053.09 135.82ZM1079.8 88.56C1079.8 79.5066 1076.74 71.1071 1069.64 64.9875C1062.56 58.8841 1051.58 55.16 1035.96 55.16V57.16C1051.29 57.16 1061.74 60.8159 1068.33 66.5025C1074.91 72.1729 1077.8 79.9734 1077.8 88.56H1079.8ZM1035.96 55.16C1015.52 55.16 999.797 62.4721 987.021 74.8827L988.415 76.3173C1000.84 64.2479 1016.07 57.16 1035.96 57.16V55.16ZM988.116 74.6827C960.628 62.7471 927.732 55.88 896.278 55.88V57.88C927.463 57.88 960.088 64.6928 987.32 76.5172L988.116 74.6827ZM896.278 55.88C867.182 55.88 839.42 61.9306 818.901 75.8525C798.331 89.8094 785.118 111.63 785.118 142.92H787.118C787.118 112.29 800.005 91.0906 820.024 77.5075C840.095 63.8894 867.414 57.88 896.278 57.88V55.88ZM785.118 142.92C785.118 161.503 791.494 179.572 803.785 193.005C816.089 206.452 834.272 215.2 857.758 215.2V213.2C834.804 213.2 817.167 204.668 805.261 191.655C793.342 178.628 787.118 161.057 787.118 142.92H785.118ZM857.758 215.2C872.56 215.2 887.351 209.996 898.456 201.587C909.557 193.182 917.078 181.486 917.078 168.48H915.078C915.078 180.674 908.019 191.838 897.249 199.993C886.485 208.144 872.116 213.2 857.758 213.2V215.2ZM916.078 167.48C901.201 167.48 890.078 155.02 890.078 140.76H888.078C888.078 156.02 899.995 169.48 916.078 169.48V167.48ZM890.078 140.76C890.078 131.207 894.49 120.805 906.684 112.749C918.92 104.665 939.038 98.92 970.438 98.92V96.92C938.838 96.92 918.275 102.695 905.582 111.081C892.846 119.495 888.078 130.513 888.078 140.76H890.078ZM969.573 97.4183C959.07 115.527 951.122 137.583 944.989 161.754L946.927 162.246C953.034 138.177 960.926 116.313 971.303 98.4217L969.573 97.4183ZM945.068 161.543C931.982 186.998 912.707 212.189 891.651 231.004C870.563 249.849 847.847 262.16 827.878 262.16V264.16C848.589 264.16 871.772 251.451 892.984 232.496C914.229 213.511 933.653 188.122 946.847 162.457L945.068 161.543ZM827.878 262.16C820.11 262.16 811.205 260.125 804.095 255.824C797.005 251.535 791.764 245.042 791.075 236.083L789.081 236.237C789.832 245.998 795.57 253.005 803.06 257.536C810.531 262.055 819.806 264.16 827.878 264.16V262.16ZM790.078 235.16C778.345 235.16 768.883 241.319 762.393 250.618C755.913 259.901 752.358 272.348 752.358 285.12H754.358C754.358 272.691 757.823 260.659 764.033 251.762C770.232 242.881 779.131 237.16 790.078 237.16V235.16ZM752.358 285.12C752.358 299.181 756.831 313.744 766.79 324.804C776.767 335.885 792.17 343.36 813.838 343.36V341.36C792.665 341.36 777.829 334.075 768.276 323.466C758.705 312.836 754.358 298.779 754.358 285.12H752.358ZM813.838 343.36C856.784 343.36 884.408 319.66 907.177 287.133L905.539 285.987C882.948 318.26 855.851 341.36 813.838 341.36V343.36ZM907.351 286.676C909.141 271.282 913.08 256.243 917.732 244.077L915.864 243.363C911.156 255.677 907.175 270.878 905.365 286.444L907.351 286.676ZM916.798 244.72H917.518V242.72H916.798V244.72ZM916.563 243.424C913.295 253.953 911.478 265.572 911.478 275.76H913.478C913.478 265.788 915.26 254.367 918.473 244.016L916.563 243.424ZM911.478 275.76C911.478 284.667 912.929 292.762 915.953 298.671C918.992 304.609 923.692 308.44 930.118 308.44V306.44C924.663 306.44 920.544 303.251 917.733 297.759C914.907 292.238 913.478 284.493 913.478 275.76H911.478ZM930.118 308.44C937.742 308.44 943.947 304.049 948.471 297.956C952.994 291.864 955.927 283.963 957.027 276.628L955.049 276.332C953.989 283.397 951.162 290.976 946.865 296.764C942.569 302.551 936.894 306.44 930.118 306.44V308.44ZM955.073 276.743C962.666 304.584 980.529 331.84 1012.92 331.84V329.84C981.947 329.84 964.529 303.816 957.003 276.217L955.073 276.743ZM1012.92 331.84C1039.04 331.84 1057.39 313.063 1069.16 289.756C1080.94 266.428 1086.28 238.281 1086.28 218.88H1084.28C1084.28 237.999 1079 265.832 1067.38 288.854C1055.74 311.897 1037.92 329.84 1012.92 329.84V331.84ZM1086.28 218.88C1086.28 214.988 1085.54 211.547 1083.93 208.909C1082.29 206.238 1079.8 204.446 1076.45 203.855L1076.1 205.825C1078.88 206.314 1080.88 207.762 1082.22 209.951C1083.58 212.173 1084.28 215.212 1084.28 218.88H1086.28ZM1075.35 204.472C1068.54 221.662 1057.8 239.553 1047.46 250.968L1048.94 252.312C1059.47 240.687 1070.33 222.578 1077.21 205.208L1075.35 204.472ZM928.107 230.534C935.722 217.117 941.162 202.97 944.422 184.857L942.454 184.503C939.234 202.39 933.873 216.323 926.368 229.546L928.107 230.534ZM943.438 185.68H944.158V183.68H943.438V185.68ZM943.169 184.528C941.731 193.877 940.278 204.391 940.278 212.04H942.278C942.278 204.569 943.704 194.203 945.146 184.832L943.169 184.528ZM940.278 212.04C940.278 218.246 941.009 224.077 942.459 230.966L944.416 230.554C942.987 223.763 942.278 218.074 942.278 212.04H940.278ZM943.163 229.798C940.741 230.491 937.954 230.84 935.518 230.84V232.84C938.122 232.84 941.095 232.469 943.713 231.722L943.163 229.798ZM935.518 230.84C931.959 230.84 929.694 230.476 927.793 229.208L926.683 230.872C929.101 232.484 931.876 232.84 935.518 232.84V230.84ZM1067.07 41.04L1067.63 40.2134L1066.52 39.4543L1066.12 40.7417L1067.07 41.04ZM1134.03 139.68H1135.03V138.793L1134.15 138.687L1134.03 139.68ZM1134.03 140.4L1134.12 141.396L1135.03 141.313V140.4H1134.03ZM1088.31 134.64L1088.66 133.704L1087.68 133.338L1087.36 134.328L1088.31 134.64ZM1182.63 294.12L1183.57 293.792L1182.8 291.55L1181.74 293.673L1182.63 294.12ZM1300.71 223.92V222.92H1300.17L1299.87 223.371L1300.71 223.92ZM1242.75 194.04H1243.75V191.226L1241.97 193.409L1242.75 194.04ZM1196.67 265.68V266.68H1197.29L1197.56 266.127L1196.67 265.68ZM1195.59 265.68L1194.69 265.252L1194.01 266.68H1195.59V265.68ZM1307.55 131.04L1307.94 131.963L1308.34 131.792L1308.49 131.373L1307.55 131.04ZM1165.35 270.36V271.36H1166.26L1166.35 270.454L1165.35 270.36ZM1164.63 270.36L1163.63 270.309L1163.58 271.36H1164.63V270.36ZM1203.51 72.36L1204.41 72.8014L1205.18 71.2285L1203.43 71.3629L1203.51 72.36ZM1066.12 40.7417C1062.49 52.3533 1061.03 62.8938 1061.03 72H1063.03C1063.03 63.1062 1064.45 52.7667 1068.02 41.3383L1066.12 40.7417ZM1061.03 72C1061.03 91.3369 1067.88 107.18 1080.47 118.858C1093.05 130.518 1111.27 137.956 1133.91 140.673L1134.15 138.687C1111.79 136.004 1094.01 128.682 1081.83 117.392C1069.68 106.12 1063.03 90.823 1063.03 72H1061.03ZM1133.03 139.68V140.4H1135.03V139.68H1133.03ZM1134.03 140.4C1133.94 139.404 1133.94 139.404 1133.94 139.404C1133.94 139.404 1133.94 139.404 1133.94 139.404C1133.94 139.404 1133.94 139.404 1133.94 139.404C1133.94 139.404 1133.93 139.405 1133.93 139.405C1133.92 139.406 1133.91 139.407 1133.9 139.408C1133.87 139.41 1133.82 139.414 1133.77 139.419C1133.65 139.428 1133.48 139.442 1133.25 139.459C1132.79 139.492 1132.12 139.537 1131.28 139.581C1129.58 139.671 1127.17 139.76 1124.31 139.76V141.76C1127.21 141.76 1129.66 141.669 1131.38 141.579C1132.24 141.533 1132.93 141.488 1133.39 141.454C1133.63 141.436 1133.81 141.422 1133.93 141.412C1133.99 141.407 1134.04 141.403 1134.07 141.4C1134.09 141.399 1134.1 141.398 1134.11 141.397C1134.11 141.397 1134.11 141.396 1134.12 141.396C1134.12 141.396 1134.12 141.396 1134.12 141.396C1134.12 141.396 1134.12 141.396 1134.12 141.396C1134.12 141.396 1134.12 141.396 1134.12 141.396C1134.12 141.396 1134.12 141.396 1134.03 140.4ZM1124.31 139.76C1112.52 139.76 1100.05 137.973 1088.66 133.704L1087.96 135.576C1099.61 139.947 1112.34 141.76 1124.31 141.76V139.76ZM1087.36 134.328C1079.05 159.616 1071.11 202.202 1071.11 234.36H1073.11C1073.11 202.438 1081.01 160.064 1089.26 134.952L1087.36 134.328ZM1071.11 234.36C1071.11 270.832 1078.33 295.187 1089.25 310.452C1100.2 325.756 1114.82 331.84 1129.35 331.84V329.84C1115.44 329.84 1101.44 324.044 1090.88 309.288C1080.29 294.493 1073.11 270.608 1073.11 234.36H1071.11ZM1129.35 331.84C1154.34 331.84 1173.7 314.215 1183.52 294.567L1181.74 293.673C1172.12 312.905 1153.32 329.84 1129.35 329.84V331.84ZM1181.68 294.448C1187.85 312.227 1201.42 331.84 1226.55 331.84V329.84C1202.72 329.84 1189.65 311.293 1183.57 293.792L1181.68 294.448ZM1226.55 331.84C1275.81 331.84 1311.43 286.282 1311.43 242.28H1309.43C1309.43 285.398 1274.49 329.84 1226.55 329.84V331.84ZM1311.43 242.28C1311.43 237.505 1310.61 232.756 1308.9 229.162C1307.21 225.579 1304.51 222.92 1300.71 222.92V224.92C1303.39 224.92 1305.55 226.761 1307.1 230.018C1308.63 233.264 1309.43 237.695 1309.43 242.28H1311.43ZM1299.87 223.371C1296.12 229.088 1291.68 234.67 1286.75 238.814C1281.81 242.961 1276.45 245.6 1270.83 245.6V247.6C1277.09 247.6 1282.89 244.659 1288.03 240.346C1293.18 236.03 1297.74 230.272 1301.55 224.469L1299.87 223.371ZM1270.83 245.6C1262.34 245.6 1255.6 240.277 1250.93 231.073C1246.26 221.856 1243.75 208.887 1243.75 194.04H1241.75C1241.75 209.072 1244.28 222.384 1249.15 231.977C1254.02 241.583 1261.32 247.6 1270.83 247.6V245.6ZM1241.97 193.409C1224.65 214.709 1207.69 241.411 1195.78 265.233L1197.56 266.127C1209.41 242.429 1226.29 215.851 1243.53 194.671L1241.97 193.409ZM1196.67 264.68H1195.59V266.68H1196.67V264.68ZM1196.49 266.108C1229.61 196.266 1255.76 153.762 1307.94 131.963L1307.16 130.117C1254.22 152.238 1227.8 195.414 1194.69 265.252L1196.49 266.108ZM1308.49 131.373C1310.69 125.146 1311.79 118.554 1311.79 112.32H1309.79C1309.79 118.326 1308.73 124.694 1306.61 130.707L1308.49 131.373ZM1311.79 112.32C1311.79 99.4906 1307.3 87.0881 1298.65 77.8851C1289.99 68.6701 1277.21 62.72 1260.75 62.72V64.72C1276.69 64.72 1288.93 70.4699 1297.19 79.2549C1305.46 88.0519 1309.79 99.9493 1309.79 112.32H1311.79ZM1260.75 62.72C1224.95 62.72 1203.04 92.0389 1189.02 132.286C1174.98 172.599 1168.67 224.372 1164.35 270.266L1166.35 270.454C1170.67 224.548 1176.96 173.001 1190.91 132.944C1204.88 92.8211 1226.35 64.72 1260.75 64.72V62.72ZM1165.35 269.36H1164.63V271.36H1165.35V269.36ZM1165.63 270.411C1168.51 213.856 1171.75 139.187 1204.41 72.8014L1202.61 71.9186C1169.75 138.733 1166.51 213.824 1163.63 270.309L1165.63 270.411ZM1203.43 71.3629C1198.71 71.726 1192.3 72.44 1185.15 72.44V74.44C1192.4 74.44 1198.95 73.714 1203.59 73.357L1203.43 71.3629ZM1185.15 72.44C1149.99 72.44 1101.25 63.1018 1067.63 40.2134L1066.51 41.8666C1100.57 65.0582 1149.75 74.44 1185.15 74.44V72.44ZM1423.64 106.56L1422.94 107.267L1423.81 108.137L1424.48 107.108L1423.64 106.56ZM1422.92 105.84L1421.98 105.514L1421.77 106.105L1422.22 106.547L1422.92 105.84ZM1439.48 81L1440.19 81.7071L1440.69 81.2054L1440.39 80.5662L1439.48 81ZM1413.92 135L1414.88 135.287L1415.27 134H1413.92V135ZM1419.32 222.84L1420.31 223.014L1420.41 222.43L1419.95 222.059L1419.32 222.84ZM1413.2 135V134H1412.68L1412.38 134.428L1413.2 135ZM1399.16 331.84C1443.68 331.84 1475.92 308.102 1496.99 274.218C1518.03 240.364 1527.96 196.34 1527.96 155.52H1525.96C1525.96 196.06 1516.09 239.696 1495.29 273.162C1474.5 306.598 1442.84 329.84 1399.16 329.84V331.84ZM1527.96 155.52C1527.96 135.282 1524.81 114.676 1516.97 99.0907C1509.11 83.4597 1496.48 72.8 1477.64 72.8V74.8C1495.53 74.8 1507.56 84.8402 1515.18 99.9893C1522.82 115.184 1525.96 135.438 1525.96 155.52H1527.96ZM1477.64 72.8C1458.89 72.8 1436.64 84.8969 1422.81 106.012L1424.48 107.108C1438.01 86.463 1459.67 74.8 1477.64 74.8V72.8ZM1424.35 105.853L1423.63 105.133L1422.22 106.547L1422.94 107.267L1424.35 105.853ZM1423.87 106.166C1427.4 95.9354 1434.47 87.4235 1440.19 81.7071L1438.78 80.2929C1432.97 86.0965 1425.65 94.8645 1421.98 105.514L1423.87 106.166ZM1440.39 80.5662C1435.5 70.4277 1423.94 62.72 1406 62.72V64.72C1423.35 64.72 1434.1 72.1322 1438.58 81.4338L1440.39 80.5662ZM1406 62.72C1383.67 62.72 1356.5 76.4201 1334.95 101.818C1313.38 127.246 1297.36 164.466 1297.36 211.68H1299.36C1299.36 164.934 1315.21 128.174 1336.48 103.112C1357.77 78.0199 1384.42 64.72 1406 64.72V62.72ZM1297.36 211.68C1297.36 246.03 1305.86 276.063 1322.87 297.531C1339.91 319.03 1365.4 331.84 1399.16 331.84V329.84C1365.96 329.84 1341.06 317.27 1324.44 296.289C1307.79 275.277 1299.36 245.73 1299.36 211.68H1297.36ZM1412.97 134.713C1406.47 156.377 1403.92 173.396 1403.92 186.48H1405.92C1405.92 173.644 1408.42 156.823 1414.88 135.287L1412.97 134.713ZM1403.92 186.48C1403.92 205.065 1409.41 216.187 1418.7 223.621L1419.95 222.059C1411.24 215.093 1405.92 204.615 1405.92 186.48H1403.92ZM1418.34 222.666C1417.81 225.673 1416.94 228.587 1415.6 230.724C1414.27 232.836 1412.57 234.08 1410.32 234.08V236.08C1413.48 236.08 1415.74 234.264 1417.29 231.786C1418.83 229.333 1419.76 226.127 1420.31 223.014L1418.34 222.666ZM1410.32 234.08C1406.3 234.08 1402.58 230.495 1399.82 223.765C1397.09 217.126 1395.48 207.814 1395.48 197.28H1393.48C1393.48 207.986 1395.12 217.574 1397.97 224.525C1400.79 231.385 1404.98 236.08 1410.32 236.08V234.08ZM1395.48 197.28C1395.48 177.999 1400.85 154.45 1414.02 135.572L1412.38 134.428C1398.92 153.71 1393.48 177.681 1393.48 197.28H1395.48ZM1413.2 136H1413.92V134H1413.2V136ZM1661.02 131.04L1660.06 130.781L1660.01 130.979L1660.03 131.181L1661.02 131.04ZM1597.3 301.68L1596.47 302.235L1597.1 303.171L1597.95 302.441L1597.3 301.68ZM1596.58 300.6L1595.84 299.931L1595.32 300.508L1595.75 301.155L1596.58 300.6ZM1627.54 254.52L1628.47 254.903L1628.53 254.755L1628.54 254.594L1627.54 254.52ZM1677.58 83.52L1678.44 84.0391L1679.36 82.52H1677.58V83.52ZM1536.1 35.64L1536.73 34.8613L1535.68 34.0124L1535.18 35.2686L1536.1 35.64ZM1596.22 142.56H1597.22V141.807L1596.5 141.599L1596.22 142.56ZM1596.22 143.28L1596.13 144.275L1597.22 144.382V143.28H1596.22ZM1551.94 130.32L1552.39 129.426L1551.39 128.925L1551.01 129.976L1551.94 130.32ZM1598.02 331.84C1645.12 331.84 1690.11 297.692 1723.25 253.772C1756.4 209.835 1777.94 155.808 1777.94 115.56H1775.94C1775.94 155.232 1754.65 208.845 1721.65 252.568C1688.64 296.308 1644.17 329.84 1598.02 329.84V331.84ZM1777.94 115.56C1777.94 96.879 1773.59 83.6586 1766.42 75.0928C1759.22 66.5042 1749.29 62.72 1738.42 62.72V64.72C1748.8 64.72 1758.13 68.3158 1764.88 76.3772C1771.66 84.4614 1775.94 97.161 1775.94 115.56H1777.94ZM1738.42 62.72C1723.37 62.72 1706.41 69.9593 1691.93 82.032C1677.44 94.1151 1665.34 111.115 1660.06 130.781L1661.99 131.299C1667.15 112.085 1678.99 95.4249 1693.21 83.568C1707.44 71.7007 1723.96 64.72 1738.42 64.72V62.72ZM1661.02 131.04C1660.03 131.181 1660.03 131.181 1660.03 131.181C1660.03 131.181 1660.03 131.181 1660.03 131.181C1660.03 131.181 1660.03 131.182 1660.03 131.182C1660.03 131.183 1660.04 131.184 1660.04 131.185C1660.04 131.188 1660.04 131.193 1660.04 131.2C1660.04 131.213 1660.04 131.234 1660.05 131.262C1660.05 131.318 1660.06 131.403 1660.08 131.516C1660.11 131.741 1660.15 132.079 1660.2 132.524C1660.3 133.414 1660.43 134.73 1660.57 136.429C1660.84 139.826 1661.1 144.749 1661.1 150.84H1663.1C1663.1 144.691 1662.83 139.714 1662.56 136.271C1662.43 134.55 1662.29 133.211 1662.19 132.301C1662.14 131.845 1662.09 131.497 1662.06 131.262C1662.05 131.144 1662.04 131.054 1662.03 130.994C1662.02 130.963 1662.02 130.94 1662.02 130.924C1662.02 130.916 1662.02 130.91 1662.02 130.906C1662.02 130.904 1662.02 130.902 1662.02 130.901C1662.01 130.9 1662.01 130.9 1662.01 130.899C1662.01 130.899 1662.01 130.899 1662.01 130.899C1662.01 130.899 1662.01 130.899 1661.02 131.04ZM1661.1 150.84C1661.1 183.863 1655 251.167 1596.66 300.919L1597.95 302.441C1656.97 252.113 1663.1 184.057 1663.1 150.84H1661.1ZM1598.14 301.125L1597.42 300.045L1595.75 301.155L1596.47 302.235L1598.14 301.125ZM1597.33 301.269C1607.07 290.449 1620.48 274.146 1628.47 254.903L1626.62 254.137C1618.77 273.054 1605.54 289.151 1595.84 299.931L1597.33 301.269ZM1628.54 254.594C1634.29 177.325 1649.01 132.483 1678.44 84.0391L1676.73 83.0008C1647.12 131.757 1632.32 176.915 1626.55 254.446L1628.54 254.594ZM1677.58 82.52H1675.06V84.52H1677.58V82.52ZM1675.06 82.52C1630.99 82.52 1573.62 64.5844 1536.73 34.8613L1535.48 36.4186C1572.75 66.4555 1630.58 84.52 1675.06 84.52V82.52ZM1535.18 35.2686C1530.82 46.164 1527.9 58.8904 1527.9 70.92H1529.9C1529.9 59.1896 1532.75 46.716 1537.03 36.0114L1535.18 35.2686ZM1527.9 70.92C1527.9 108.662 1556.89 132.31 1595.95 143.521L1596.5 141.599C1557.8 130.49 1529.9 107.338 1529.9 70.92H1527.9ZM1595.22 142.56V143.28H1597.22V142.56H1595.22ZM1596.32 142.285C1581.69 140.857 1565.97 136.214 1552.39 129.426L1551.5 131.214C1565.28 138.106 1581.24 142.823 1596.13 144.275L1596.32 142.285ZM1551.01 129.976C1537.65 166.428 1530.78 198.585 1530.78 239.4H1532.78C1532.78 198.855 1539.6 166.932 1552.88 130.664L1551.01 129.976ZM1530.78 239.4C1530.78 258.167 1533.03 281.223 1542.55 299.619C1547.32 308.834 1553.92 316.901 1562.99 322.662C1572.06 328.424 1583.55 331.84 1598.02 331.84V329.84C1583.88 329.84 1572.77 326.506 1564.06 320.973C1555.35 315.439 1548.97 307.666 1544.33 298.701C1535.04 280.737 1532.78 258.073 1532.78 239.4H1530.78ZM1895.09 106.56L1894.38 107.267L1895.25 108.137L1895.93 107.108L1895.09 106.56ZM1894.37 105.84L1893.42 105.514L1893.22 106.105L1893.66 106.547L1894.37 105.84ZM1910.93 81L1911.64 81.7071L1912.14 81.2054L1911.83 80.5662L1910.93 81ZM1885.37 135L1886.33 135.287L1886.71 134H1885.37V135ZM1890.77 222.84L1891.75 223.014L1891.86 222.43L1891.39 222.059L1890.77 222.84ZM1884.65 135V134H1884.13L1883.83 134.428L1884.65 135ZM1870.61 331.84C1915.13 331.84 1947.37 308.102 1968.43 274.218C1989.48 240.364 1999.41 196.34 1999.41 155.52H1997.41C1997.41 196.06 1987.54 239.696 1966.74 273.162C1945.95 306.598 1914.29 329.84 1870.61 329.84V331.84ZM1999.41 155.52C1999.41 135.282 1996.25 114.676 1988.41 99.0907C1980.55 83.4597 1967.92 72.8 1949.09 72.8V74.8C1966.97 74.8 1979.01 84.8402 1986.63 99.9893C1994.27 115.184 1997.41 135.438 1997.41 155.52H1999.41ZM1949.09 72.8C1930.34 72.8 1908.09 84.8969 1894.25 106.012L1895.93 107.108C1909.45 86.463 1931.12 74.8 1949.09 74.8V72.8ZM1895.8 105.853L1895.08 105.133L1893.66 106.547L1894.38 107.267L1895.8 105.853ZM1895.31 106.166C1898.84 95.9354 1905.92 87.4235 1911.64 81.7071L1910.22 80.2929C1904.42 86.0965 1897.1 94.8645 1893.42 105.514L1895.31 106.166ZM1911.83 80.5662C1906.95 70.4277 1895.39 62.72 1877.45 62.72V64.72C1894.79 64.72 1905.55 72.1322 1910.03 81.4338L1911.83 80.5662ZM1877.45 62.72C1855.11 62.72 1827.95 76.4201 1806.4 101.818C1784.82 127.246 1768.81 164.466 1768.81 211.68H1770.81C1770.81 164.934 1786.66 128.174 1807.92 103.112C1829.21 78.0199 1855.86 64.72 1877.45 64.72V62.72ZM1768.81 211.68C1768.81 246.03 1777.31 276.063 1794.32 297.531C1811.35 319.03 1836.85 331.84 1870.61 331.84V329.84C1837.41 329.84 1812.51 317.27 1795.88 296.289C1779.23 275.277 1770.81 245.73 1770.81 211.68H1768.81ZM1884.41 134.713C1877.91 156.377 1875.37 173.396 1875.37 186.48H1877.37C1877.37 173.644 1879.87 156.823 1886.33 135.287L1884.41 134.713ZM1875.37 186.48C1875.37 205.065 1880.85 216.187 1890.14 223.621L1891.39 222.059C1882.69 215.093 1877.37 204.615 1877.37 186.48H1875.37ZM1889.78 222.666C1889.25 225.673 1888.38 228.587 1887.04 230.724C1885.72 232.836 1884.01 234.08 1881.77 234.08V236.08C1884.93 236.08 1887.18 234.264 1888.74 231.786C1890.28 229.333 1891.2 226.127 1891.75 223.014L1889.78 222.666ZM1881.77 234.08C1877.75 234.08 1874.03 230.495 1871.26 223.765C1868.54 217.126 1866.93 207.814 1866.93 197.28H1864.93C1864.93 207.986 1866.56 217.574 1869.41 224.525C1872.23 231.385 1876.43 236.08 1881.77 236.08V234.08ZM1866.93 197.28C1866.93 177.999 1872.29 154.45 1885.47 135.572L1883.83 134.428C1870.37 153.71 1864.93 177.681 1864.93 197.28H1866.93ZM1884.65 136H1885.37V134H1884.65V136ZM2083.05 100.44L2082.34 99.7329L2081.51 100.572L2082.47 101.257L2083.05 100.44ZM2083.41 100.08L2083.92 99.221L2083.25 98.8224L2082.7 99.3729L2083.41 100.08ZM2183.49 176.76L2182.75 177.433L2183.28 178.014L2183.97 177.638L2183.49 176.76ZM2146.41 299.88L2147.31 300.327L2147.65 299.639L2147.07 299.13L2146.41 299.88ZM2146.05 300.6L2145.5 301.433L2146.44 302.058L2146.95 301.047L2146.05 300.6ZM2043.45 203.4L2044.27 202.824L2043.97 202.4H2043.45V203.4ZM2203.21 252.72C2203.21 220.891 2188.93 193.664 2166.87 168.895C2144.82 144.14 2114.95 121.762 2083.63 99.6234L2082.47 101.257C2113.8 123.398 2143.5 145.66 2165.37 170.225C2187.24 194.776 2201.21 221.549 2201.21 252.72H2203.21ZM2083.76 101.147L2084.12 100.787L2082.7 99.3729L2082.34 99.7329L2083.76 101.147ZM2082.9 100.939C2120.33 123.252 2150.46 141.909 2182.75 177.433L2184.23 176.087C2151.73 140.331 2121.38 121.548 2083.92 99.221L2082.9 100.939ZM2183.97 177.638C2194.33 172.002 2203.89 164.269 2210.87 155.419C2217.85 146.574 2222.29 136.552 2222.29 126.36H2220.29C2220.29 135.968 2216.1 145.566 2209.3 154.181C2202.51 162.791 2193.17 170.358 2183.01 175.882L2183.97 177.638ZM2222.29 126.36C2222.29 105.4 2210.5 89.4531 2192.83 78.7937C2175.17 68.1471 2151.58 62.72 2127.69 62.72V64.72C2151.32 64.72 2174.53 70.0929 2191.8 80.5063C2209.04 90.9069 2220.29 106.28 2220.29 126.36H2222.29ZM2127.69 62.72C2102.71 62.72 2077.4 68.6902 2058.3 80.877C2039.18 93.0829 2026.25 111.554 2026.25 136.44H2028.25C2028.25 112.366 2040.71 94.4771 2059.38 82.563C2078.08 70.6298 2102.99 64.72 2127.69 64.72V62.72ZM2026.25 136.44C2026.25 166.855 2042.45 195.793 2065.41 223.123C2088.37 250.463 2118.23 276.347 2145.75 300.63L2147.07 299.13C2119.51 274.813 2089.79 249.037 2066.94 221.837C2044.09 194.627 2028.25 166.145 2028.25 136.44H2026.25ZM2145.52 299.433L2145.16 300.153L2146.95 301.047L2147.31 300.327L2145.52 299.433ZM2146.6 299.767C2112.48 277.135 2071.54 241.577 2044.27 202.824L2042.63 203.975C2070.08 242.983 2111.23 278.705 2145.5 301.433L2146.6 299.767ZM2043.45 202.4C2011.14 202.4 1988.45 229.93 1988.45 259.56H1990.45C1990.45 230.87 2012.4 204.4 2043.45 204.4V202.4ZM1988.45 259.56C1988.45 280.985 1998.72 299.103 2017.65 311.825C2036.54 324.526 2064.03 331.84 2098.53 331.84V329.84C2064.28 329.84 2037.22 322.574 2018.76 310.165C2000.34 297.777 1990.45 280.255 1990.45 259.56H1988.45ZM2098.53 331.84C2132.11 331.84 2158.28 325.435 2176.08 312.294C2193.92 299.114 2203.21 279.26 2203.21 252.72H2201.21C2201.21 278.74 2192.14 297.946 2174.89 310.686C2157.58 323.465 2131.91 329.84 2098.53 329.84V331.84Z" fill="white"/>
</g>
<defs>
<filter id="filter0_d" x="0.199951" y="0.012207" width="2256.09" height="378.788" filterUnits="userSpaceOnUse" color-interpolation-filters="sRGB">
<feFlood flood-opacity="0" result="BackgroundImageFix"/>
<feColorMatrix in="SourceAlpha" type="matrix" values="0 0 0 0 0 0 0 0 0 0 0 0 0 0 0 0 0 0 127 0"/>
<feOffset/>
<feGaussianBlur stdDeviation="17"/>
<feColorMatrix type="matrix" values="0 0 0 0 1 0 0 0 0 1 0 0 0 0 1 0 0 0 0.4 0"/>
<feBlend mode="normal" in2="BackgroundImageFix" result="effect1_dropShadow"/>
<feBlend mode="normal" in="SourceGraphic" in2="effect1_dropShadow" result="shape"/>
</filter>
</defs>
</svg>
