<svg width="2254" height="380" viewBox="0 0 2254 380" fill="none" xmlns="http://www.w3.org/2000/svg">
<g filter="url(#filter0_d)">
<path d="M214.106 74.8131C195.756 74.8131 173.818 86.7061 160.166 107.598L159.436 106.867C163.024 96.405 170.23 87.7873 175.977 81.9998C171.31 72.2691 160.166 64.7008 142.514 64.7008C98.6389 64.7008 34.9844 118.728 34.9844 212.76C34.9844 281.192 68.7959 332.008 135.689 332.008C223.789 332.008 263.379 237.977 263.379 156.57C263.379 116.248 250.806 74.8131 214.106 74.8131ZM146.864 236.196C137.498 236.196 131.053 219.628 131.053 198.386C131.053 178.925 136.451 155.171 149.753 136.059H150.483C144.007 157.683 141.498 174.6 141.498 187.574C141.498 205.955 146.896 216.766 155.88 223.953C154.769 230.09 152.261 236.196 146.864 236.196Z" fill="#D8E1FF" fill-opacity="0.5"/>
<path d="M465.295 162.707C438.31 162.707 419.261 176.381 399.482 194.761L398.752 194.411C414.943 172.438 444.786 157.651 470.692 157.651C478.598 157.651 486.503 159.082 492.63 161.626C503.425 146.871 508.091 130.272 508.091 114.435C508.091 85.2433 491.9 64.7326 466.375 64.7326C427.896 64.7326 401.99 109.761 378.973 162.707H378.243C384.719 129.922 394.434 98.2176 406.657 73.3821C402.339 73.7319 395.513 74.4633 388.307 74.4633C353.067 74.4633 304.143 65.0824 270.332 42.0277C266.744 53.5709 265.284 64.0012 265.284 73.0005C265.284 111.192 292.269 135.328 337.224 140.734V141.465C337.224 141.465 333.256 141.815 327.51 141.815C315.636 141.815 303.064 140.002 291.539 135.677C283.253 160.895 275.348 203.411 275.348 235.465C275.348 308.222 304.492 332.008 332.907 332.008C350.527 332.008 363.829 323.009 370.655 312.928C355.194 295.629 345.479 279.062 335.764 255.276H336.843C355.194 291.654 385.767 329.846 424.595 329.846C476.756 329.846 513.076 260.682 513.076 213.491C513.108 184.681 499.456 162.707 465.295 162.707ZM432.214 105.786H432.944C432.944 128.109 425.388 145.408 412.435 160.195C416.721 140.002 423.198 123.435 432.214 105.786ZM376.084 279.443C381.132 253.495 390.116 230.822 401.26 210.279H401.99C401.26 236.578 391.926 257.088 376.084 279.443Z" fill="#D8E1FF" fill-opacity="0.5"/>
<path d="M1476.05 74.8131C1457.7 74.8131 1435.76 86.7061 1422.11 107.598L1421.38 106.867C1424.97 96.405 1432.18 87.7873 1437.92 81.9998C1433.26 72.2691 1422.11 64.7008 1404.46 64.7008C1360.59 64.7008 1296.93 118.728 1296.93 212.76C1296.93 217.816 1297.15 222.777 1297.5 227.61C1290.14 238.168 1280.39 247.707 1269.44 247.707C1251.47 247.707 1241.37 225.003 1241.37 195.111C1224.1 216.353 1207.21 243.033 1195.34 266.787H1194.26C1227.34 196.892 1253.59 154.026 1306.11 132.052C1308.26 125.915 1309.34 119.46 1309.34 113.322C1309.34 88.1053 1291.72 64.7008 1259.34 64.7008C1189.21 64.7008 1172.67 179.625 1164.03 271.494H1163.3C1166.19 214.922 1169.43 140.002 1202.13 73.3503C1197.46 73.7001 1190.99 74.4315 1183.78 74.4315C1148.54 74.4315 1099.62 65.0506 1065.81 41.9959C1063.52 49.3098 1062.12 56.1785 1061.39 62.5066C1054.82 59.1359 1046.06 57.1325 1034.72 57.1325C1014.6 57.1325 999.104 64.351 986.532 76.5939C959.197 64.7008 926.465 57.8639 895.193 57.8639C837.285 57.8639 785.123 81.9998 785.123 143.945C785.123 180.706 810.299 215.272 856.683 215.272C885.827 215.272 914.94 194.729 914.94 169.512C899.479 169.512 887.955 156.538 887.955 141.783C887.955 121.972 906.305 98.9172 969.229 98.9172C958.784 116.916 950.879 138.889 944.783 163.025C918.528 214.191 867.445 264.243 826.808 264.243C811.664 264.243 792.298 256.643 789.377 239.567C789.79 235.433 790.012 231.394 790.012 227.515C790.012 212.76 788.203 208.053 781.028 206.972C760.899 237.245 727.437 250.919 693.277 250.919C685.371 250.919 677.466 250.188 669.529 248.757C670.259 242.62 670.609 236.514 670.609 230.758V225.352C718.802 217.053 745.407 174.187 745.407 133.865C745.407 83.4308 709.436 60.0263 670.609 60.0263C622.415 60.0263 581.778 88.1371 574.952 137.49C584.318 143.627 604.097 149.383 623.876 150.464V151.196C622.066 151.196 619.907 151.546 617.748 151.546C595.461 151.546 568.126 144.327 550.125 131.003C531.775 138.571 522.441 156.22 522.441 176.381C522.441 208.085 544.03 223.222 569.206 225.734C587.905 227.547 609.113 231.871 622.447 240.139V240.871C607.335 234.733 590.064 230.408 569.206 230.408C528.569 230.408 502.313 248.789 502.313 284.818C502.313 316.172 541.141 344.982 581.429 344.982C596.16 344.982 612.002 339.576 625.654 331.658C595.811 316.522 560.57 289.874 539.331 261.413L539.68 261.063C576.73 300.336 628.86 337.796 679.942 337.796C714.865 337.796 739.755 326.411 756.963 309.876C764.614 328.542 782.298 343.551 812.776 343.551C855.222 343.551 882.557 320.147 905.194 287.711C907.003 272.225 910.94 257.088 915.639 244.845H916.369C913.131 255.308 911.321 266.819 911.321 276.899C911.321 294.548 917.067 308.604 928.941 308.604C943.323 308.604 952.688 292.036 954.847 277.631C962.403 305.36 980.023 332.04 1011.68 332.04C1043.14 332.04 1063.27 304.12 1074.09 273.688C1082.41 316.84 1105.3 332.04 1128 332.04C1152.45 332.04 1171.53 314.741 1181.24 295.311C1187.37 312.96 1200.67 332.04 1225.12 332.04C1264.74 332.04 1295.5 302.021 1305.47 267.296C1319.38 306.505 1350.14 332.04 1397.57 332.04C1485.67 332.04 1525.26 238.009 1525.26 156.602C1525.32 116.248 1512.75 74.8131 1476.05 74.8131ZM668.196 135.328C670.355 116.598 676.831 95.7054 687.244 83.081H687.975C686.895 97.836 680.069 120.541 668.926 135.328H668.196ZM940.211 213.141C940.211 219.279 940.942 225.034 942.37 231.871C939.862 232.603 936.973 232.952 934.465 232.952C930.878 232.952 928.338 232.603 926.179 231.14C933.735 217.816 939.132 203.76 942.37 185.762H943.101C941.64 195.143 940.211 205.573 940.211 213.141ZM1132.76 141.465C1132.76 141.465 1128.79 141.815 1123.05 141.815C1111.17 141.815 1098.6 140.002 1087.08 135.678C1080.63 155.361 1074.41 185.603 1071.97 213.173C1065.2 228.119 1055.96 242.842 1047.01 252.764C1042.34 232.952 1040.19 212.06 1040.19 191.168C1040.19 152.976 1047.74 115.167 1061.77 84.5438H1061.81C1061.9 85.0526 1061.93 85.5931 1062.03 86.1019C1056.92 101.557 1053.46 118.601 1051.36 136.059C1060.44 129.699 1067.9 120.604 1072.5 110.747C1084.47 127.06 1105.24 137.426 1132.76 140.734V141.465V141.465ZM1408.81 236.196C1399.44 236.196 1393 219.628 1393 198.386C1393 178.925 1398.4 155.171 1411.7 136.059H1412.43C1405.95 157.683 1403.44 174.6 1403.44 187.574C1403.44 205.955 1408.84 216.766 1417.83 223.953C1416.72 230.09 1414.21 236.196 1408.81 236.196Z" fill="#D8E1FF" fill-opacity="0.5"/>
<path d="M1736.58 64.7326C1707.08 64.7326 1669.68 93.1932 1659.24 132.084C1659.24 132.084 1660.32 139.652 1660.32 151.895C1660.32 185.03 1654.19 252.764 1595.58 302.848L1594.85 301.767C1604.57 290.955 1617.87 274.737 1625.78 255.657C1631.52 178.194 1646.28 133.165 1675.78 84.5437H1673.27C1629.05 84.5437 1571.49 66.5452 1534.44 36.6218C1530.12 47.4336 1527.23 60.0263 1527.23 71.9193C1527.23 109.029 1555.64 132.434 1594.47 143.596V144.327C1579.74 142.896 1563.9 138.19 1550.25 131.353C1536.94 167.731 1530.12 199.785 1530.12 240.521C1530.12 277.981 1539.1 332.008 1596.28 332.008C1689.43 332.008 1775.02 196.574 1775.02 116.598C1775.05 79.4876 1757.81 64.7326 1736.58 64.7326Z" fill="#D8E1FF" fill-opacity="0.5"/>
<path d="M1947.06 74.8131C1928.71 74.8131 1906.78 86.7061 1893.12 107.598L1892.39 106.867C1895.98 96.405 1903.19 87.7873 1908.93 81.9998C1904.27 72.2691 1893.12 64.7008 1875.47 64.7008C1831.6 64.7008 1767.94 118.728 1767.94 212.76C1767.94 281.192 1801.75 332.008 1868.65 332.008C1956.75 332.008 1996.34 237.977 1996.34 156.57C1996.34 116.248 1983.73 74.8131 1947.06 74.8131ZM1879.79 236.196C1870.42 236.196 1863.98 219.628 1863.98 198.386C1863.98 178.925 1869.38 155.171 1882.68 136.059H1883.41C1876.93 157.683 1874.42 174.6 1874.42 187.574C1874.42 205.955 1879.82 216.766 1888.81 223.953C1887.7 230.09 1885.19 236.196 1879.79 236.196Z" fill="#D8E1FF" fill-opacity="0.5"/>
<path d="M2181.24 177.844C2201.75 166.682 2218.98 147.221 2218.98 127.41C2218.98 86.3563 2172.95 64.7326 2125.49 64.7326C2075.86 64.7326 2025.13 88.5187 2025.13 137.49C2025.13 197.655 2089.14 252.414 2144.19 301.035L2143.84 301.767C2109.68 279.062 2068.66 243.414 2041.32 204.492C2009.67 204.492 1987.38 231.521 1987.38 260.682C1987.38 302.816 2027.67 332.008 2096.37 332.008C2163.27 332.008 2199.97 306.441 2199.97 253.845C2199.97 190.818 2143.49 145.758 2080.91 101.461L2081.26 101.111C2118.66 123.435 2148.85 142.165 2181.24 177.844Z" fill="#D8E1FF" fill-opacity="0.5"/>
<path fill-rule="evenodd" clip-rule="evenodd" d="M175.977 82.0325C170.23 87.7883 163.023 96.4378 159.436 106.868L160.166 107.599C160.357 107.313 160.547 107.027 160.738 106.741C174.453 86.3891 196.041 74.814 214.106 74.814C250.806 74.814 263.378 116.249 263.378 156.603C263.378 238.01 223.821 332.041 135.688 332.041C68.7957 332.041 34.9842 281.257 34.9842 212.792C34.9842 118.761 98.6387 64.7336 142.514 64.7336C160.166 64.7336 171.31 72.3019 175.977 82.0325ZM161.912 103.306C175.818 84.4811 196.486 73.7964 214.106 73.7964C232.932 73.7964 245.536 84.4493 253.378 100.095C261.22 115.677 264.363 136.314 264.363 156.571C264.363 197.433 254.457 241.476 233.408 275.342C212.36 309.241 180.167 332.995 135.688 332.995C101.972 332.995 76.4787 320.18 59.4618 298.651C42.4767 277.218 34 247.168 34 212.792C34 165.538 50.0009 128.301 71.5577 102.861C93.0828 77.4534 120.227 63.7478 142.546 63.7478C160.452 63.7478 172.008 71.4751 176.897 81.6191L177.215 82.2551L176.707 82.7639C171.722 87.6929 165.722 94.816 161.912 103.306ZM150.451 136.06H149.721C149.531 136.346 149.34 136.601 149.15 136.887C136.26 155.839 131.022 179.212 131.022 198.387C131.022 219.629 137.498 236.197 146.832 236.197C152.229 236.197 154.737 230.06 155.817 223.954C146.832 216.736 141.435 205.956 141.435 187.575C141.435 174.856 143.848 158.32 150.038 137.332C150.07 137.237 150.102 137.173 150.102 137.078C150.165 136.887 150.229 136.696 150.261 136.505C150.356 136.346 150.419 136.187 150.451 136.06ZM148.229 140.162C136.768 158.415 132.037 180.261 132.037 198.387C132.037 208.913 133.657 218.262 136.355 224.876C139.117 231.618 142.832 235.211 146.864 235.211C149.118 235.211 150.8 233.971 152.134 231.84C153.372 229.837 154.229 227.166 154.769 224.368C145.784 216.926 140.482 205.86 140.482 187.575C140.451 175.364 142.673 159.751 148.229 140.162ZM371.956 312.834L371.512 313.47C364.495 323.805 350.907 332.995 332.906 332.995C318.397 332.995 303.698 326.921 292.682 311.594C281.665 296.33 274.363 271.94 274.363 235.434C274.363 203.253 282.3 160.641 290.586 135.329L290.904 134.343L291.888 134.724C303.254 138.986 315.731 140.798 327.509 140.798C328.589 140.798 329.573 140.798 330.525 140.766C310.968 137.491 295.063 130.4 283.761 119.906C271.188 108.235 264.331 92.3674 264.331 73.0015C264.331 63.875 265.791 53.3493 269.411 41.7107L269.823 40.4069L270.934 41.1701C304.524 64.0658 353.225 73.4149 388.338 73.4149C394.37 73.4149 400.148 72.9061 404.402 72.5245C405.196 72.4609 405.926 72.3973 406.593 72.3337L408.339 72.1747L407.546 73.7646C396.116 96.9784 386.909 126.202 380.465 156.73C391.291 132.371 402.815 109.921 416.086 93.1942C430.34 75.1956 446.691 63.6842 466.374 63.6842C479.423 63.6842 490.154 68.9311 497.583 77.9622C505.012 86.9615 509.107 99.6177 509.107 114.405C509.107 130.463 504.377 147.222 493.455 162.199L492.979 162.835L492.249 162.549C486.28 160.101 478.502 158.67 470.692 158.67C447.802 158.67 421.737 170.372 405.037 188.402C422.753 172.884 440.786 161.722 465.295 161.722C482.598 161.722 494.884 167.287 502.789 176.668C510.694 186.017 514.123 198.96 514.123 213.524C514.123 237.342 504.98 266.629 489.265 289.97C473.581 313.311 451.199 330.896 424.658 330.896C404.879 330.896 387.29 321.165 372.401 306.983C360.368 295.503 350.018 281.066 341.637 266.311C349.828 284.183 358.654 297.984 371.448 312.293L371.956 312.834ZM336.208 256.294C336.081 255.976 335.922 255.627 335.795 255.309H336.875C355.225 291.687 385.798 329.879 424.626 329.879C476.788 329.879 513.107 260.714 513.107 213.524C513.107 184.713 499.456 162.74 465.263 162.74C438.69 162.74 419.768 176.032 400.307 193.999C400.021 194.253 399.736 194.539 399.45 194.794L398.72 194.444C398.783 194.38 398.847 194.285 398.878 194.222C399.037 194.031 399.164 193.84 399.323 193.649C399.386 193.554 399.482 193.458 399.545 193.363C415.895 171.994 445.198 157.716 470.66 157.716C478.566 157.716 486.471 159.147 492.598 161.691C503.392 146.936 508.059 130.336 508.059 114.5C508.059 85.3079 491.868 64.7972 466.343 64.7972C428.182 64.7972 402.371 109.126 379.512 161.532C379.322 161.945 379.131 162.39 378.972 162.804H378.242C378.274 162.708 378.274 162.613 378.306 162.517C378.337 162.295 378.401 162.04 378.433 161.818C378.464 161.627 378.496 161.436 378.56 161.245C384.941 129.478 394.37 98.8227 406.149 74.5278C406.307 74.178 406.498 73.8283 406.657 73.4785C406.276 73.5103 405.895 73.5421 405.482 73.5739C405.164 73.6057 404.815 73.6375 404.466 73.6693C400.212 74.0508 394.37 74.5596 388.306 74.5596C353.352 74.5596 304.968 65.3378 271.188 42.7282C270.903 42.5375 270.617 42.3467 270.331 42.1559C270.236 42.5057 270.109 42.8236 270.014 43.1416C266.648 54.2715 265.283 64.3838 265.283 73.1287C265.283 110.907 291.698 134.947 335.795 140.671C336.24 140.735 336.684 140.798 337.16 140.83C337.192 140.83 337.192 140.83 337.224 140.83V141.561C337.224 141.561 337.192 141.561 337.129 141.561C336.938 141.561 336.462 141.625 335.764 141.657C334.113 141.752 331.192 141.911 327.509 141.911C315.953 141.911 303.73 140.194 292.491 136.124C292.174 135.996 291.856 135.901 291.539 135.774C291.444 136.092 291.317 136.41 291.221 136.728C283.062 162.04 275.347 203.889 275.347 235.561C275.347 308.318 304.492 332.105 332.906 332.105C350.526 332.105 363.829 323.105 370.654 313.025C355.447 295.885 345.796 279.54 336.208 256.294ZM412.879 158.129C412.72 158.797 412.562 159.496 412.435 160.196C412.911 159.655 413.355 159.147 413.8 158.606C425.705 144.423 432.722 127.856 432.912 106.804C432.912 106.741 432.912 106.677 432.912 106.614C432.912 106.486 432.912 106.327 432.912 106.2C432.912 106.073 432.912 105.946 432.912 105.819H432.182C432.087 106.009 431.991 106.2 431.896 106.359C423.388 123.181 417.133 139.081 412.879 158.129ZM431.864 108.649C431.293 127.824 424.943 143.151 414.276 156.412C418.34 139.017 424.118 124.199 431.864 108.649ZM376.591 276.996C376.433 277.791 376.274 278.618 376.115 279.413C376.591 278.745 377.068 278.045 377.544 277.377C392.307 256.104 401.101 236.261 401.99 211.234C401.99 211.171 401.99 211.107 401.99 211.043C401.99 210.916 401.99 210.757 401.99 210.598C401.99 210.471 401.99 210.344 401.99 210.217H401.259C401.164 210.407 401.069 210.566 400.974 210.757C390.306 230.568 381.639 252.288 376.591 276.996ZM400.878 213.11C399.672 236.229 391.576 254.959 378.052 274.865C383.004 251.97 391.037 231.681 400.878 213.11ZM575.047 137.491C581.873 88.1381 622.51 60.0272 670.704 60.0272C709.531 60.0272 745.502 83.4317 745.502 133.866C745.502 174.22 718.897 217.085 670.704 225.353V230.759C670.704 236.515 670.354 242.652 669.624 248.758C677.53 250.189 685.435 250.92 693.372 250.92C727.532 250.92 760.995 237.246 781.123 206.973C788.33 208.054 790.107 212.729 790.107 227.516C790.107 230.346 790.012 233.271 789.79 236.229C789.758 236.547 789.726 236.865 789.726 237.183C789.663 238.041 789.568 238.932 789.473 239.79C789.663 240.776 789.885 241.698 790.171 242.62C794.743 257.535 812.712 264.244 826.935 264.244C867.572 264.244 918.655 214.16 944.91 163.026C950.91 139.335 958.657 117.712 968.785 99.9039C968.975 99.5541 969.165 99.2361 969.356 98.9181C968.975 98.9181 968.594 98.9181 968.213 98.9181C906.209 99.2043 888.081 122.1 888.081 141.784C888.081 156.539 899.606 169.513 915.067 169.513C915.067 169.863 915.067 170.181 915.035 170.499C914.273 195.271 885.542 215.241 856.778 215.241C810.394 215.241 785.218 180.643 785.218 143.915C785.218 81.9689 837.38 57.8331 895.288 57.8331C926.592 57.8331 959.292 64.67 986.627 76.563C999.231 64.3202 1014.69 57.1017 1034.82 57.1017C1045.61 57.1017 1054.06 58.9142 1060.54 61.9988C1060.85 62.1578 1061.17 62.3168 1061.49 62.4758C1061.52 62.126 1061.58 61.7762 1061.62 61.4264C1062.35 55.6707 1063.62 49.5016 1065.58 42.9826C1065.68 42.6646 1065.81 42.3149 1065.9 41.9969C1066.19 42.1877 1066.47 42.3785 1066.76 42.5692C1100.54 65.2106 1148.92 74.4006 1183.84 74.4006C1189.53 74.4006 1194.8 73.9554 1199.05 73.5739C1199.75 73.5103 1200.39 73.4467 1201.02 73.4149C1201.43 73.3831 1201.81 73.3513 1202.19 73.3195C1202.04 73.6693 1201.85 74.019 1201.69 74.3688C1170.64 138.286 1166.48 209.676 1163.68 265.103C1163.62 266.152 1163.59 267.202 1163.53 268.251L1163.37 271.463H1164.1C1164.29 269.396 1164.51 267.297 1164.7 265.166C1173.53 174.442 1190.86 64.67 1259.4 64.67C1291.79 64.67 1309.41 88.0745 1309.41 113.292C1309.41 119.429 1308.33 125.884 1306.17 132.022C1254.01 153.836 1227.75 196.288 1194.99 265.325C1194.92 265.453 1194.86 265.612 1194.77 265.771C1194.67 265.961 1194.61 266.152 1194.51 266.343C1194.45 266.502 1194.38 266.629 1194.29 266.788H1195.37C1195.53 266.47 1195.69 266.12 1195.88 265.802C1207.5 242.748 1223.75 217.085 1240.42 196.352C1240.74 195.939 1241.09 195.525 1241.4 195.112C1241.4 195.652 1241.4 196.161 1241.4 196.702C1241.75 225.83 1251.79 247.708 1269.44 247.708C1279.95 247.708 1289.34 238.932 1296.61 228.915C1296.9 228.501 1297.22 228.088 1297.5 227.643C1297.47 227.102 1297.41 226.593 1297.41 226.053C1297.12 221.696 1296.96 217.276 1296.96 212.761C1296.96 118.729 1360.62 64.7018 1404.49 64.7018C1422.11 64.7018 1433.26 72.2701 1437.95 82.0007C1432.21 87.7565 1425 96.406 1421.41 106.836L1422.14 107.568C1422.33 107.281 1422.53 106.995 1422.72 106.709C1436.4 86.3573 1457.99 74.7822 1476.08 74.7822C1512.75 74.7822 1525.36 116.217 1525.36 156.571C1525.36 237.978 1485.8 332.009 1397.67 332.009C1350.93 332.009 1320.33 307.205 1306.14 268.887C1305.95 268.378 1305.76 267.838 1305.57 267.297C1305.41 267.838 1305.25 268.378 1305.09 268.919C1294.64 302.944 1264.23 331.977 1225.21 331.977C1201.37 331.977 1188.1 313.82 1181.78 296.521C1181.62 296.076 1181.46 295.662 1181.34 295.217C1181.11 295.63 1180.92 296.044 1180.7 296.457C1170.8 315.41 1152.03 331.977 1128.1 331.977C1105.74 331.977 1083.17 317.254 1074.57 275.565C1074.44 274.929 1074.31 274.325 1074.19 273.657C1073.97 274.261 1073.74 274.865 1073.55 275.469C1062.57 305.17 1042.63 331.946 1011.8 331.946C981.007 331.946 963.483 306.697 955.609 279.794C955.387 279.063 955.196 278.3 954.974 277.568C954.847 278.331 954.72 279.095 954.561 279.858C951.799 293.691 942.688 308.573 929.068 308.573C917.194 308.573 911.448 294.517 911.448 276.869C911.448 268.156 912.781 258.393 915.226 249.171C915.512 248.026 915.829 246.913 916.178 245.8C916.242 245.546 916.337 245.292 916.401 245.037C916.432 244.942 916.464 244.878 916.464 244.783H915.734C915.226 246.118 914.718 247.454 914.242 248.853C910.21 260.301 906.908 273.848 905.289 287.649C882.621 320.084 855.286 343.489 812.871 343.489C782.932 343.489 765.344 329.052 757.439 310.894C757.312 310.576 757.153 310.226 757.026 309.908C756.772 310.163 756.518 310.385 756.264 310.64C739.089 326.73 714.421 337.733 680.069 337.733C630.447 337.733 579.81 302.372 542.982 264.34C542.157 263.481 541.299 262.591 540.474 261.732C540.252 261.509 540.061 261.287 539.839 261.064C539.807 261.032 539.807 261.032 539.775 261.001L539.426 261.35C540.347 262.559 541.268 263.767 542.22 264.976C563.396 291.719 596.35 316.491 624.701 331.055C625.05 331.246 625.399 331.405 625.749 331.596C625.399 331.787 625.05 332.009 624.701 332.2C611.272 339.8 595.874 344.92 581.492 344.92C541.204 344.92 502.376 316.109 502.376 284.755C502.376 248.726 528.632 230.346 569.269 230.346C589.112 230.346 605.684 234.257 620.256 239.918C620.669 240.077 621.082 240.236 621.494 240.395C621.717 240.49 621.939 240.554 622.129 240.649C622.256 240.713 622.383 240.744 622.479 240.808V240.077C621.907 239.727 621.304 239.345 620.669 238.995C607.303 231.395 587.112 227.388 569.237 225.671C544.061 223.159 522.473 208.023 522.473 176.318C522.473 156.157 531.838 138.509 550.157 130.94C568.126 144.264 595.461 151.483 617.78 151.483C618.923 151.483 620.034 151.387 621.113 151.292C621.24 151.292 621.399 151.26 621.526 151.26C622.352 151.197 623.114 151.133 623.844 151.133L575.047 137.491ZM623.971 150.465V151.197V150.465ZM621.59 150.306C622.383 150.37 623.177 150.402 623.971 150.465L621.59 150.306ZM575.047 137.491C584.032 143.374 602.604 148.907 621.59 150.306L575.047 137.491ZM613.208 150.433C597.176 148.271 582.318 143.438 574.508 138.318L573.968 137.968L574.063 137.332C580.984 87.3749 622.129 59.0096 670.735 59.0096C690.356 59.0096 709.309 64.9244 723.373 77.2626C737.469 89.6326 746.549 108.363 746.549 133.866C746.549 174.379 719.976 217.467 671.751 226.212V230.791C671.751 236.292 671.434 242.144 670.767 247.995C678.323 249.33 685.847 249.966 693.403 249.966C727.31 249.966 760.423 236.388 780.329 206.464L780.678 205.924L781.313 206.019C783.218 206.305 784.837 206.846 786.171 207.768C787.536 208.722 788.552 210.026 789.282 211.743C790.711 215.114 791.155 220.17 791.155 227.547C791.155 231.491 790.965 235.593 790.52 239.822C791.917 247.454 796.806 253.114 803.188 256.962C810.299 261.255 819.188 263.29 826.935 263.29C846.873 263.29 869.572 250.984 890.653 232.127C911.67 213.333 930.909 188.148 943.958 162.708C949.926 139.24 957.577 117.743 967.642 99.9357C937.259 100.158 917.67 105.819 905.67 113.769C893.479 121.846 889.066 132.244 889.066 141.784C889.066 156.062 900.177 168.527 915.035 168.527H916.02V169.513C916.02 182.519 908.495 194.222 897.415 202.648C886.335 211.075 871.541 216.259 856.746 216.259C833.285 216.259 815.125 207.514 802.838 194.063C790.552 180.611 784.202 162.549 784.202 143.946C784.202 112.624 797.409 90.8092 817.95 76.8492C838.459 62.921 866.175 56.8791 895.256 56.8791C926.433 56.8791 959.07 63.6524 986.405 75.4182C999.072 63.2708 1014.66 56.1477 1034.82 56.1477C1045.55 56.1477 1054.09 57.8967 1060.66 60.9812C1061.46 54.9711 1062.82 48.5158 1064.95 41.7107L1065.36 40.4069L1066.47 41.1701C1100.06 64.0658 1148.76 73.4149 1183.88 73.4149C1189.53 73.4149 1194.7 72.9697 1198.96 72.5881C1200.1 72.4927 1201.15 72.3973 1202.13 72.3337L1203.88 72.2065L1203.12 73.7646C1175.4 130.209 1168.89 192.632 1165.78 244.846C1170.07 206.305 1176.35 166.015 1187.72 133.293C1201.72 93.0352 1223.62 63.6842 1259.37 63.6842C1275.82 63.6842 1288.58 69.6307 1297.25 78.8526C1305.88 88.0745 1310.36 100.476 1310.36 113.323C1310.36 119.556 1309.25 126.17 1307.06 132.403L1306.9 132.816L1306.49 132.975C1259.94 152.469 1234.1 188.466 1205.56 245.705C1215.88 227.865 1228.13 209.772 1240.58 194.444L1242.36 192.25V195.08C1242.36 209.931 1244.86 222.905 1249.53 232.127C1254.2 241.349 1260.93 246.659 1269.41 246.659C1275.02 246.659 1280.39 244.02 1285.31 239.854C1289.41 236.42 1293.15 231.999 1296.45 227.325C1296.11 222.555 1295.91 217.69 1295.91 212.729C1295.91 165.475 1311.92 128.237 1333.47 102.798C1355 77.3898 1382.14 63.6842 1404.46 63.6842C1422.4 63.6842 1433.92 71.4115 1438.81 81.5556L1439.1 82.1915L1438.59 82.7003C1433.64 87.6929 1427.6 94.7842 1423.83 103.275C1437.73 84.4493 1458.4 73.7646 1476.02 73.7646C1494.85 73.7646 1507.45 84.4175 1515.32 100.063C1523.17 115.645 1526.31 136.283 1526.31 156.539C1526.31 197.401 1516.4 241.444 1495.35 275.31C1474.31 309.209 1442.08 332.963 1397.6 332.963C1363.89 332.963 1338.43 320.148 1321.38 298.62C1314.87 290.383 1309.6 280.907 1305.6 270.382C1294.68 304.248 1264.2 332.931 1225.15 332.931C1201.05 332.931 1187.59 314.869 1181.11 297.666C1171.02 316.491 1152.13 332.931 1128.03 332.931C1113.52 332.931 1098.92 326.858 1087.97 311.53C1081.93 303.072 1077.01 291.814 1073.84 277.282C1072.09 281.893 1070.09 286.44 1067.9 290.829C1056.15 314.138 1037.8 332.931 1011.71 332.931C980.88 332.931 963.229 308.191 955.069 281.798C953.641 287.903 951.006 294.072 947.323 299.033C942.815 305.138 936.592 309.527 928.973 309.527C922.56 309.527 917.861 305.679 914.813 299.764C911.797 293.85 910.337 285.741 910.337 276.837C910.337 271.304 910.876 265.357 911.892 259.379C909.384 268.251 907.352 277.95 906.209 287.776L906.178 288.03L906.019 288.253C883.288 320.816 855.667 344.506 812.775 344.506C791.123 344.506 775.726 337.033 765.757 325.935C761.884 321.611 758.836 316.777 756.55 311.626C739.216 327.748 714.357 338.751 679.942 338.751C654.163 338.751 628.193 329.306 604.033 314.965C584.762 303.517 566.634 288.984 550.665 273.561C571.777 296.902 600.858 317.954 626.098 330.737L627.749 331.564L626.161 332.486C612.383 340.468 596.382 345.937 581.429 345.937C561.046 345.937 541.077 338.655 526.156 327.398C511.266 316.173 501.297 300.846 501.297 284.755C501.297 266.47 507.964 252.574 519.901 243.256C531.775 233.971 548.76 229.36 569.206 229.36C585.143 229.36 598.985 231.872 611.399 235.752C598.985 230.855 583.365 228.024 569.11 226.657C556.348 225.385 544.442 220.901 535.712 212.665C526.949 204.397 521.457 192.409 521.457 176.318C521.457 155.839 530.981 137.745 549.776 130.018L550.284 129.796L550.728 130.145C567.364 142.484 592.032 149.543 613.208 150.433ZM1073.17 111.733C1072.95 111.447 1072.73 111.129 1072.5 110.843C1072.35 111.193 1072.19 111.511 1072.03 111.861C1067.58 120.892 1060.73 129.223 1052.47 135.265C1052.12 135.519 1051.74 135.806 1051.36 136.06C1051.42 135.615 1051.46 135.17 1051.52 134.724C1053.55 118.475 1056.73 102.575 1061.36 88.0427C1061.39 87.9473 1061.42 87.8519 1061.46 87.7565C1061.62 87.2159 1061.81 86.6435 1062 86.1029C1061.96 85.9439 1061.93 85.7531 1061.9 85.5941C1061.87 85.3715 1061.84 85.1489 1061.81 84.8945C1061.81 84.8309 1061.77 84.7355 1061.77 84.6719C1061.52 85.2125 1061.3 85.7531 1061.04 86.2937C1060.89 86.6753 1060.73 87.0251 1060.57 87.4067C1047.36 117.521 1040.25 154.186 1040.25 191.201C1040.25 211.679 1042.31 232.158 1046.79 251.62C1046.88 252.001 1046.98 252.415 1047.07 252.796C1047.33 252.51 1047.61 252.192 1047.87 251.874C1056.03 242.589 1064.38 229.455 1070.79 215.909C1071.2 215.018 1071.62 214.16 1072 213.269C1072.09 212.22 1072.19 211.202 1072.28 210.153C1074.85 183.855 1080.7 155.617 1086.82 136.664C1086.92 136.346 1087.05 136.028 1087.14 135.71C1087.46 135.837 1087.78 135.933 1088.09 136.06C1099.33 140.13 1111.55 141.848 1123.11 141.848C1126.79 141.848 1129.71 141.689 1131.37 141.593C1132.06 141.561 1132.54 141.498 1132.73 141.498C1132.79 141.498 1132.83 141.498 1132.83 141.498V140.766C1132.79 140.766 1132.79 140.766 1132.76 140.766C1132.32 140.703 1131.87 140.671 1131.43 140.607C1105.05 137.141 1085.05 127.22 1073.17 111.733ZM1126.06 140.798C1106.51 137.523 1090.6 130.432 1079.27 119.906C1076.85 117.68 1074.66 115.263 1072.7 112.719C1067.96 122.132 1060.66 130.75 1051.93 136.855L1050.09 138.127L1050.34 135.901C1051.96 122.418 1054.38 109.158 1057.74 96.6604C1046.95 124.803 1041.17 157.843 1041.17 191.137C1041.17 211.298 1043.2 231.459 1047.52 250.634C1055.96 240.903 1064.57 227.039 1070.95 212.983C1073.39 185.349 1079.65 155.076 1086.12 135.36L1086.44 134.375L1087.43 134.756C1098.79 139.017 1111.27 140.83 1123.05 140.83C1124.13 140.83 1125.14 140.798 1126.06 140.798ZM687.975 83.1137H687.244C687.149 83.2409 687.022 83.3681 686.927 83.4953C676.863 95.929 670.545 116.058 668.291 134.343C668.291 134.406 668.291 134.438 668.259 134.502C668.259 134.629 668.227 134.724 668.227 134.852C668.196 135.011 668.196 135.17 668.164 135.36H668.894C669.021 135.201 669.116 135.042 669.243 134.915C679.942 120.478 686.578 98.7591 687.879 84.1313C687.879 84.0677 687.879 83.9723 687.911 83.9087C687.911 83.8451 687.911 83.7815 687.943 83.6861C687.943 83.4635 687.975 83.2727 687.975 83.1137ZM669.529 132.785C671.847 115.645 677.72 97.2009 686.768 85.3079C685.276 99.2361 679.149 118.984 669.529 132.785ZM927.544 230.791C929.29 231.681 931.386 231.968 934.465 231.968C936.592 231.968 939.005 231.713 941.196 231.173C939.862 224.686 939.195 219.089 939.195 213.174C939.195 209.454 939.545 205.065 940.053 200.454C936.941 211.679 932.751 221.41 927.544 230.791ZM941.196 191.678C937.894 206.91 932.878 219.311 926.179 231.173C928.338 232.604 930.846 232.985 934.465 232.985C936.973 232.985 939.862 232.635 942.37 231.904C940.942 225.067 940.211 219.311 940.211 213.174C940.211 207.228 941.1 199.468 942.18 191.868C942.434 190.151 942.688 188.466 942.942 186.78C942.973 186.494 943.037 186.208 943.069 185.89C943.069 185.858 943.069 185.795 943.1 185.763H942.37C941.989 187.798 941.608 189.77 941.196 191.678ZM1412.4 136.06H1411.67C1411.48 136.346 1411.29 136.601 1411.1 136.887C1398.21 155.839 1392.97 179.212 1392.97 198.387C1392.97 219.629 1399.44 236.197 1408.78 236.197C1414.18 236.197 1416.68 230.06 1417.76 223.954C1408.78 216.736 1403.38 205.956 1403.38 187.575C1403.38 174.856 1405.79 158.32 1412.02 137.332C1412.05 137.237 1412.08 137.173 1412.11 137.078C1412.18 136.887 1412.21 136.696 1412.27 136.505C1412.3 136.346 1412.37 136.187 1412.4 136.06ZM1410.18 140.162C1398.71 158.415 1393.98 180.261 1393.98 198.387C1393.98 208.913 1395.6 218.262 1398.33 224.876C1401.1 231.618 1404.81 235.211 1408.81 235.211C1411.06 235.211 1412.75 233.971 1414.08 231.84C1415.32 229.837 1416.18 227.166 1416.72 224.368C1407.7 216.926 1402.43 205.86 1402.43 187.575C1402.4 175.364 1404.62 159.751 1410.18 140.162ZM1658.25 132.022L1658.32 131.831C1663.59 112.147 1675.68 95.134 1690.16 83.0501C1704.64 70.9663 1721.56 63.716 1736.61 63.716C1747.46 63.716 1757.4 67.5001 1764.58 76.086C1771.75 84.6719 1776.1 97.9005 1776.1 116.567C1776.1 156.857 1754.58 210.916 1721.46 254.863C1688.35 298.81 1643.4 332.995 1596.34 332.995C1581.9 332.995 1570.41 329.592 1561.36 323.805C1552.31 318.049 1545.71 309.972 1540.94 300.75C1531.42 282.338 1529.2 259.283 1529.2 240.49C1529.2 199.659 1536.06 167.478 1549.42 131.004L1549.8 129.955L1550.79 130.463C1562.06 136.092 1574.79 140.258 1587.14 142.325C1551.77 130.336 1526.31 107.345 1526.31 71.9203C1526.31 59.8682 1529.23 47.1484 1533.58 36.2411L1534.09 34.9691L1535.13 35.8277C1571.99 65.5604 1629.3 83.5271 1673.33 83.5271H1677.62L1676.7 85.0535C1647.3 133.516 1632.6 178.417 1626.85 255.722V255.881L1626.79 256.04C1619.77 272.926 1608.63 287.553 1599.42 298.206C1653.62 248.853 1659.4 184.109 1659.4 151.928C1659.4 145.823 1659.14 140.894 1658.86 137.523C1658.73 135.837 1658.6 134.502 1658.48 133.611C1658.41 133.166 1658.38 132.816 1658.35 132.594L1658.32 132.403V132.34V132.276L1658.25 132.022ZM1594.88 301.768C1604.6 290.956 1617.9 274.738 1625.81 255.658C1631.52 178.735 1646.09 133.802 1675.21 85.5305C1675.4 85.2125 1675.62 84.8627 1675.81 84.5447H1673.3C1629.39 84.5447 1572.38 66.8005 1535.29 37.2905C1535.04 37.0679 1534.75 36.8453 1534.47 36.6227C1534.34 36.9407 1534.21 37.2587 1534.09 37.6085C1529.99 48.1978 1527.26 60.4088 1527.26 71.9521C1527.26 108.553 1554.95 131.863 1593.01 143.183C1593.52 143.342 1594.03 143.469 1594.54 143.628V144.36C1594.47 144.36 1594.41 144.36 1594.34 144.328C1594.09 144.296 1593.81 144.264 1593.55 144.233C1593.3 144.201 1593.07 144.169 1592.82 144.137C1578.88 142.547 1564.12 138.127 1551.2 131.799C1550.88 131.64 1550.6 131.513 1550.28 131.354C1550.18 131.672 1550.06 131.99 1549.93 132.308C1536.85 168.305 1530.12 200.168 1530.12 240.522C1530.12 277.982 1539.1 332.009 1596.28 332.009C1689.43 332.009 1775.02 196.575 1775.02 116.599C1775.02 79.4886 1757.75 64.7336 1736.54 64.7336C1707.05 64.7336 1669.65 93.1942 1659.21 132.085C1659.21 132.085 1660.29 139.653 1660.29 151.896C1660.29 184.904 1654.22 252.16 1596.31 302.181C1596.06 302.404 1595.81 302.626 1595.55 302.849L1594.88 301.768ZM1658.25 132.022L1658.28 132.212L1658.25 132.022ZM1908.93 82.0325C1903.19 87.7883 1895.98 96.4378 1892.39 106.868L1893.12 107.599C1893.31 107.313 1893.51 107.027 1893.7 106.741C1907.41 86.3891 1929 74.814 1947.1 74.814C1983.8 74.814 1996.37 116.249 1996.37 156.603C1996.37 238.01 1956.81 332.041 1868.68 332.041C1801.79 332.041 1767.97 281.257 1767.97 212.792C1767.97 118.761 1831.63 64.7336 1875.5 64.7336C1893.09 64.7336 1904.27 72.3019 1908.93 82.0325ZM1894.87 103.306C1908.78 84.4811 1929.44 73.7964 1947.06 73.7964C1965.89 73.7964 1978.49 84.4493 1986.34 100.095C1994.18 115.677 1997.32 136.314 1997.32 156.571C1997.32 197.433 1987.42 241.476 1966.37 275.342C1945.32 309.241 1913.13 332.995 1868.65 332.995C1834.93 332.995 1809.44 320.18 1792.42 298.651C1775.43 277.155 1766.93 247.104 1766.93 212.729C1766.93 165.475 1782.93 128.237 1804.48 102.798C1826.01 77.3898 1853.15 63.6842 1875.47 63.6842C1893.41 63.6842 1904.93 71.4115 1909.82 81.5556L1910.14 82.1915L1909.63 82.7003C1904.65 87.6929 1898.65 94.816 1894.87 103.306ZM1883.38 136.06H1882.65C1882.46 136.346 1882.27 136.601 1882.08 136.887C1869.19 155.839 1863.95 179.212 1863.95 198.387C1863.95 219.629 1870.42 236.197 1879.76 236.197C1885.16 236.197 1887.66 230.06 1888.74 223.954C1879.76 216.736 1874.36 205.956 1874.36 187.575C1874.36 174.856 1876.77 158.32 1882.96 137.332C1883 137.237 1883.03 137.173 1883.06 137.078C1883.12 136.887 1883.19 136.696 1883.22 136.505C1883.31 136.346 1883.35 136.187 1883.38 136.06ZM1881.16 140.162C1869.69 158.415 1864.96 180.261 1864.96 198.387C1864.96 208.913 1866.58 218.262 1869.28 224.876C1872.04 231.618 1875.76 235.211 1879.79 235.211C1882.01 235.211 1883.73 233.971 1885.06 231.84C1886.33 229.837 1887.16 227.166 1887.7 224.368C1878.68 216.926 1873.41 205.86 1873.41 187.575C1873.41 175.364 1875.6 159.751 1881.16 140.162ZM2041.32 204.493C2068.31 242.875 2108.57 278.109 2142.44 300.846C2142.63 300.973 2142.79 301.068 2142.98 301.195C2143.2 301.354 2143.42 301.482 2143.65 301.641C2143.71 301.672 2143.74 301.704 2143.81 301.768L2144.15 301.036C2143.77 300.718 2143.42 300.369 2143.04 300.051C2141.84 299.001 2140.63 297.92 2139.46 296.871C2085.55 249.298 2025.13 195.939 2025.13 137.491C2025.13 88.4879 2075.83 64.7336 2125.49 64.7336C2172.95 64.7336 2218.98 86.3573 2218.98 127.411C2218.98 147.222 2201.71 166.683 2181.24 177.845C2150.44 143.915 2121.61 125.312 2086.72 104.388C2084.91 103.306 2083.1 102.225 2081.26 101.112L2080.91 101.462C2080.94 101.494 2080.98 101.526 2081.01 101.526C2081.26 101.685 2081.48 101.875 2081.74 102.034C2083.23 103.084 2084.69 104.133 2086.18 105.183C2146.63 148.303 2199.97 192.568 2199.97 253.814C2199.97 306.41 2163.3 331.977 2096.37 331.977C2027.67 331.977 1987.38 302.785 1987.38 260.651C1987.38 231.522 2009.67 204.493 2041.32 204.493ZM2096.88 111.702C2127.07 130.177 2153.01 148.207 2180.47 178.513L2181.01 179.085L2181.71 178.703C2192.06 173.075 2201.62 165.316 2208.57 156.475C2215.56 147.635 2219.97 137.586 2219.97 127.411C2219.97 106.423 2208.19 90.4912 2190.54 79.8066C2172.89 69.1537 2149.33 63.716 2125.45 63.716C2100.5 63.716 2075.2 69.6943 2056.12 81.8735C2037.01 94.0846 2024.08 112.56 2024.08 137.459C2024.08 167.891 2040.28 196.861 2063.2 224.209C2084.15 249.171 2110.82 272.925 2136.22 295.376C2103.93 272.703 2067.2 239.663 2042.09 203.92L2041.8 203.507H2041.29C2009 203.507 1986.34 231.045 1986.34 260.714C1986.34 282.147 1996.59 300.273 2015.51 313.025C2034.37 325.745 2061.83 333.059 2096.31 333.059C2129.87 333.059 2156 326.635 2173.78 313.502C2191.59 300.305 2200.89 280.43 2200.89 253.878C2200.89 222.014 2186.63 194.794 2164.57 169.99C2146.25 149.32 2122.44 130.304 2096.88 111.702Z" fill="white"/>
</g>
<defs>
<filter id="filter0_d" x="0" y="0.969147" width="2253.97" height="378.968" filterUnits="userSpaceOnUse" color-interpolation-filters="sRGB">
<feFlood flood-opacity="0" result="BackgroundImageFix"/>
<feColorMatrix in="SourceAlpha" type="matrix" values="0 0 0 0 0 0 0 0 0 0 0 0 0 0 0 0 0 0 127 0"/>
<feOffset/>
<feGaussianBlur stdDeviation="17"/>
<feColorMatrix type="matrix" values="0 0 0 0 1 0 0 0 0 1 0 0 0 0 1 0 0 0 0.4 0"/>
<feBlend mode="normal" in2="BackgroundImageFix" result="effect1_dropShadow"/>
<feBlend mode="normal" in="SourceGraphic" in2="effect1_dropShadow" result="shape"/>
</filter>
</defs>
</svg>
