<svg width="225" height="164" viewBox="0 0 225 164" fill="none" xmlns="http://www.w3.org/2000/svg">
<path d="M18.3095 72.7036C18.3662 72.7036 18.4229 72.7178 18.4796 72.7178C18.3662 71.644 18.3095 70.5562 18.3095 69.4542C18.3095 51.4549 32.9486 36.8463 51.0172 36.8463C52.3777 36.8463 53.7239 36.9452 55.0419 37.1006C63.5731 15.3856 84.7594 0 109.559 0C135.663 0 157.771 17.0386 165.324 40.5762C167.818 39.6578 170.511 39.1351 173.331 39.1351C185.603 39.1351 195.623 48.6292 196.473 60.6523C196.501 60.6523 196.53 60.6523 196.558 60.6523C212.26 60.6382 225 73.3394 225 89.0076C225 104.676 212.26 117.377 196.544 117.377C196.459 117.377 196.374 117.363 196.289 117.363C194.517 131.336 182.585 142.158 168.087 142.158C167.988 142.158 167.889 142.144 167.79 142.144C156.878 155.481 140.269 164 121.648 164C104.656 164 89.3368 156.894 78.4956 145.506C73.5073 147.753 67.9662 149.01 62.1276 149.01C40.091 149.01 22.235 131.208 22.235 109.239C22.235 109.098 22.2492 108.957 22.2492 108.801C20.9737 109.084 19.67 109.239 18.3095 109.239C8.19109 109.239 0 101.059 0 90.9855C0 80.9121 8.20526 72.7036 18.3095 72.7036Z" fill="white"/>
</svg>
