<svg width="568" height="567" viewBox="0 0 568 567" fill="none" xmlns="http://www.w3.org/2000/svg">
<g filter="url(#filter0_d)">
<path d="M283.736 555.727C283.736 459.181 287.582 396.319 283.736 355.496C279.889 396.319 283.736 459.181 283.736 555.727Z" fill="white"/>
<path d="M11.3894 283.346C107.936 283.346 170.798 287.193 211.62 283.346C170.798 279.5 107.936 283.346 11.3894 283.346Z" fill="white"/>
<path d="M307.751 268.931C314.751 252.713 333.152 233.93 363.059 204.059C333.187 233.93 314.37 252.366 298.186 259.366C290.042 248.416 285.815 232.925 283.77 211.232C281.725 232.925 277.498 248.416 269.354 259.366C253.136 252.366 234.353 233.965 204.482 204.059C234.353 233.93 252.789 252.748 259.789 268.931C248.839 277.075 233.348 281.302 211.655 283.347C233.348 285.392 248.839 289.619 259.789 297.763C252.789 313.981 234.388 332.764 204.482 362.635C234.353 332.764 253.171 314.328 269.354 307.328C277.498 318.278 281.725 333.769 283.77 355.462C285.815 333.769 290.042 318.278 298.186 307.328C314.404 314.328 333.187 332.729 363.059 362.635C333.187 332.764 314.751 313.947 307.751 297.763C318.701 289.619 334.192 285.392 355.885 283.347C334.192 281.302 318.701 277.075 307.751 268.931Z" fill="white"/>
<path d="M283.736 11C283.736 107.546 279.889 170.409 283.736 211.231C287.617 170.409 283.736 107.546 283.736 11Z" fill="white"/>
<path d="M556.116 283.346C459.57 283.346 396.707 279.5 355.885 283.346C396.707 287.228 459.57 283.346 556.116 283.346Z" fill="white"/>
</g>
<defs>
<filter id="filter0_d" x="0.389404" y="0" width="566.727" height="566.727" filterUnits="userSpaceOnUse" color-interpolation-filters="sRGB">
<feFlood flood-opacity="0" result="BackgroundImageFix"/>
<feColorMatrix in="SourceAlpha" type="matrix" values="0 0 0 0 0 0 0 0 0 0 0 0 0 0 0 0 0 0 127 0"/>
<feOffset/>
<feGaussianBlur stdDeviation="5.5"/>
<feColorMatrix type="matrix" values="0 0 0 0 1 0 0 0 0 1 0 0 0 0 1 0 0 0 1 0"/>
<feBlend mode="normal" in2="BackgroundImageFix" result="effect1_dropShadow"/>
<feBlend mode="normal" in="SourceGraphic" in2="effect1_dropShadow" result="shape"/>
</filter>
</defs>
</svg>
