<svg width="554" height="985" viewBox="0 0 554 985" fill="none" xmlns="http://www.w3.org/2000/svg">
<g opacity="0.81">
<path opacity="0.81" d="M144.49 1027.67H192.648V23.2729H187.534C163.775 23.2729 144.511 42.5195 144.511 66.2584V1027.67H144.49Z" fill="url(#paint0_linear)"/>
<path opacity="0.81" d="M144.575 1027.61L192.649 1027.39L192.371 1027.67L192.052 902.122L191.86 776.572L191.69 651.022L191.881 525.472L192.265 274.373L192.031 23.273L192.627 23.8691C187.215 23.8052 181.887 23.9117 176.752 25.3381C171.616 26.6794 166.758 29.0214 162.475 32.1724C153.908 38.4318 147.857 48.0338 145.939 58.4448C144.873 63.6397 145.278 69.0262 145.214 74.4126L145.236 90.5508L145.3 122.848L145.427 251.996V510.271L145.086 768.716L144.575 1027.61ZM144.426 1027.76L143.851 769.589L143.51 511.016V252.273L143.637 122.912L143.701 90.5721L143.723 74.4126L143.744 66.3223L143.957 62.2132C144.085 60.8506 144.341 59.5093 144.532 58.1467C146.557 47.3738 152.822 37.495 161.686 31.0653C166.097 27.8291 171.126 25.4446 176.411 24.082C181.696 22.6342 187.279 22.5491 192.606 22.6342H193.203V23.2304L192.968 274.33L193.352 525.43L193.544 650.98L193.373 776.529L193.181 902.079L192.862 1027.63V1027.93H192.585L144.426 1027.76Z" fill="url(#paint1_linear)"/>
</g>
<path d="M192.648 111.99L204.347 136.836V1021.52H192.648V111.99Z" fill="url(#paint2_linear)"/>
<path d="M192.627 111.884L204.539 136.751L204.56 136.794V136.836C204.965 210.565 204.944 284.273 205.093 358.001L205.285 468.584L205.136 579.167L204.752 800.332L204.773 910.915L204.922 1021.5V1022.07H204.347L192.648 1022.09H192.052V1021.5L191.711 793.838L191.839 566.094L192.627 111.884ZM192.67 112.097L193.458 567.414L193.586 794.435L193.245 1021.54L192.648 1020.94L204.347 1020.97L203.772 1021.54L203.921 910.957L203.942 800.375L203.559 579.209L203.41 468.627L203.601 358.044C203.772 284.315 203.729 210.608 204.134 136.879L204.155 136.964L192.67 112.097Z" fill="url(#paint3_linear)"/>
<path d="M216.024 1035.72H192.648V248.441H195.141C206.691 248.441 216.046 257.787 216.046 269.327V1035.72H216.024Z" fill="url(#paint4_linear)"/>
<path d="M216.11 1035.8L192.648 1035.95H192.435V1035.74C192.03 970.124 192.052 904.528 191.881 838.911L191.689 740.506L191.86 642.102L192.265 445.271L192.052 248.441V247.845H192.648C194.715 247.866 196.889 247.76 198.999 248.185C201.108 248.59 203.175 249.229 205.093 250.251C206.989 251.272 208.758 252.529 210.292 254.019C211.805 255.552 213.105 257.276 214.149 259.171C215.172 261.066 215.875 263.131 216.302 265.239C216.728 267.347 216.706 269.54 216.706 271.605L216.728 284.145L216.834 334.284L216.962 434.605V635.246L216.642 835.717L216.11 1035.8ZM215.961 1035.66L215.407 834.887L215.087 634.522V434.328L215.215 334.22L215.321 284.166L215.343 271.647C215.343 269.54 215.385 267.517 214.98 265.537C214.575 263.557 213.936 261.62 212.977 259.831C211.997 258.064 210.782 256.425 209.376 254.977C207.927 253.551 206.265 252.358 204.496 251.4C202.706 250.442 200.746 249.825 198.764 249.42C196.782 248.994 194.737 249.08 192.627 249.058L193.224 248.462L193.011 445.292L193.416 642.123L193.586 740.527L193.394 838.932C193.224 904.549 193.266 970.145 192.84 1035.76L192.627 1035.55L215.961 1035.66Z" fill="url(#paint5_linear)"/>
<path d="M235.096 0.896484L249.778 31.3206V1157.48H235.096V0.896484Z" fill="url(#paint6_linear)"/>
<path d="M235.075 0.790039L249.97 31.2354L249.991 31.278V31.3206L250.524 312.866L250.716 453.638L250.567 594.411L250.183 875.956L250.354 1157.5V1158.08H249.778L235.096 1158.1H234.5V1157.5L234.159 868.078L234.287 578.571L235.075 0.790039ZM235.139 1.00294L235.927 579.827L236.055 868.61L235.714 1157.48L235.118 1156.88L249.8 1156.9L249.224 1157.48L249.395 875.934L249.011 594.389L248.862 453.617L249.054 312.844L249.587 31.2993L249.608 31.3844L235.139 1.00294Z" fill="url(#paint7_linear)"/>
<g opacity="0.61">
<path opacity="0.61" d="M232.539 54.165L254.189 91.7853V1048.66H232.539V54.165Z" fill="url(#paint8_linear)"/>
<path opacity="0.61" d="M232.518 54.0586L254.424 91.6575L254.466 91.7214V91.8066L254.786 211.416L254.956 331.026L255.127 450.636L254.956 570.246L254.573 809.465L254.594 929.075L254.743 1048.68V1049.26H254.168L232.518 1049.3H231.9V1048.68L231.58 799.778L231.687 550.786L232.518 54.0586ZM232.561 54.2502L233.349 552.042L233.456 800.31L233.136 1048.66L232.518 1048.05L254.168 1048.09L253.593 1048.66L253.742 929.054L253.763 809.444L253.38 570.224L253.209 450.615L253.38 331.005L253.55 211.395L253.87 91.7853L253.912 91.913L232.561 54.2502Z" fill="url(#paint9_linear)"/>
</g>
<path d="M228.128 111.99L257.854 158.105V1035.72H228.128V111.99Z" fill="url(#paint10_linear)"/>
<path d="M228.107 111.884L258.131 157.914L258.174 157.999V158.105L258.643 377.504L258.792 487.213L258.622 596.923L258.238 816.321L258.259 926.031L258.409 1035.74V1036.32H257.833L228.128 1036.36H227.51V1035.74L227.191 804.526L227.297 573.248L228.107 111.884ZM228.171 112.097L228.981 574.483L229.087 805.059L228.767 1035.72L228.15 1035.1L257.854 1035.14L257.279 1035.72L257.428 926.01L257.45 816.3L257.066 596.902L256.896 487.192L257.045 377.482L257.514 158.084L257.556 158.254L228.171 112.097Z" fill="url(#paint11_linear)"/>
<g opacity="0.76">
<path opacity="0.76" d="M224.463 169.304L261.882 224.085V1048.66H224.463V169.304Z" fill="url(#paint12_linear)"/>
<path opacity="0.76" d="M224.442 169.198L262.223 223.872L262.287 223.978V224.106L262.713 430.24L262.841 533.307L262.67 636.374L262.308 842.509C262.159 911.213 262.436 979.938 262.479 1048.64V1049.2H261.903L224.484 1049.26H223.845V1048.62L223.547 828.521L223.653 608.335L224.442 169.198ZM224.506 169.411L225.315 609.612L225.422 829.096L225.102 1048.66L224.463 1048.03L261.882 1048.09L261.328 1048.64C261.371 979.938 261.648 911.213 261.498 842.509L261.136 636.374L260.966 533.307L261.094 430.24L261.52 224.106L261.584 224.319L224.506 169.411Z" fill="url(#paint13_linear)"/>
</g>
<path d="M304.628 600.479H328.281C328.281 600.479 349.739 586.022 356.899 761.03C364.059 936.037 551.153 995.395 551.153 995.395L330.497 1015.94L304.628 1006.81V600.479Z" fill="url(#paint14_linear)"/>
<path d="M304.543 600.415L328.281 600.223L328.132 600.266C329.496 599.542 330.966 600.095 332.031 600.819C333.161 601.565 333.992 602.587 334.78 603.608C336.315 605.716 337.465 608.037 338.467 610.4C340.491 615.127 341.94 620.066 343.24 625.027C345.818 634.948 347.502 645.082 349.015 655.195C351.955 675.464 353.745 695.86 355.216 716.256C355.919 726.454 356.516 736.674 357.048 746.893C357.304 752.003 357.496 757.113 357.815 762.222L359.009 777.466C361.289 797.714 366.147 817.663 373.712 836.59C381.256 855.517 391.441 873.38 403.63 889.71C415.755 906.125 430.117 920.815 445.609 934.122C447.506 935.825 449.509 937.422 451.49 939.018L457.478 943.809C461.591 946.853 465.618 950.004 469.838 952.857C478.17 958.755 486.842 964.205 495.686 969.336C504.529 974.467 513.585 979.215 522.876 983.494C532.146 987.752 541.607 991.755 551.26 994.991L553.156 995.63L551.175 995.821L330.561 1016.92L330.348 1016.94L330.135 1016.88L304.266 1007.77L303.605 1007.53V1006.83L303.584 905.06C303.605 871.144 303.52 837.165 303.712 803.313L304.543 600.415ZM304.692 600.564L305.502 804.016C305.693 837.867 305.608 871.613 305.629 905.422L305.608 1006.81L304.948 1005.87L330.796 1015L330.391 1014.96L551.089 994.97L551.004 995.8C531.613 989.072 513.138 980.045 495.323 969.953C486.437 964.886 477.722 959.457 469.326 953.581C465.064 950.728 461.016 947.598 456.882 944.575L450.851 939.806C448.827 938.231 446.824 936.634 444.906 934.931C429.286 921.688 414.775 906.998 402.501 890.561C390.163 874.189 379.807 856.262 372.114 837.229C364.379 818.216 359.371 798.076 357.261 777.658L356.132 762.308C355.855 757.198 355.685 752.088 355.45 746.978C354.981 736.759 354.427 726.561 353.788 716.363C352.403 695.966 350.741 675.592 347.907 655.366C346.479 645.253 344.774 635.182 342.366 625.261C341.152 620.321 339.767 615.403 337.827 610.698C336.869 608.356 335.761 606.036 334.312 603.992C333.566 602.991 332.756 601.99 331.733 601.309C330.774 600.606 329.432 600.202 328.451 600.713L328.366 600.755H328.302L304.692 600.564Z" fill="url(#paint15_linear)"/>
<path d="M243.172 372.969C243.172 372.969 220.712 367.263 219.881 389.703C219.05 412.143 219.881 1027.67 219.881 1027.67H243.172V372.969Z" fill="url(#paint16_linear)"/>
<path d="M243.087 373.033C239.805 372.394 236.162 372.224 232.773 372.926C229.385 373.586 226.082 375.183 223.93 377.929C221.693 380.591 220.734 384.082 220.393 387.489C220.329 388.362 220.201 389.213 220.18 390.086L220.158 392.705L220.116 397.943L220.137 439.927L220.244 523.897L220.435 607.866C220.542 635.863 220.372 663.839 220.372 691.836L220.095 859.775C220.009 887.772 220.073 915.748 220.18 943.745L220.435 1027.71L219.86 1027.14L243.151 1027.08L242.512 1027.71L242.192 864.203L242.171 700.714L242.49 537.054L243.087 373.033ZM243.258 372.905L243.833 536.288L244.153 699.99L244.131 863.842L243.812 1027.67V1028.31H243.172L219.881 1028.25H219.306V1027.67L219.37 943.702C219.413 915.705 219.434 887.729 219.285 859.732L218.752 691.793C218.709 663.796 218.518 635.821 218.603 607.824L218.795 523.854L219.072 439.885C219.114 425.897 219.242 411.888 219.434 397.9L219.54 392.641L219.583 390.022C219.626 389.15 219.754 388.255 219.839 387.382C220.244 383.912 221.267 380.335 223.611 377.589C225.869 374.778 229.279 373.182 232.731 372.564C236.226 371.968 239.72 372.075 243.258 372.905Z" fill="url(#paint17_linear)"/>
<g opacity="0.69">
<path opacity="0.69" d="M287.56 556.365L273.794 535.053H257.833L239.124 556.365C239.124 556.365 244.622 944.426 178.052 1001.51C111.461 1058.56 347.545 1027.69 347.545 1027.69C347.545 1027.69 284.811 989.306 287.56 556.365Z" fill="url(#paint18_linear)"/>
<path opacity="0.69" d="M287.453 556.386L273.581 535.202L273.815 535.329L257.855 535.436L258.132 535.308L239.529 556.705L239.657 556.343C240.232 611.72 239.188 667.117 236.567 722.451C235.16 750.108 233.157 777.743 230.558 805.314C227.915 832.885 224.591 860.392 219.946 887.708C217.623 901.355 214.917 914.96 211.635 928.415C208.353 941.871 204.475 955.22 199.297 968.079C196.74 974.509 193.842 980.854 190.283 986.815C189.388 988.305 188.408 989.753 187.492 991.222C186.49 992.649 185.425 994.033 184.402 995.416C183.23 996.715 182.165 998.099 180.907 999.312C179.65 1000.5 178.393 1001.74 177.093 1002.89C174.515 1005.17 172.107 1007.66 170.082 1010.4C169.55 1011.09 169.102 1011.79 168.697 1012.53C168.228 1013.26 167.887 1014.02 167.568 1014.79C167.184 1015.54 167.078 1016.39 166.843 1017.18C166.801 1017.98 166.609 1018.81 166.779 1019.62C166.801 1020.45 167.12 1021.22 167.376 1021.99C167.802 1022.69 168.143 1023.43 168.74 1024.03C169.784 1025.33 171.19 1026.31 172.618 1027.2C175.559 1028.91 178.84 1030.03 182.143 1030.95C195.504 1034.36 209.462 1034.95 223.249 1035.29C237.078 1035.51 250.929 1035.06 264.737 1034.34C292.375 1032.8 319.971 1030.14 347.417 1026.67L347.033 1028.44C346.735 1028.22 346.437 1028.01 346.181 1027.78L345.478 1027.1L344.093 1025.71L341.706 1022.71C340.15 1020.69 338.957 1018.45 337.551 1016.32C336.23 1014.17 335.228 1011.85 334.056 1009.62L332.351 1006.23C331.819 1005.08 331.392 1003.91 330.902 1002.74C326.875 993.5 323.87 983.919 320.866 974.339C318.33 964.63 315.432 955.007 313.535 945.171L310.36 930.48C309.295 925.584 308.613 920.623 307.718 915.684C304.031 895.969 301.73 876.062 299.088 856.219L296.083 826.327C295.593 821.346 295.039 816.364 294.613 811.382L293.547 796.393L291.523 766.416C291.139 761.434 290.948 756.431 290.735 751.428L290.095 736.418L288.817 706.42C288.369 696.413 288.348 686.407 288.092 676.4L287.496 646.381L287.24 631.371L287.261 616.382L287.453 556.386ZM287.666 556.322C288.071 596.284 288.092 636.438 289.456 676.4C289.776 686.407 289.861 696.413 290.372 706.398L291.843 736.375L292.567 751.364C292.802 756.367 293.015 761.349 293.441 766.331L295.657 796.244L296.722 811.211C297.149 816.193 297.681 821.154 298.171 826.136L301.133 855.985C303.754 875.807 306.035 895.692 309.7 915.343C310.595 920.261 311.277 925.222 312.321 930.097L315.474 944.745C317.35 954.56 320.248 964.141 322.741 973.807C325.724 983.323 328.686 992.862 332.671 1002C333.161 1003.14 333.587 1004.32 334.099 1005.44L335.782 1008.77C336.933 1010.96 337.913 1013.26 339.213 1015.37C340.577 1017.43 341.749 1019.62 343.24 1021.56L345.52 1024.44L346.799 1025.69L347.438 1026.33L348.056 1026.82L349.953 1028.31L347.673 1028.59C320.141 1031.93 292.503 1034.4 264.801 1035.78C250.95 1036.44 237.078 1036.8 223.206 1036.49C209.355 1036.08 195.397 1035.44 181.866 1031.93C178.521 1030.99 175.175 1029.82 172.128 1028.03C170.636 1027.1 169.145 1026.07 168.015 1024.65C167.376 1024.01 166.992 1023.16 166.524 1022.37C166.225 1021.5 165.884 1020.65 165.842 1019.73C165.65 1018.81 165.863 1017.92 165.927 1017.03C166.183 1016.17 166.311 1015.26 166.715 1014.47C167.056 1013.64 167.419 1012.83 167.909 1012.11C168.335 1011.34 168.825 1010.6 169.358 1009.92C171.446 1007.08 173.897 1004.59 176.518 1002.29C177.839 1001.14 179.053 999.951 180.311 998.78C181.547 997.588 182.612 996.225 183.763 994.948C184.786 993.564 185.851 992.202 186.831 990.796C187.769 989.349 188.728 987.922 189.623 986.453C193.181 980.534 196.101 974.254 198.658 967.845C203.729 954.986 207.522 941.658 210.74 928.202C213.958 914.747 216.579 901.163 218.816 887.516C227.702 832.885 231.794 777.594 234.649 722.345C237.547 667.075 238.889 611.698 238.57 556.364V556.152L238.698 556.002L257.514 534.797L257.62 534.669H257.791L273.751 534.776H273.9L273.986 534.904L287.666 556.322Z" fill="url(#paint19_linear)"/>
</g>
<path d="M398.175 665.223H388.821L367.362 746.552V1071.83H421.828V746.169L398.175 665.223Z" fill="url(#paint20_linear)"/>
<path d="M398.111 665.308L388.821 665.414L389.012 665.265L378.613 706.015L368.023 746.723L368.044 746.552L368.321 827.882L368.044 909.211L367.746 990.541C367.618 1017.64 367.852 1044.75 367.874 1071.87L367.362 1071.36L421.828 1071.15L421.104 1071.87L420.806 990.456L420.699 909.041L420.806 827.626L421.168 746.212L421.189 746.403L398.111 665.308ZM398.239 665.138L410.385 705.44L422.468 745.999L422.489 746.084V746.19L422.851 827.605L422.958 909.02L422.851 990.434L422.553 1071.85V1072.57H421.828L367.362 1072.36H366.851V1071.85C366.893 1044.75 367.128 1017.64 366.979 990.52L366.68 909.19L366.403 827.861L366.68 746.531V746.446L366.702 746.361L377.569 705.738L388.629 665.159L388.671 665.01H388.821L398.239 665.138Z" fill="url(#paint21_linear)"/>
<path d="M398.175 665.223L377.249 749.214L421.828 914.321V746.169L398.175 665.223Z" fill="url(#paint22_linear)"/>
<path d="M398.175 665.329L393.082 686.641L388.138 707.74C384.9 721.749 381.554 735.545 378.145 749.426V748.979C381.959 762.712 385.581 776.487 389.268 790.262L400.008 831.65C403.652 845.425 407.253 859.221 411.046 872.954L422.425 914.172L421.232 914.321C421.018 886.303 420.805 858.263 420.763 830.245L420.741 788.196C420.741 774.187 420.763 760.178 420.912 746.148L420.955 746.403L398.175 665.329ZM398.175 665.116L422.723 745.914L422.766 746.041V746.19C422.915 760.199 422.936 774.209 422.936 788.239L422.915 830.288C422.872 858.306 422.659 886.345 422.446 914.364L422.404 918.877L421.253 914.534L410.343 873.188C406.699 859.413 402.863 845.681 399.091 831.948L387.563 790.772C383.813 777.019 380.02 763.287 376.397 749.49L376.333 749.256L376.397 749.043C379.956 734.928 383.578 720.727 387.307 706.739L392.805 685.832L398.175 665.116Z" fill="url(#paint23_linear)"/>
<path d="M129.083 133.302C129.083 133.302 123.585 186.57 97.1621 194.938V214.716L86.6993 235.262V1048.66H129.062V133.302H129.083Z" fill="url(#paint24_linear)"/>
<path d="M129.083 133.408C129.275 133.43 129.105 133.728 129.126 133.877L129.062 134.43L128.913 135.559L128.593 137.815C128.359 139.306 128.124 140.796 127.847 142.286C127.315 145.267 126.697 148.226 125.972 151.186C124.566 157.083 122.797 162.895 120.517 168.516C118.237 174.137 115.445 179.587 111.738 184.42C108.03 189.211 103.171 193.383 97.2688 195.321L97.5458 194.938L97.631 214.716V214.823L97.5671 214.929L87.1469 235.496L87.2108 235.262L87.5305 438.607C87.7436 506.396 87.4452 574.185 87.3813 641.952L87.0191 845.297L87.2108 1048.64L86.6568 1048.09L129.019 1048L128.38 1048.64L128.082 820.111L128.252 591.685L129.083 133.408ZM129.083 133.195L129.829 590.259L130 819.515L129.701 1048.66V1049.3H129.062L86.6994 1049.22H86.1454V1048.66L86.3372 845.319L85.9749 641.973C85.911 574.185 85.634 506.396 85.8257 438.628L86.1454 235.283V235.155L86.2093 235.049L96.7147 214.525L96.6721 214.738L96.7573 194.959V194.661L97.0344 194.576C102.745 192.766 107.518 188.742 111.226 184.058C114.934 179.31 117.747 173.924 120.07 168.367C122.371 162.789 124.182 156.998 125.631 151.143C126.356 148.205 126.995 145.267 127.57 142.286C127.847 140.796 128.103 139.306 128.337 137.815L128.678 135.58L128.828 134.451L128.892 133.898C128.977 133.621 128.849 133.536 129.083 133.195Z" fill="url(#paint25_linear)"/>
<path d="M38.2852 517.552H45.9991L61.4056 700.011L65.2626 768.652V808.06V844.744V880.512V1006.81H0.866364L9.68835 808.06L38.2852 517.552Z" fill="url(#paint26_linear)"/>
<path d="M38.2212 517.467L45.999 517.382H46.1482L46.1695 517.531C49.9838 558.196 53.4785 598.882 57.0372 639.568L62.3431 700.586C63.6004 720.983 64.6019 741.379 65.71 761.775C65.8165 764.33 66.0296 766.863 66.0722 769.418L66.0509 777.083L66.0083 792.412L65.9231 823.049L65.7313 884.302C65.4969 925.137 65.6674 965.972 65.7739 1006.81V1007.32H65.2625L0.887575 1007.51H0.141754L0.163064 1006.76C1.80387 965.887 3.48729 925.009 5.31988 884.131L8.00483 822.815L8.70803 807.486L10.1997 792.178L13.2043 761.562C17.1251 720.706 21.4722 679.977 25.6275 639.27L38.2212 517.467ZM38.3703 517.637L26.906 640.057C23.0278 680.765 19.3626 721.451 15.2712 762.009L12.2667 792.455L10.7537 807.677L10.0505 823.006L7.30163 884.302C5.51166 925.158 3.57253 966.014 1.59078 1006.87L0.887575 1006.13L65.2625 1006.32L64.7511 1006.83C64.8576 965.993 65.0281 925.158 64.7937 884.323L64.6019 823.07L64.5167 792.455L64.474 777.147L64.4527 769.503C64.3888 766.949 64.1757 764.415 64.0479 761.86C62.8545 741.485 61.576 721.132 60.5532 700.735L55.5881 639.696C52.2639 598.988 48.8971 558.302 45.8499 517.573L46.0203 517.722L38.3703 517.637Z" fill="url(#paint27_linear)"/>
<path d="M78.5594 285.465C80.0298 282.42 92.4956 266.197 92.4956 266.197V1021.52H78.5594V285.465Z" fill="url(#paint28_linear)"/>
<path d="M78.4528 285.443C79.433 283.634 80.5837 282.058 81.7131 280.419L85.1865 275.586L92.3037 266.048L92.7086 265.516V266.197C93.1135 329.132 93.0922 392.087 93.2626 455.022L93.4544 549.445L93.2626 643.868L92.8578 832.693L93.1135 1021.52V1022.14H92.4955L78.5593 1022.18H77.8988V1021.52L77.5791 837.441L77.5152 653.364C77.4087 591.984 77.6644 530.667 77.8135 469.35L78.4528 285.443ZM78.6659 285.486L79.3052 469.606C79.4543 530.965 79.6887 592.303 79.6035 653.619L79.5396 837.569L79.2199 1021.52L78.5593 1020.86L92.4955 1020.9L91.8775 1021.52L92.1333 832.693L91.7284 643.868L91.5366 549.445L91.7284 455.022C91.8989 392.087 91.8562 329.132 92.2824 266.197L92.6873 266.346L85.4848 275.799L81.9688 280.589C80.7968 282.186 79.6035 283.825 78.6659 285.486Z" fill="url(#paint29_linear)"/>
<path d="M92.4954 266.197L107.902 274.82V1036.02H92.4954V266.197Z" fill="url(#paint30_linear)"/>
<path d="M92.4315 266.112L107.987 274.649L108.094 274.713V274.82C108.499 338.244 108.499 401.689 108.648 465.114L108.84 560.261L108.69 655.408L108.307 845.702L108.328 940.849L108.499 1036V1036.57H107.923L92.5168 1036.61H91.8988V1036L91.5579 843.318L91.6005 650.575L92.4315 266.112ZM92.5381 266.282L93.3904 651.618L93.4331 843.786L93.0921 1036.02L92.4741 1035.4L107.881 1035.44L107.305 1036.02L107.476 940.87L107.497 845.723L107.114 655.429L106.964 560.282L107.156 465.135C107.305 401.711 107.305 338.265 107.71 274.841L107.817 275.011L92.5381 266.282Z" fill="url(#paint31_linear)"/>
<g opacity="0.69">
<path opacity="0.69" d="M122.477 677.337C122.477 677.337 62.4923 732.735 62.4923 862.245C62.4923 991.755 62.4923 1027.69 62.4923 1027.69H122.477V677.337Z" fill="url(#paint32_linear)"/>
<path opacity="0.69" d="M122.435 677.444C117.342 682.809 112.611 688.919 108.328 695.115C104.109 701.395 100.167 707.889 96.6296 714.574C89.5124 727.923 83.5245 741.911 79.0283 756.367C69.4605 785.152 65.3691 815.427 63.8348 845.617C63.1529 860.733 63.2382 875.935 63.1743 891.093L62.9825 936.612C62.9398 951.792 62.7907 966.972 62.8546 982.131L63.0038 1027.65L62.4924 1027.14L122.478 1026.88L121.71 1027.65L121.455 940.338L121.583 853.069L122.435 677.444ZM122.52 677.252L123.394 851.919L123.522 939.827L123.245 1027.67V1028.44H122.478L62.4924 1028.18H61.9809V1027.67L62.1301 982.153C62.194 966.972 62.0449 951.792 62.0022 936.634L61.8105 891.115C61.7678 875.934 61.5548 860.776 62.1088 845.553C62.5776 830.352 64.1332 815.193 66.669 800.183C67.1378 796.415 68.118 792.71 68.8638 788.984C69.6735 785.258 70.3981 781.533 71.2717 777.828L74.2976 766.821C74.809 764.99 75.2779 763.138 75.8319 761.328L77.6645 755.92C82.2886 741.421 88.4043 727.412 95.6707 714.063C97.3967 710.678 99.4424 707.463 101.424 704.227C103.342 700.948 105.622 697.882 107.732 694.731C112.313 688.578 116.831 682.596 122.52 677.252Z" fill="url(#paint33_linear)"/>
</g>
<defs>
<linearGradient id="paint0_linear" x1="144.495" y1="525.48" x2="192.643" y2="525.48" gradientUnits="userSpaceOnUse">
<stop stop-color="white"/>
<stop offset="1" stop-color="#4D78FF" stop-opacity="0.6"/>
</linearGradient>
<linearGradient id="paint1_linear" x1="168.557" y1="22.6589" x2="168.557" y2="1029.18" gradientUnits="userSpaceOnUse">
<stop stop-color="white"/>
<stop offset="1" stop-color="#005CE2" stop-opacity="0.1"/>
</linearGradient>
<linearGradient id="paint2_linear" x1="192.643" y1="566.755" x2="204.337" y2="566.755" gradientUnits="userSpaceOnUse">
<stop stop-color="white"/>
<stop offset="1" stop-color="#4D78FF" stop-opacity="0.6"/>
</linearGradient>
<linearGradient id="paint3_linear" x1="198.497" y1="107.219" x2="198.497" y2="1022.59" gradientUnits="userSpaceOnUse">
<stop stop-color="white"/>
<stop offset="1" stop-color="#005CE2" stop-opacity="0.1"/>
</linearGradient>
<linearGradient id="paint4_linear" x1="192.643" y1="642.085" x2="216.03" y2="642.085" gradientUnits="userSpaceOnUse">
<stop stop-color="white"/>
<stop offset="1" stop-color="#4D78FF" stop-opacity="0.6"/>
</linearGradient>
<linearGradient id="paint5_linear" x1="204.345" y1="247.844" x2="204.345" y2="1037.26" gradientUnits="userSpaceOnUse">
<stop stop-color="white"/>
<stop offset="1" stop-color="#005CE2" stop-opacity="0.1"/>
</linearGradient>
<linearGradient id="paint6_linear" x1="235.106" y1="579.183" x2="249.78" y2="579.183" gradientUnits="userSpaceOnUse">
<stop stop-color="white"/>
<stop offset="1" stop-color="#4D78FF" stop-opacity="0.6"/>
</linearGradient>
<linearGradient id="paint7_linear" x1="242.449" y1="-3.7691" x2="242.449" y2="1158.54" gradientUnits="userSpaceOnUse">
<stop stop-color="white"/>
<stop offset="1" stop-color="#005CE2" stop-opacity="0.1"/>
</linearGradient>
<linearGradient id="paint8_linear" x1="232.538" y1="551.41" x2="254.182" y2="551.41" gradientUnits="userSpaceOnUse">
<stop stop-color="white"/>
<stop offset="1" stop-color="#4D78FF" stop-opacity="0.6"/>
</linearGradient>
<linearGradient id="paint9_linear" x1="243.371" y1="50.1682" x2="243.371" y2="1049.73" gradientUnits="userSpaceOnUse">
<stop stop-color="white"/>
<stop offset="1" stop-color="#005CE2" stop-opacity="0.1"/>
</linearGradient>
<linearGradient id="paint10_linear" x1="228.136" y1="573.857" x2="257.85" y2="573.857" gradientUnits="userSpaceOnUse">
<stop stop-color="white"/>
<stop offset="1" stop-color="#4D78FF" stop-opacity="0.6"/>
</linearGradient>
<linearGradient id="paint11_linear" x1="242.999" y1="108.366" x2="242.999" y2="1036.79" gradientUnits="userSpaceOnUse">
<stop stop-color="white"/>
<stop offset="1" stop-color="#005CE2" stop-opacity="0.1"/>
</linearGradient>
<linearGradient id="paint12_linear" x1="224.467" y1="608.985" x2="261.886" y2="608.985" gradientUnits="userSpaceOnUse">
<stop stop-color="white"/>
<stop offset="1" stop-color="#4D78FF" stop-opacity="0.6"/>
</linearGradient>
<linearGradient id="paint13_linear" x1="243.175" y1="165.859" x2="243.175" y2="1049.73" gradientUnits="userSpaceOnUse">
<stop stop-color="white"/>
<stop offset="1" stop-color="#005CE2" stop-opacity="0.1"/>
</linearGradient>
<linearGradient id="paint14_linear" x1="304.434" y1="808.158" x2="522.736" y2="807.41" gradientUnits="userSpaceOnUse">
<stop stop-color="white"/>
<stop offset="0.0271" stop-color="#E8EEFF" stop-opacity="0.9892"/>
<stop offset="0.0777" stop-color="#C4D2FF" stop-opacity="0.9689"/>
<stop offset="0.1348" stop-color="#A4BAFF" stop-opacity="0.9461"/>
<stop offset="0.1979" stop-color="#88A5FF" stop-opacity="0.9208"/>
<stop offset="0.2691" stop-color="#7294FF" stop-opacity="0.8924"/>
<stop offset="0.3523" stop-color="#6188FF" stop-opacity="0.8591"/>
<stop offset="0.4552" stop-color="#567FFF" stop-opacity="0.8179"/>
<stop offset="0.5995" stop-color="#4F79FF" stop-opacity="0.7602"/>
<stop offset="1" stop-color="#4D78FF" stop-opacity="0.6"/>
</linearGradient>
<linearGradient id="paint15_linear" x1="428.389" y1="599.133" x2="428.389" y2="1017.03" gradientUnits="userSpaceOnUse">
<stop stop-color="white"/>
<stop offset="1" stop-color="#005CE2" stop-opacity="0.1"/>
</linearGradient>
<linearGradient id="paint16_linear" x1="219.515" y1="700.004" x2="243.177" y2="700.004" gradientUnits="userSpaceOnUse">
<stop stop-color="white"/>
<stop offset="1" stop-color="#4D78FF" stop-opacity="0.6"/>
</linearGradient>
<linearGradient id="paint17_linear" x1="231.371" y1="371.264" x2="231.371" y2="1028.74" gradientUnits="userSpaceOnUse">
<stop stop-color="white"/>
<stop offset="1" stop-color="#005CE2" stop-opacity="0.1"/>
</linearGradient>
<linearGradient id="paint18_linear" x1="227.332" y1="783.322" x2="332.228" y2="802.29" gradientUnits="userSpaceOnUse">
<stop stop-color="white"/>
<stop offset="1" stop-color="#4D78FF" stop-opacity="0.6"/>
</linearGradient>
<linearGradient id="paint19_linear" x1="257.87" y1="533.986" x2="257.87" y2="1037.08" gradientUnits="userSpaceOnUse">
<stop stop-color="white"/>
<stop offset="1" stop-color="#005CE2" stop-opacity="0.1"/>
</linearGradient>
<linearGradient id="paint20_linear" x1="367.353" y1="868.523" x2="421.83" y2="868.523" gradientUnits="userSpaceOnUse">
<stop stop-color="white"/>
<stop offset="1" stop-color="#4D78FF" stop-opacity="0.6"/>
</linearGradient>
<linearGradient id="paint21_linear" x1="394.675" y1="664.15" x2="394.675" y2="1072.89" gradientUnits="userSpaceOnUse">
<stop stop-color="white"/>
<stop offset="1" stop-color="#005CE2" stop-opacity="0.1"/>
</linearGradient>
<linearGradient id="paint22_linear" x1="377.258" y1="789.769" x2="421.83" y2="789.769" gradientUnits="userSpaceOnUse">
<stop stop-color="white"/>
<stop offset="1" stop-color="#4D78FF" stop-opacity="0.6"/>
</linearGradient>
<linearGradient id="paint23_linear" x1="399.627" y1="661.136" x2="399.627" y2="922.357" gradientUnits="userSpaceOnUse">
<stop stop-color="white"/>
<stop offset="1" stop-color="#005CE2" stop-opacity="0.1"/>
</linearGradient>
<linearGradient id="paint24_linear" x1="86.7168" y1="590.977" x2="129.087" y2="590.977" gradientUnits="userSpaceOnUse">
<stop stop-color="white"/>
<stop offset="1" stop-color="#4D78FF" stop-opacity="0.6"/>
</linearGradient>
<linearGradient id="paint25_linear" x1="107.897" y1="133.185" x2="107.897" y2="1049.3" gradientUnits="userSpaceOnUse">
<stop stop-color="white"/>
<stop offset="1" stop-color="#005CE2" stop-opacity="0.1"/>
</linearGradient>
<linearGradient id="paint26_linear" x1="0.875313" y1="762.181" x2="65.2566" y2="762.181" gradientUnits="userSpaceOnUse">
<stop stop-color="white"/>
<stop offset="1" stop-color="#4D78FF" stop-opacity="0.6"/>
</linearGradient>
<linearGradient id="paint27_linear" x1="33.1036" y1="516.485" x2="33.1036" y2="1007.88" gradientUnits="userSpaceOnUse">
<stop stop-color="white"/>
<stop offset="1" stop-color="#005CE2" stop-opacity="0.1"/>
</linearGradient>
<linearGradient id="paint28_linear" x1="78.5547" y1="643.86" x2="92.4948" y2="643.86" gradientUnits="userSpaceOnUse">
<stop stop-color="white"/>
<stop offset="1" stop-color="#4D78FF" stop-opacity="0.6"/>
</linearGradient>
<linearGradient id="paint29_linear" x1="85.4735" y1="263.062" x2="85.4735" y2="1022.59" gradientUnits="userSpaceOnUse">
<stop stop-color="white"/>
<stop offset="1" stop-color="#005CE2" stop-opacity="0.1"/>
</linearGradient>
<linearGradient id="paint30_linear" x1="92.4945" y1="651.108" x2="107.902" y2="651.108" gradientUnits="userSpaceOnUse">
<stop stop-color="white"/>
<stop offset="1" stop-color="#4D78FF" stop-opacity="0.6"/>
</linearGradient>
<linearGradient id="paint31_linear" x1="100.195" y1="264.38" x2="100.195" y2="1037.08" gradientUnits="userSpaceOnUse">
<stop stop-color="white"/>
<stop offset="1" stop-color="#005CE2" stop-opacity="0.1"/>
</linearGradient>
<linearGradient id="paint32_linear" x1="62.5053" y1="852.51" x2="122.484" y2="852.51" gradientUnits="userSpaceOnUse">
<stop stop-color="white"/>
<stop offset="1" stop-color="#4D78FF" stop-opacity="0.6"/>
</linearGradient>
<linearGradient id="paint33_linear" x1="92.6318" y1="674.906" x2="92.6318" y2="1028.74" gradientUnits="userSpaceOnUse">
<stop stop-color="white"/>
<stop offset="1" stop-color="#005CE2" stop-opacity="0.1"/>
</linearGradient>
</defs>
</svg>
