<svg xmlns="http://www.w3.org/2000/svg" viewBox="0 0 203.13 53.43"><defs><style>.cls-1,.cls-6{fill:#fff;}.cls-2{fill:#3c5ea5;}.cls-3{fill:#597ff6;}.cls-4{fill:#ffec00;}.cls-5{fill:#e20613;}.cls-6{stroke:#597ff6;stroke-miterlimit:10;}.cls-7{fill:#5284ff;}</style></defs><g id="Layer_4" data-name="Layer 4"><path class="cls-1" d="M203.14,49a6.15,6.15,0,0,1,0,.75,4.28,4.28,0,0,1-.12.73,3.57,3.57,0,0,1-.1.35,1.14,1.14,0,0,1-.09.26,4.06,4.06,0,0,1-.52,1l-.26.33a5.35,5.35,0,0,1-1.17,1H48.24S29.73,54.22,15,35.34c-.58-.73-1.15-1.5-1.72-2.3s-1-1.49-1.53-2.27c-.22-.33-.43-.66-.63-1-.61-1-1.2-2-1.78-3.07-.19-.33-.37-.66-.54-1A80.54,80.54,0,0,1,4,14.65,106.46,106.46,0,0,1,.2,1C.12.67.06.34,0,0H135.18a68.3,68.3,0,0,1,32.06,7.83,81,81,0,0,1,31.4,30.22,49.68,49.68,0,0,1,3.4,6.8c.14.35.26.69.37,1a13.42,13.42,0,0,1,.58,2l.14.93A1.77,1.77,0,0,1,203.14,49Z"/><path class="cls-2" d="M148.86,19v1.21a2,2,0,0,1-2,2H79.11a2,2,0,0,1-2-2V11.83a2,2,0,0,1,2-2h2.71V17a2,2,0,0,0,2,2Z"/><path class="cls-2" d="M43,19v1.21a2,2,0,0,1-2,2H31.72a2,2,0,0,1-2-2V11.83a2,2,0,0,1,2-2h2.71V17a2,2,0,0,0,2,2Z"/><path class="cls-2" d="M27.07,19v1.21a2,2,0,0,1-2,2h-7A10.44,10.44,0,0,1,7.62,11.83a2,2,0,0,1,.59-1.43,2,2,0,0,1,1.43-.59h2.79A10.44,10.44,0,0,0,22.8,19Z"/><path class="cls-3" d="M148.86,11.83V19h-65a2,2,0,0,1-2-2V9.81h65A2,2,0,0,1,148.86,11.83Z"/><path class="cls-3" d="M43,11.83V19H36.45a2,2,0,0,1-2-2V9.81H41A2,2,0,0,1,43,11.83Z"/><path class="cls-3" d="M27.07,11.83V19H22.8A10.44,10.44,0,0,1,12.43,9.81H25.05A2,2,0,0,1,27.07,11.83Z"/><rect class="cls-4" x="73.55" y="33.04" width="63.57" height="2.31"/><path class="cls-4" d="M46.63,33v2.3H22.78c-.58-.73-1.15-1.5-1.72-2.3Z"/><polygon class="cls-1" points="122.88 22.34 114.74 22.34 125.41 9.73 133.55 9.73 122.88 22.34"/><polygon class="cls-1" points="132.36 22.34 127.34 22.34 138.01 9.73 143.03 9.73 132.36 22.34"/><polygon class="cls-1" points="31.45 22.27 30.03 22.27 40.7 9.8 42.13 9.8 31.45 22.27"/><polygon class="cls-1" points="112.39 22.34 110.97 22.34 121.64 9.73 123.06 9.73 112.39 22.34"/><polygon class="cls-1" points="34.19 22.92 32.77 22.92 43.44 10.46 44.86 10.46 34.19 22.92"/><path class="cls-5" d="M202.41,45.85h-5.13a15.43,15.43,0,0,1-7-1.69L176.4,37.05A94.53,94.53,0,0,0,133.5,26.7H9.29c-.19-.33-.37-.66-.54-1H133.5a95.4,95.4,0,0,1,43.35,10.46l13.89,7.11a14.47,14.47,0,0,0,6.54,1.58H202C202.18,45.2,202.3,45.54,202.41,45.85Z"/><path class="cls-2" d="M197.68,38.52l-.08,0a8.34,8.34,0,0,1-3.56.68c-2.26,0-5.93-.69-10.53-3.93a26.05,26.05,0,0,0-3.2-1.92c-.34-.17-.67-.33-1-.48-.5-.24-1-.46-1.48-.66-.89-.38-1.76-.72-2.6-1l-1.14-.45c-3.55-1.39-6.77-2.92-8.24-6.42-2.06-4.89-3.39-12.7.53-15.92l1.31.69.8.44a73.79,73.79,0,0,1,14.6,10.71c.75.69,1.46,1.38,2.14,2.07l.59.6,1.07,1.12.74.81a82.77,82.77,0,0,1,8.73,11.48c.15.23.29.46.43.69C197.1,37.54,197.4,38,197.68,38.52Z"/><path class="cls-3" d="M196.78,37c-.25,0-.52,0-.8,0-2.19,0-5.74-.67-10.2-3.81a35.56,35.56,0,0,0-8-4c-3.86-1.49-7.51-2.91-9.09-6.66-1.66-3.94-2.83-9.84-1-13.51l.8.44a75.07,75.07,0,0,1,16.74,12.78,83.11,83.11,0,0,1,11.13,14C196.5,36.57,196.64,36.8,196.78,37Z"/><path class="cls-1" d="M185.9,22.88l-8.11,9.47c-.91-.39-1.79-.73-2.64-1.06L174,30.83l9.14-10.67c.76.7,1.48,1.4,2.17,2.11Z"/><path class="cls-1" d="M187.7,24.76l-7.45,8.75-1-.49L187,23.93Z"/><path class="cls-5" d="M143.29,29.25l-.91.91c.8.08,1.6.16,2.4.26l.89-.89C144.88,29.43,144.08,29.33,143.29,29.25Z"/><path class="cls-5" d="M133.5,28.73H10.44c.2.34.38.67.6,1H133.5c1.2,0,2.41,0,3.61.08l1-1C136.54,28.78,135,28.73,133.5,28.73Z"/><path class="cls-5" d="M145.67,29.53l-.89.89c1.26.15,2.52.34,3.78.54l.87-.87C148.18,29.88,146.92,29.69,145.67,29.53Z"/><path class="cls-5" d="M203,47.88h-5.71a14.55,14.55,0,0,1-1.75-.11,14.25,14.25,0,0,1-4.79-1.47l-13.89-7.11a95.46,95.46,0,0,0-27.42-9.1l-.87.87a94.71,94.71,0,0,1,27.84,9.12l13.89,7.11a12.4,12.4,0,0,0,1.29.58,15.22,15.22,0,0,0,5.7,1.11h5.84a.17.17,0,0,1,0-.07Z"/><rect class="cls-6" x="50.27" y="6.11" width="19.62" height="44.54" rx="2.77"/><rect class="cls-7" x="56.75" y="10.61" width="6.65" height="12.46" rx="2.02"/><rect class="cls-4" x="52.44" y="33.04" width="15.3" height="2.31"/></g></svg>