<svg width="448" height="190" viewBox="0 0 448 190" fill="none" xmlns="http://www.w3.org/2000/svg">
<g clip-path="url(#clip0)">
<path d="M0 167.529L3.72222 154.415L4.34926 154.721L4.14914 155.428C3.9757 156.054 4.1358 156.521 4.64276 156.814L13.7682 162.198C13.955 162.318 14.1017 162.385 14.2085 162.412C14.5553 162.505 14.8222 162.212 15.0223 161.532L15.2091 160.892L15.8228 161.225L14.2885 166.623L13.6748 166.277L13.8616 165.637C13.9283 165.397 13.955 165.144 13.9283 164.877C13.9149 164.611 13.7282 164.384 13.368 164.171L3.49541 158.32L1.85444 164.091L11.6469 169.902C11.8337 170.008 11.9671 170.075 12.0338 170.088C12.3674 170.182 12.6475 169.875 12.8476 169.169L13.1011 168.262L13.7148 168.596L12.1672 174.06L11.5535 173.7L11.6736 173.274C11.8604 172.621 11.767 172.181 11.3801 171.954L2.05456 166.423C1.88112 166.317 1.74771 166.25 1.65432 166.223C1.30745 166.13 1.04062 166.41 0.8405 167.076L0.613699 167.863L0 167.529Z" fill="#7D9CFF"/>
<path d="M17.5037 154.415C17.0101 153.375 16.4765 152.469 15.8894 151.696C15.5292 151.203 15.169 150.856 14.8355 150.643C14.6887 150.55 14.4353 150.457 14.075 150.337C13.7815 150.243 13.5814 150.15 13.448 150.07C13.2212 149.937 13.0744 149.75 13.0211 149.537C12.9544 149.31 12.9811 149.11 13.1011 148.924C13.2212 148.724 13.3946 148.604 13.6081 148.577C13.8216 148.537 14.0617 148.604 14.3152 148.751C14.5687 148.897 14.8889 149.23 15.3024 149.737C15.8628 150.43 16.3964 151.23 16.9034 152.136L18.998 155.908C19.4649 156.761 19.8385 157.627 20.1186 158.533C20.3188 159.186 20.3855 159.773 20.3321 160.306C20.2787 160.839 20.1587 161.252 19.9719 161.572C19.7317 161.972 19.4249 162.225 19.0513 162.358C18.6778 162.491 18.3309 162.465 18.0241 162.278C17.7706 162.132 17.6105 161.918 17.5304 161.652C17.4504 161.385 17.4771 161.145 17.6105 160.932C17.7305 160.732 17.904 160.612 18.1308 160.546C18.3576 160.492 18.571 160.519 18.7578 160.626L19.0246 160.812L19.118 160.879C19.2114 160.932 19.2915 160.945 19.3849 160.919C19.4783 160.892 19.5583 160.826 19.625 160.719C19.7984 160.426 19.8385 159.999 19.7317 159.426C19.5716 158.546 19.1847 157.534 18.5444 156.374L15.5826 155.268C13.9149 154.641 12.7142 154.322 11.9671 154.268C11.5402 154.255 11.2734 154.322 11.18 154.468C11.0065 154.748 11.3001 155.335 12.0605 156.241L11.5802 156.601C10.9265 155.801 10.5263 155.081 10.3528 154.442C10.2327 153.975 10.2594 153.602 10.4462 153.295C10.633 152.989 10.9265 152.816 11.3134 152.802C11.8604 152.776 12.9677 153.015 14.6354 153.522L17.5037 154.415Z" fill="#7D9CFF"/>
<path d="M22.6135 141.914C22.4267 140.887 22.3734 140.008 22.4667 139.301C22.5601 138.595 22.8003 138.035 23.1872 137.635C23.5207 137.289 23.9076 137.116 24.3345 137.116C24.7614 137.116 25.1483 137.289 25.5086 137.635C25.8688 137.995 26.2156 138.435 26.5225 138.968L28.577 142.433C28.6304 142.527 28.6838 142.607 28.7638 142.673C28.8572 142.753 28.9506 142.807 29.0573 142.807C29.1641 142.807 29.2574 142.767 29.3242 142.7C29.4576 142.567 29.5243 142.34 29.5376 142.007C29.551 141.554 29.4175 140.807 29.1374 139.754L29.7111 139.608C30.0579 140.807 30.2047 141.767 30.1513 142.487C30.0979 143.02 29.9245 143.446 29.6043 143.766C29.3508 144.033 29.0573 144.153 28.7238 144.126C28.3903 144.099 28.0434 143.913 27.6965 143.566C27.5631 143.433 27.4297 143.26 27.3096 143.073L25.1483 139.461C25.0149 139.221 24.8548 139.008 24.668 138.835C24.4679 138.648 24.2545 138.542 24.0277 138.528C23.8009 138.515 23.6007 138.595 23.4273 138.768C23.2272 138.981 23.0938 139.288 23.0271 139.701C22.9203 140.341 22.9737 140.994 23.1471 141.7C23.4273 142.767 23.7742 143.633 24.1611 144.286L25.9355 147.285L24.9482 148.431L21.9331 143.366C21.6796 142.953 21.4661 142.647 21.2794 142.46C21.0259 142.207 20.7857 142.087 20.5589 142.073C20.3321 142.06 20.1187 142.153 19.9319 142.353C19.7051 142.593 19.5583 142.9 19.4916 143.273C19.4116 143.793 19.4916 144.486 19.7184 145.365C19.9452 146.245 20.2921 147.071 20.7324 147.844L22.4667 150.83L21.4928 151.949L17.7172 145.605C17.6639 145.525 17.6105 145.459 17.5571 145.392C17.4371 145.272 17.2903 145.219 17.1302 145.245C16.9701 145.272 16.7834 145.392 16.5699 145.605L16.263 145.925L15.9028 145.339L17.7573 143.206L19.2248 145.512C18.7178 143.486 18.8779 142.047 19.7184 141.194C20.0787 140.834 20.4522 140.661 20.8658 140.661C21.2794 140.661 21.6929 140.887 22.1065 141.3C22.2266 141.46 22.4 141.66 22.6135 141.914Z" fill="#7D9CFF"/>
<path d="M31.9657 137.462C32.1125 137.715 32.2459 137.915 32.3526 138.075C32.7528 138.608 33.1798 138.928 33.66 139.021C34.1403 139.115 34.5939 138.995 35.0475 138.662C35.3944 138.408 35.6746 138.049 35.888 137.622C36.1015 137.182 36.2483 136.503 36.355 135.57L36.9153 135.623C36.8353 137.449 36.2749 138.728 35.2343 139.488C34.5272 140.008 33.7401 140.181 32.8596 140.008C31.979 139.834 31.2453 139.341 30.6449 138.515C30.1113 137.795 29.7911 136.929 29.6843 135.929C29.5776 134.93 29.6977 133.97 30.0579 133.037C30.4181 132.104 30.8851 131.425 31.4721 130.985C31.979 130.612 32.4994 130.452 33.033 130.518C33.5667 130.572 33.9936 130.812 34.3004 131.238C34.5673 131.598 34.7007 132.038 34.714 132.584C34.7273 133.131 34.5539 133.744 34.1937 134.437C33.8335 135.13 33.0997 136.143 31.9657 137.462ZM31.7122 136.916C32.4994 136.023 33.0063 135.316 33.2331 134.81C33.4733 134.303 33.5667 133.797 33.5266 133.331C33.4866 132.851 33.3399 132.438 33.073 132.064C32.8596 131.771 32.6194 131.611 32.3526 131.558C32.0858 131.505 31.819 131.571 31.5655 131.771C31.0985 132.118 30.845 132.717 30.7917 133.584C30.7383 134.45 31.0585 135.543 31.7122 136.916Z" fill="#7D9CFF"/>
<path d="M49.3361 130.665C48.6557 131.052 48.082 130.865 47.6417 130.079C47.4149 129.692 47.2548 129.306 47.1481 128.932C47.2015 129.612 47.0947 130.358 46.8146 131.145C46.5344 131.944 46.0942 132.504 45.4938 132.851C44.5732 133.384 43.7995 133.104 43.1991 132.038C43.0924 131.851 42.9856 131.625 42.8789 131.358C42.6921 133.45 42.1051 134.783 41.1179 135.343C40.6909 135.583 40.264 135.65 39.8504 135.53C39.4369 135.41 39.1033 135.116 38.8365 134.663C38.5964 134.237 38.4096 133.73 38.2762 133.117L37.409 129.212C37.3556 129.012 37.3156 128.866 37.2622 128.772C37.0755 128.453 36.6886 128.453 36.1015 128.799L35.6613 129.052L35.5145 128.439L38.3429 126.64L39.677 132.757C39.7837 133.251 39.8905 133.597 40.0105 133.81C40.1573 134.077 40.3574 134.237 40.5842 134.29C40.811 134.343 41.0245 134.317 41.2112 134.21C41.7449 133.904 42.0918 133.197 42.2652 132.078C42.4386 130.958 42.3853 129.812 42.1051 128.626L41.2913 125.134L42.5721 124.401L43.9729 130.172C44.0796 130.638 44.213 130.998 44.3464 131.225C44.68 131.825 45.1069 131.971 45.6139 131.691C46.2009 131.358 46.5344 130.625 46.6411 129.479C46.7479 128.333 46.6678 127.226 46.4277 126.16L45.6272 122.668L46.8946 121.949L48.4689 128.346C48.6023 128.932 48.7357 129.319 48.8425 129.505C48.9892 129.772 49.1893 129.839 49.4295 129.692C49.9231 129.412 50.1366 128.373 50.0699 126.6L50.6168 126.507C50.7236 127.48 50.6702 128.346 50.4567 129.106C50.2033 129.852 49.8431 130.385 49.3361 130.665Z" fill="#7D9CFF"/>
<path d="M52.8715 124.974C52.9648 125.241 53.0449 125.467 53.1383 125.64C53.4185 126.254 53.7787 126.64 54.2323 126.827C54.6725 127.013 55.1528 126.987 55.6598 126.747C56.06 126.56 56.4069 126.28 56.6871 125.894C56.9806 125.507 57.2607 124.867 57.5542 123.974L58.1012 124.148C57.661 125.92 56.8472 127.066 55.6865 127.6C54.886 127.973 54.0855 127.986 53.2584 127.64C52.4312 127.293 51.8042 126.667 51.3772 125.734C51.0037 124.921 50.8569 124.014 50.9503 123.015C51.0437 122.015 51.3639 121.096 51.8975 120.256C52.4312 119.416 53.0316 118.843 53.6986 118.537C54.2723 118.27 54.8059 118.217 55.3263 118.377C55.8332 118.537 56.2068 118.857 56.4202 119.323C56.607 119.723 56.647 120.189 56.5536 120.723C56.4603 121.256 56.1668 121.829 55.6731 122.428C55.1795 123.028 54.2456 123.908 52.8715 124.974ZM52.738 124.388C53.6853 123.668 54.3257 123.082 54.6592 122.628C54.9927 122.175 55.1795 121.709 55.2462 121.229C55.3129 120.749 55.2329 120.309 55.0461 119.896C54.8993 119.576 54.6992 119.35 54.4457 119.256C54.1922 119.15 53.9254 119.163 53.6319 119.296C53.0983 119.536 52.7247 120.083 52.5246 120.909C52.2844 121.749 52.3645 122.908 52.738 124.388Z" fill="#7D9CFF"/>
<path d="M65.4522 116.498L65.9992 116.338C66.2794 117.271 66.3727 118.07 66.2794 118.737C66.1993 119.403 65.9592 120.003 65.5589 120.536C65.0386 121.242 64.3449 121.629 63.5044 121.722C62.6505 121.815 61.8234 121.562 61.0096 120.949C60.2491 120.376 59.6487 119.63 59.2085 118.683C58.7682 117.75 58.5948 116.817 58.6481 115.898C58.7015 114.978 58.9817 114.192 59.462 113.539C59.8622 112.992 60.3291 112.673 60.8361 112.566C61.3431 112.459 61.8367 112.579 62.277 112.912C62.6238 113.166 62.8373 113.446 62.904 113.752C62.9707 114.059 62.9307 114.325 62.7439 114.565C62.5972 114.765 62.397 114.898 62.1436 114.938C61.9034 114.978 61.6766 114.925 61.4765 114.778C61.143 114.538 61.0496 114.192 61.2097 113.765C61.2897 113.539 61.2764 113.379 61.1563 113.299C61.0496 113.219 60.8761 113.219 60.636 113.299C60.3959 113.379 60.1824 113.539 59.9956 113.792C59.6888 114.205 59.5287 114.752 59.542 115.418C59.5554 116.084 59.7955 116.817 60.2624 117.617C60.7294 118.43 61.3698 119.123 62.1436 119.696C62.8106 120.189 63.3976 120.416 63.9313 120.389C64.4649 120.363 64.8785 120.123 65.2121 119.683C65.7724 118.99 65.8391 117.924 65.4522 116.498Z" fill="#7D9CFF"/>
<path d="M66.3595 103.876C65.8658 102.943 65.5723 102.13 65.4523 101.424C65.3322 100.718 65.3989 100.118 65.6524 99.6247C65.8792 99.1982 66.186 98.9184 66.5996 98.7851C67.0132 98.6518 67.4268 98.7051 67.867 98.945C68.3206 99.1849 68.7742 99.5048 69.2278 99.9179L72.2029 102.637C72.2697 102.703 72.363 102.77 72.4564 102.81C72.5632 102.863 72.6699 102.877 72.7766 102.85C72.8834 102.823 72.9501 102.757 73.0034 102.663C73.0968 102.49 73.0835 102.25 73.0034 101.944C72.8834 101.504 72.5365 100.824 71.9628 99.9046L72.4698 99.5981C73.1502 100.638 73.5771 101.517 73.7372 102.224C73.8439 102.743 73.8039 103.21 73.5904 103.61C73.417 103.93 73.1769 104.13 72.8567 104.209C72.5365 104.289 72.1496 104.209 71.7093 103.983C71.5359 103.89 71.3624 103.77 71.2024 103.623L68.0805 100.798C67.8804 100.611 67.6669 100.451 67.4401 100.331C67.2 100.211 66.9598 100.171 66.733 100.224C66.5062 100.278 66.3461 100.424 66.2394 100.624C66.106 100.878 66.066 101.224 66.1193 101.637C66.2127 102.277 66.4395 102.89 66.8264 103.503C67.4134 104.449 67.9871 105.169 68.5474 105.676L71.1223 108.035L70.5086 109.421L66.1327 105.449C65.7725 105.129 65.4789 104.903 65.2388 104.783C64.9186 104.623 64.6518 104.569 64.4383 104.623C64.2249 104.676 64.0514 104.836 63.918 105.076C63.7713 105.369 63.7179 105.702 63.7579 106.089C63.838 106.608 64.1048 107.248 64.5851 108.035C65.0654 108.808 65.6257 109.501 66.2794 110.114L68.8143 112.459L68.2139 113.819L62.7306 108.848C62.6639 108.781 62.5839 108.728 62.5172 108.701C62.3571 108.621 62.2103 108.608 62.0636 108.688C61.9168 108.754 61.7834 108.927 61.6367 109.194L61.4365 109.594L60.9296 109.141L62.0903 106.555L64.1582 108.341C63.0775 106.555 62.8107 105.129 63.3577 104.063C63.5978 103.61 63.9047 103.33 64.2916 103.223C64.6785 103.117 65.1454 103.197 65.6791 103.476C65.8658 103.556 66.0926 103.703 66.3595 103.876Z" fill="#7D9CFF"/>
<path d="M75.8985 93.7473C76.5388 93.1209 77.1392 92.801 77.7129 92.7877C78.2865 92.761 78.7668 92.9476 79.127 93.3208C79.634 93.8273 79.8742 94.5603 79.8341 95.5066C79.7941 96.4528 79.3672 97.3324 78.5534 98.1321C77.7396 98.9318 76.8857 99.3183 75.9785 99.265C75.0713 99.2117 74.3242 98.8918 73.7372 98.3054C72.8033 97.3724 72.2563 96.093 72.0829 94.4803C71.9094 92.8677 72.363 91.5216 73.4437 90.4553C74.004 89.9089 74.5376 89.6157 75.058 89.6024C75.5783 89.589 75.9785 89.709 76.2587 89.9889C76.6456 90.3754 76.7923 90.9351 76.6989 91.6415C76.6055 92.3479 76.3387 93.0542 75.8985 93.7473ZM74.0974 96.1863C74.9245 94.7335 75.4182 93.6407 75.5916 92.921C75.7517 92.188 75.6183 91.6015 75.178 91.1617C74.6977 90.6686 74.1908 90.6819 73.6838 91.1884C73.2569 91.6149 73.0568 92.2546 73.0701 93.1342C73.0835 94.0138 73.4303 95.0134 74.0974 96.1863ZM74.4976 96.6927C74.6577 96.8926 74.7911 97.0526 74.8845 97.1459C75.4315 97.6923 75.9785 98.0522 76.5122 98.2121C77.0591 98.372 77.5261 98.2654 77.9263 97.8656C78.4066 97.3858 78.6067 96.8127 78.5534 96.1196C78.4867 95.4399 78.2465 94.8802 77.8063 94.4403C77.4994 94.1338 77.1659 93.9739 76.819 93.9739C76.4721 93.9739 76.1653 94.1071 75.9118 94.3604C75.6717 94.6003 75.3781 95.0401 75.0446 95.6665C74.8445 96.0663 74.6577 96.3995 74.4976 96.6927Z" fill="#7D9CFF"/>
<path d="M85.104 89.6689C85.0907 88.5227 84.9706 87.4698 84.7571 86.5235C84.6237 85.9238 84.4503 85.4573 84.2235 85.1374C84.1301 84.9908 83.9433 84.7909 83.6631 84.5377C83.4363 84.3244 83.2896 84.1645 83.1962 84.0312C83.0494 83.818 82.9961 83.5914 83.0228 83.3649C83.0494 83.1383 83.1562 82.965 83.343 82.8451C83.5297 82.7118 83.7298 82.6851 83.9567 82.7385C84.1835 82.7918 84.3569 82.9517 84.5303 83.1916C84.6904 83.4315 84.8639 83.8713 85.024 84.4977C85.2508 85.364 85.3975 86.3103 85.4776 87.3498L85.8111 91.6547C85.8911 92.6276 85.8644 93.5739 85.7444 94.5068C85.651 95.1732 85.4776 95.7463 85.2107 96.1995C84.9439 96.6526 84.6637 96.9858 84.3569 97.199C83.97 97.4523 83.5831 97.5722 83.1829 97.5322C82.7826 97.4922 82.4891 97.3323 82.289 97.0258C82.1289 96.7859 82.0622 96.5326 82.1022 96.2528C82.1422 95.9729 82.2623 95.773 82.4758 95.6264C82.6625 95.4931 82.876 95.4531 83.1161 95.4931C83.3429 95.5331 83.5297 95.653 83.6498 95.8263L83.8099 96.1062L83.8633 96.1995C83.9166 96.2794 83.9967 96.3327 84.0901 96.3461C84.1834 96.3594 84.2902 96.3327 84.3969 96.2661C84.6771 96.0795 84.8905 95.693 85.0373 95.1332C85.2641 94.2669 85.3175 93.1741 85.2241 91.8679L82.9961 89.6422C81.742 88.3894 80.7814 87.5897 80.1144 87.2432C79.7275 87.0433 79.4606 87.0033 79.3272 87.0966C79.0604 87.2832 79.0871 87.9363 79.3939 89.0691L78.8069 89.1891C78.5534 88.1895 78.4734 87.3632 78.5801 86.7234C78.6602 86.257 78.8469 85.9238 79.1271 85.7239C79.434 85.5239 79.7541 85.484 80.1144 85.6306C80.6213 85.8305 81.5285 86.5102 82.836 87.6564L85.104 89.6689Z" fill="#7D9CFF"/>
<path d="M89.9202 79.8731L90.4138 85.6174C90.4405 86.2704 90.5206 86.7769 90.654 87.1367C90.7474 87.4033 90.8941 87.5899 91.0942 87.6965C91.2944 87.8031 91.5212 87.8031 91.7613 87.7231C92.2549 87.5499 92.7352 86.9501 93.2022 85.9372C93.6691 84.9243 93.8559 83.6182 93.7492 82.0322L93.5224 78.7536L94.8965 78.2605L95.3901 85.2175C95.4035 85.5241 95.4568 85.7773 95.5369 85.9905C95.5903 86.1505 95.6703 86.2438 95.7637 86.2971C95.8571 86.3504 95.9772 86.3504 96.0972 86.3104C96.6309 86.1238 97.0445 85.1376 97.338 83.3516L97.9116 83.3383C97.8049 84.4978 97.5648 85.3908 97.1912 86.0305C96.8177 86.6702 96.3774 87.0834 95.8971 87.2567C95.5502 87.3766 95.23 87.3766 94.9499 87.2433C94.6697 87.1101 94.4696 86.8568 94.3362 86.497C94.2294 86.1904 94.1227 85.7506 94.0427 85.1775C93.6691 86.3637 93.2689 87.23 92.8686 87.7631C92.4684 88.2962 92.0148 88.6561 91.5345 88.8293C91.0409 89.0026 90.6006 89.0026 90.2137 88.8293C89.8268 88.6561 89.5467 88.3362 89.3866 87.8697C89.2532 87.4966 89.1464 86.8835 89.0797 86.0572L88.7328 82.0988C88.7328 81.9922 88.7062 81.8989 88.6795 81.819C88.6261 81.6723 88.506 81.5657 88.346 81.5257C88.1191 81.4724 87.839 81.5124 87.4921 81.6457L87.0252 81.819L86.9718 81.1259L89.9202 79.8731ZM93.0954 74.8752L93.6291 75.0085C93.4557 75.7015 93.1221 76.3279 92.6152 76.901C92.1082 77.4741 91.5479 77.8473 90.9475 78.0739C90.4672 78.2471 90.0136 78.2738 89.5867 78.1805C89.1598 78.0739 88.8663 77.8073 88.7062 77.3808C88.5861 77.0476 88.5994 76.7411 88.7195 76.4745C88.8529 76.1947 89.053 76.0081 89.3465 75.9148C89.6 75.8215 89.8402 75.8348 90.067 75.9414C90.2938 76.0481 90.4272 76.2213 90.5072 76.4346C90.5739 76.6078 90.5473 76.8211 90.4272 77.061C90.3471 77.2209 90.3205 77.3408 90.3338 77.4075C90.3872 77.5408 90.5739 77.5541 90.8941 77.4341C91.9081 77.061 92.6285 76.208 93.0954 74.8752Z" fill="#7D9CFF"/>
<path d="M107.157 78.7935C107.677 77.8872 108.211 77.1808 108.745 76.701C109.278 76.2212 109.825 75.9547 110.372 75.9014C110.853 75.8614 111.266 75.968 111.586 76.2346C111.907 76.5011 112.093 76.8876 112.147 77.3807C112.2 77.8872 112.16 78.447 112.053 79.0467L111.373 83.0184C111.346 83.125 111.346 83.2183 111.36 83.3249C111.373 83.4448 111.413 83.5381 111.493 83.6181C111.573 83.6847 111.666 83.7114 111.773 83.7114C111.96 83.6981 112.16 83.5648 112.387 83.3116C112.68 82.9784 113.067 82.312 113.534 81.3391L114.068 81.6056C113.561 82.7385 113.041 83.5781 112.534 84.0846C112.147 84.4578 111.733 84.671 111.293 84.711C110.933 84.7376 110.626 84.6443 110.386 84.4178C110.146 84.1912 109.999 83.818 109.959 83.3249C109.945 83.125 109.945 82.9251 109.985 82.6985L110.679 78.5403C110.733 78.2604 110.746 78.0071 110.719 77.7539C110.692 77.474 110.599 77.2608 110.426 77.1142C110.252 76.9676 110.052 76.8876 109.812 76.9143C109.518 76.9409 109.225 77.0875 108.891 77.3674C108.398 77.7806 108.011 78.3137 107.691 78.9667C107.21 79.9663 106.917 80.8459 106.784 81.5923L106.183 85.0308L104.689 85.2574L105.676 79.4465C105.756 78.9667 105.783 78.5936 105.756 78.327C105.73 77.9805 105.623 77.7139 105.463 77.5673C105.303 77.4207 105.076 77.3541 104.796 77.3807C104.462 77.4074 104.155 77.554 103.862 77.7939C103.462 78.1404 103.075 78.7135 102.674 79.5398C102.274 80.3661 102.007 81.2058 101.834 82.0854L101.22 85.484L99.7527 85.7106L100.98 78.4203C100.993 78.327 101.007 78.247 100.993 78.1537C100.98 77.9805 100.9 77.8472 100.767 77.7672C100.633 77.6873 100.42 77.6606 100.113 77.6873L99.6726 77.7273L99.7793 77.0475L102.581 76.6211L102.194 79.3266C103.115 77.4607 104.169 76.4611 105.369 76.3545C105.876 76.3012 106.277 76.4211 106.583 76.6877C106.89 76.9543 107.064 77.3941 107.117 77.9805C107.157 78.2071 107.157 78.4736 107.157 78.7935Z" fill="#7D9CFF"/>
<path d="M118.844 80.7659C118.924 81.0458 119.004 81.2724 119.084 81.4456C119.338 82.0587 119.698 82.4719 120.125 82.6718C120.565 82.8717 121.045 82.8717 121.552 82.6451C121.953 82.4719 122.313 82.2053 122.62 81.8321C122.927 81.459 123.233 80.8326 123.554 79.9529L124.087 80.1395C123.58 81.8855 122.726 83.0183 121.552 83.5114C120.752 83.8446 119.938 83.8313 119.124 83.4581C118.31 83.0849 117.71 82.4319 117.323 81.4856C116.976 80.6593 116.87 79.753 116.99 78.7534C117.123 77.7539 117.47 76.8476 118.03 76.0346C118.591 75.2216 119.218 74.6618 119.898 74.3819C120.472 74.1421 121.019 74.1021 121.526 74.2887C122.033 74.4619 122.393 74.7951 122.593 75.2749C122.766 75.6881 122.793 76.1545 122.673 76.6743C122.553 77.2074 122.246 77.7539 121.739 78.3536C121.219 78.94 120.258 79.753 118.844 80.7659ZM118.724 80.1662C119.698 79.4865 120.352 78.9134 120.699 78.4736C121.045 78.0337 121.259 77.5673 121.326 77.1008C121.392 76.6343 121.352 76.1812 121.179 75.768C121.045 75.4348 120.845 75.2083 120.592 75.1016C120.338 74.995 120.072 74.995 119.778 75.115C119.244 75.3415 118.844 75.8613 118.604 76.6876C118.377 77.5273 118.404 78.6735 118.724 80.1662Z" fill="#7D9CFF"/>
<path d="M130.318 68.5045L133.306 71.7431L132.572 73.0359L127.729 67.7848C127.583 67.6115 127.449 67.5049 127.342 67.4249C127.022 67.225 126.702 67.345 126.409 67.8248L125.968 68.5045L125.541 68.0247L127.129 65.2259L129.837 68.078L130.331 67.305C130.691 66.7452 130.838 66.2388 130.771 65.7989C130.704 65.3458 130.424 64.7194 129.944 63.8931C129.57 63.2534 129.37 62.7469 129.317 62.3337C129.277 61.9339 129.384 61.5207 129.65 61.1076C129.837 60.8011 130.117 60.5878 130.464 60.4679C130.811 60.3479 131.171 60.4012 131.545 60.6278C131.865 60.8277 132.052 61.0809 132.132 61.3741C132.199 61.6674 132.159 61.9472 131.985 62.2005C131.838 62.427 131.652 62.5603 131.438 62.6003C131.225 62.6403 131.038 62.6136 130.891 62.5203C130.825 62.4803 130.718 62.3604 130.571 62.2005C130.491 62.0938 130.424 62.0272 130.371 62.0005C130.224 61.9073 130.104 61.9339 130.011 62.0672C129.864 62.2938 130.051 62.8269 130.558 63.6532C131.225 64.7594 131.465 65.679 131.251 66.4387C131.545 66.0655 131.838 65.8256 132.132 65.7057C132.425 65.599 132.692 65.5457 132.932 65.5857C133.173 65.6124 133.586 65.7723 134.187 66.0788C134.827 66.3987 135.214 66.5586 135.361 66.572C135.507 66.5853 135.627 66.532 135.694 66.412C135.761 66.3187 135.774 66.1854 135.747 66.0122C135.721 65.8389 135.534 65.5057 135.174 64.9993L135.601 64.5995C136.535 65.7057 136.735 66.6786 136.201 67.4916C135.934 67.9181 135.614 68.1313 135.254 68.1446C134.894 68.1446 134.373 67.9447 133.706 67.5182L133.093 67.1317C132.599 66.8119 132.172 66.6919 131.838 66.7452C131.505 66.7985 131.198 67.0518 130.918 67.4916L130.318 68.5045Z" fill="#7D9CFF"/>
<path d="M139.43 58.6153C139.016 57.549 138.549 56.6028 138.029 55.7898C137.709 55.27 137.375 54.8968 137.055 54.6702C136.922 54.5636 136.668 54.4437 136.321 54.2971C136.041 54.1771 135.841 54.0705 135.721 53.9905C135.507 53.8439 135.374 53.6573 135.334 53.4308C135.294 53.2042 135.321 53.0043 135.454 52.831C135.587 52.6444 135.761 52.5378 135.988 52.5112C136.214 52.4845 136.441 52.5645 136.681 52.7377C136.922 52.911 137.228 53.2575 137.589 53.7906C138.096 54.5236 138.563 55.3633 139.003 56.3096L140.804 60.2412C141.204 61.1209 141.511 62.0272 141.724 62.9334C141.871 63.5998 141.898 64.1862 141.804 64.706C141.711 65.2258 141.564 65.639 141.337 65.9455C141.071 66.3187 140.737 66.5586 140.35 66.6652C139.963 66.7718 139.63 66.7052 139.336 66.5053C139.096 66.332 138.949 66.1188 138.896 65.8389C138.843 65.5723 138.883 65.3324 139.029 65.1325C139.163 64.9459 139.35 64.826 139.576 64.7993C139.803 64.7727 140.017 64.7993 140.19 64.9326L140.444 65.1325L140.524 65.1991C140.604 65.2525 140.697 65.2791 140.79 65.2525C140.884 65.2258 140.977 65.1725 141.044 65.0659C141.244 64.786 141.311 64.3595 141.257 63.7864C141.164 62.8935 140.857 61.8539 140.31 60.6544L137.442 59.335C135.828 58.5886 134.654 58.1621 133.906 58.0688C133.479 58.0155 133.213 58.0688 133.106 58.2021C132.919 58.4686 133.159 59.0684 133.84 60.028L133.333 60.3479C132.746 59.4949 132.385 58.7485 132.265 58.1088C132.172 57.6423 132.239 57.2692 132.439 56.9759C132.652 56.6827 132.946 56.5361 133.333 56.5495C133.88 56.5628 134.974 56.8826 136.588 57.5224L139.43 58.6153Z" fill="#7D9CFF"/>
<path d="M134.854 45.4076C135.654 44.4347 136.495 43.7683 137.375 43.3951C138.256 43.0353 139.136 42.942 140.043 43.1019C140.951 43.2752 141.844 43.7283 142.752 44.4614C144.366 45.7941 145.54 47.4468 146.26 49.4326C146.981 51.4318 146.861 53.0177 145.874 54.2039C145.287 54.9103 144.579 55.3101 143.726 55.4034C142.872 55.4967 142.031 55.2035 141.191 54.5105C139.977 53.5242 139.27 52.2981 139.043 50.832C138.816 49.3793 139.11 48.1531 139.923 47.1669C140.831 46.0607 141.978 45.9807 143.365 46.9403C142.725 46.1673 142.138 45.5676 141.631 45.1544C140.684 44.3814 139.67 43.9949 138.576 44.0082C137.482 44.0215 136.401 44.608 135.347 45.7808L134.854 45.4076ZM140.564 47.66C139.95 48.4064 139.897 49.4059 140.404 50.6454C140.911 51.8982 141.658 52.9111 142.632 53.7108C143.739 54.6304 144.633 54.6704 145.313 53.8574C145.927 53.111 145.927 52.0315 145.313 50.6321C144.699 49.2327 144.006 48.2198 143.272 47.62C142.792 47.2335 142.311 47.0336 141.818 47.0336C141.324 47.0336 140.911 47.2468 140.564 47.66Z" fill="#7D9CFF"/>
<path d="M152.531 44.1414C152.691 44.7945 152.704 45.3809 152.584 45.9274C152.464 46.4738 152.237 46.9136 151.917 47.2601C151.29 47.9132 150.53 48.2464 149.622 48.2464C148.715 48.2464 147.888 47.8999 147.154 47.2068C146.487 46.5671 145.994 45.7674 145.687 44.8078C145.38 43.8482 145.313 42.9153 145.46 42.009C145.62 41.1027 145.94 40.3964 146.447 39.8632C146.847 39.4368 147.328 39.1835 147.888 39.0902C148.448 38.9969 148.982 39.0902 149.502 39.3701L148.688 37.8774L149.556 36.7312L153.225 42.9553C153.318 43.1285 153.438 43.2751 153.571 43.4084C153.691 43.5284 153.812 43.595 153.932 43.6083C154.052 43.6217 154.132 43.595 154.198 43.515C154.318 43.3818 154.372 43.1419 154.359 42.8087C154.318 42.1556 154.145 41.4093 153.825 40.5563L154.359 40.3297C155.146 42.3955 155.199 43.7816 154.519 44.5146C154.292 44.7545 154.025 44.8611 153.691 44.8478C153.371 44.8345 153.064 44.6879 152.784 44.4213L152.531 44.1414ZM147.047 40.2631C146.714 40.6096 146.527 41.0894 146.474 41.7158C146.42 42.3289 146.594 43.0886 146.981 43.9815C147.368 44.8745 147.928 45.6475 148.608 46.3005C149.155 46.8203 149.662 47.0869 150.143 47.1135C150.623 47.1402 151.05 46.9403 151.45 46.5271C151.797 46.1539 151.997 45.6875 152.037 45.1277C152.077 44.5679 151.864 43.7549 151.41 42.7287C150.956 41.7025 150.423 40.9028 149.822 40.343C149.396 39.9432 148.915 39.7433 148.368 39.7433C147.821 39.7433 147.394 39.9032 147.047 40.2631Z" fill="#7D9CFF"/>
<path d="M162.95 33.4525C162.817 32.3063 162.59 31.2801 162.283 30.3605C162.096 29.7741 161.87 29.3343 161.616 29.0277C161.509 28.8944 161.296 28.7212 160.989 28.4946C160.749 28.308 160.576 28.1614 160.482 28.0415C160.309 27.8416 160.229 27.6283 160.242 27.4017C160.255 27.1752 160.335 26.9886 160.509 26.842C160.682 26.6954 160.882 26.6421 161.109 26.6687C161.336 26.7087 161.536 26.8286 161.723 27.0552C161.91 27.2818 162.123 27.6949 162.35 28.308C162.67 29.1343 162.91 30.0673 163.11 31.0935L163.898 35.3451C164.071 36.3047 164.151 37.2509 164.124 38.1839C164.098 38.8636 163.978 39.45 163.764 39.9298C163.551 40.4096 163.297 40.7694 163.017 41.0093C162.67 41.3026 162.283 41.4625 161.883 41.4625C161.483 41.4625 161.163 41.3292 160.936 41.0627C160.749 40.8361 160.656 40.5962 160.669 40.3163C160.682 40.0364 160.789 39.8232 160.976 39.6632C161.149 39.5166 161.363 39.45 161.59 39.4633C161.816 39.4767 162.016 39.5699 162.15 39.7432L162.337 39.9964L162.403 40.0897C162.47 40.1697 162.55 40.2097 162.643 40.2097C162.737 40.2097 162.844 40.1697 162.937 40.0897C163.204 39.8632 163.364 39.4767 163.457 38.9036C163.591 38.0239 163.537 36.9311 163.311 35.6249L160.856 33.6391C159.468 32.5196 158.428 31.8265 157.734 31.5467C157.334 31.3867 157.067 31.3734 156.933 31.4933C156.693 31.7066 156.773 32.3463 157.2 33.4525L156.627 33.6391C156.266 32.6795 156.106 31.8665 156.146 31.2001C156.173 30.7203 156.32 30.3738 156.587 30.1472C156.867 29.9074 157.187 29.854 157.56 29.9607C158.094 30.1073 159.068 30.6804 160.482 31.6933L162.95 33.4525Z" fill="#7D9CFF"/>
<path d="M164.925 25.8159L164.311 25.9092C164.498 24.4564 165.098 23.3636 166.112 22.6172C166.766 22.1374 167.393 21.9108 167.98 21.9508C168.567 21.9908 169.034 22.244 169.367 22.7105C169.608 23.0304 169.741 23.3769 169.768 23.7767C169.794 24.1766 169.741 24.5364 169.581 24.8696C169.421 25.2161 169.101 25.6959 168.62 26.3223C168.127 26.9754 167.78 27.4818 167.58 27.8417C167.38 28.2015 167.273 28.5614 167.273 28.9345C167.273 29.3077 167.38 29.6409 167.593 29.9208C167.82 30.2407 168.127 30.4406 168.487 30.5339C168.847 30.6272 169.234 30.5339 169.634 30.2407C170.355 29.7076 170.808 28.7879 171.008 27.4685L171.542 27.4552C171.529 28.1216 171.355 28.8146 171.022 29.5343C170.688 30.254 170.208 30.8404 169.568 31.3069C168.927 31.7734 168.327 31.9866 167.753 31.9333C167.18 31.88 166.726 31.6267 166.379 31.147C166.086 30.7471 165.925 30.294 165.899 29.8009C165.885 29.3077 165.992 28.8546 166.232 28.4148C166.472 27.975 166.913 27.3486 167.566 26.5222C168.073 25.8825 168.38 25.3494 168.487 24.9362C168.594 24.5231 168.474 24.0966 168.153 23.6568C167.927 23.3502 167.646 23.177 167.286 23.1103C166.926 23.057 166.566 23.1636 166.206 23.4302C165.525 23.9766 165.098 24.763 164.925 25.8159Z" fill="#7D9CFF"/>
<path d="M173.303 17.8059C174.09 17.2994 174.958 17.1795 175.878 17.4194C176.799 17.6593 177.546 18.2324 178.119 19.1387C178.613 19.925 178.893 20.8046 178.96 21.7776C179.027 22.7505 178.88 23.6301 178.506 24.4165C178.133 25.1895 177.612 25.7892 176.959 26.2157C176.172 26.7221 175.304 26.8421 174.357 26.6022C173.41 26.3623 172.663 25.7892 172.089 24.8829C171.622 24.1366 171.342 23.2703 171.289 22.284C171.222 21.2978 171.382 20.4048 171.756 19.6185C172.129 18.8188 172.649 18.2191 173.303 17.8059ZM173.663 18.3124C173.277 18.5523 172.996 18.9654 172.81 19.5385C172.623 20.1116 172.623 20.9113 172.823 21.9242C173.023 22.9371 173.383 23.8567 173.89 24.6697C174.29 25.2961 174.731 25.6959 175.224 25.8692C175.705 26.0291 176.172 25.9891 176.585 25.7226C176.985 25.4693 177.279 25.0695 177.452 24.5097C177.626 23.95 177.612 23.1503 177.412 22.0974C177.199 21.0445 176.839 20.1116 176.332 19.3119C175.945 18.7122 175.518 18.3257 175.024 18.1657C174.544 17.9925 174.077 18.0458 173.663 18.3124Z" fill="#7D9CFF"/>
<path d="M177.999 9.26282C179.12 8.6764 180.147 8.38319 181.108 8.39652C182.055 8.39652 182.909 8.66308 183.683 9.16953C184.443 9.67598 185.097 10.449 185.644 11.4752C186.618 13.3278 187.045 15.3136 186.938 17.4194C186.831 19.5385 186.084 20.9512 184.723 21.6576C183.909 22.0841 183.096 22.1774 182.282 21.9242C181.468 21.6709 180.801 21.0712 180.294 20.1249C179.574 18.7388 179.387 17.3394 179.747 15.9C180.107 14.4606 180.854 13.4611 181.988 12.8613C183.256 12.1949 184.336 12.5681 185.244 13.9808C184.95 13.0212 184.643 12.2482 184.336 11.6618C183.763 10.5823 182.976 9.83592 181.962 9.40943C180.948 8.99627 179.72 9.11622 178.293 9.78261L177.999 9.26282ZM182.375 13.5544C181.521 14.0075 181.081 14.9005 181.068 16.2466C181.054 17.5927 181.335 18.8188 181.922 19.9383C182.589 21.2178 183.389 21.6043 184.323 21.1112C185.177 20.658 185.604 19.6718 185.577 18.1391C185.55 16.6064 185.324 15.4202 184.87 14.5673C184.59 14.0208 184.216 13.661 183.763 13.4611C183.322 13.2745 182.855 13.3011 182.375 13.5544Z" fill="#7D9CFF"/>
<path d="M190.86 13.0479L194.476 11.5685L194.102 7.70345L195.45 7.15701L196.117 14.1674C196.143 14.4739 196.197 14.7138 196.263 14.8871C196.397 15.207 196.597 15.3136 196.85 15.207C197.384 14.9937 197.718 13.9941 197.878 12.2215L198.425 12.1949C198.398 13.1811 198.238 14.0341 197.918 14.7538C197.598 15.4735 197.184 15.94 196.637 16.1666C196.303 16.2998 195.997 16.3132 195.716 16.1799C195.436 16.0599 195.223 15.8067 195.076 15.4602C194.849 14.9137 194.676 13.8475 194.542 12.2749L191.007 13.7276L191.554 17.9791L190.206 18.6055L189.246 11.3286C189.233 11.182 189.206 11.0754 189.179 11.0087C189.032 10.6489 188.699 10.5822 188.165 10.7955L187.418 11.102L187.351 10.4756L190.26 9.10286L190.86 13.0479Z" fill="#7D9CFF"/>
<path d="M202.2 4.7446C203.094 4.47805 203.962 4.58467 204.789 5.06447C205.616 5.54427 206.176 6.29062 206.483 7.31685C206.75 8.19648 206.777 9.12942 206.59 10.089C206.39 11.0486 206.016 11.8616 205.442 12.5147C204.882 13.1677 204.215 13.6075 203.468 13.8341C202.574 14.1007 201.707 13.994 200.866 13.5009C200.026 13.0078 199.452 12.2614 199.145 11.2485C198.892 10.3956 198.865 9.48927 199.065 8.52968C199.265 7.57008 199.666 6.75709 200.226 6.0907C200.813 5.41099 201.467 4.97117 202.2 4.7446ZM202.414 5.33102C201.974 5.4643 201.587 5.78417 201.253 6.27729C200.92 6.78375 200.706 7.54343 200.626 8.58299C200.546 9.62255 200.64 10.5955 200.92 11.5151C201.133 12.2348 201.453 12.7412 201.88 13.0211C202.307 13.3143 202.761 13.381 203.228 13.2477C203.681 13.1144 204.068 12.7945 204.388 12.3014C204.709 11.8083 204.909 11.0353 204.989 9.96907C205.069 8.90285 204.975 7.9166 204.695 6.98366C204.495 6.30395 204.175 5.82415 203.748 5.53094C203.321 5.23773 202.894 5.18442 202.414 5.33102Z" fill="#7D9CFF"/>
<path d="M216.449 1.7059L215.742 7.43682C215.635 8.07655 215.608 8.583 215.662 8.96951C215.702 9.24939 215.808 9.46263 215.982 9.60924C216.155 9.75584 216.369 9.80915 216.636 9.76917C217.156 9.70253 217.743 9.20941 218.423 8.32978C219.09 7.43682 219.544 6.19734 219.771 4.62467L220.224 1.37271L221.665 1.17279L220.705 8.07655C220.665 8.38309 220.651 8.64964 220.678 8.86289C220.705 9.02282 220.758 9.14277 220.838 9.20941C220.918 9.27605 221.038 9.3027 221.172 9.28937C221.732 9.20941 222.346 8.32978 222.999 6.65048L223.56 6.75711C223.226 7.86331 222.799 8.68963 222.292 9.23606C221.785 9.7825 221.278 10.089 220.771 10.1557C220.398 10.209 220.091 10.1423 219.851 9.94243C219.611 9.74252 219.451 9.46263 219.397 9.07613C219.357 8.75626 219.344 8.30312 219.384 7.73003C218.77 8.80958 218.21 9.56926 217.69 10.0224C217.169 10.4622 216.662 10.7154 216.155 10.7954C215.635 10.862 215.208 10.7688 214.861 10.5155C214.514 10.2623 214.314 9.88912 214.248 9.40932C214.194 9.00949 214.221 8.39642 214.328 7.58343L214.808 3.63842C214.821 3.54513 214.821 3.4385 214.808 3.35854C214.781 3.1986 214.701 3.07865 214.541 2.99869C214.328 2.90539 214.047 2.87874 213.687 2.93205L213.194 2.99869L213.287 2.31897L216.449 1.7059Z" fill="#7D9CFF"/>
<path d="M232.805 5.02454L231.565 9.24943L230.07 9.27609L232.098 2.42564C232.165 2.21239 232.205 2.03913 232.205 1.90586C232.218 1.51935 231.938 1.31944 231.378 1.30611L230.564 1.27945L230.751 0.679706L233.966 0.613068L232.912 4.39814L233.833 4.4248C234.5 4.43812 235.007 4.30485 235.353 4.02496C235.7 3.74508 236.114 3.17199 236.568 2.33234C236.914 1.69261 237.261 1.23947 237.581 0.999572C237.902 0.759673 238.315 0.639723 238.796 0.653051C239.156 0.666379 239.476 0.786328 239.769 1.02623C240.05 1.26613 240.196 1.59932 240.183 2.02581C240.17 2.39898 240.063 2.69219 239.836 2.90544C239.609 3.11868 239.356 3.2253 239.049 3.21197C238.769 3.19865 238.569 3.11868 238.422 2.94542C238.275 2.77216 238.208 2.61223 238.208 2.43897C238.208 2.359 238.249 2.21239 238.315 1.99915C238.355 1.8792 238.382 1.78591 238.382 1.7326C238.382 1.55934 238.302 1.46604 238.128 1.46604C237.862 1.45271 237.501 1.89253 237.048 2.75883C236.447 3.90501 235.767 4.5714 235.007 4.79797C235.474 4.86461 235.834 4.98456 236.087 5.18448C236.341 5.37106 236.501 5.58431 236.608 5.79755C236.701 6.02412 236.781 6.46394 236.834 7.13032C236.888 7.83669 236.954 8.26318 237.021 8.39646C237.088 8.52974 237.195 8.59637 237.328 8.59637C237.448 8.59637 237.568 8.54306 237.702 8.43644C237.835 8.32982 238.022 7.99663 238.275 7.42353L238.849 7.58347C238.369 8.95622 237.648 9.62261 236.674 9.59595C236.167 9.58262 235.82 9.42269 235.634 9.11615C235.447 8.80962 235.353 8.26318 235.38 7.46352L235.393 6.74382C235.407 6.1574 235.313 5.73091 235.087 5.47769C234.86 5.22446 234.486 5.09118 233.966 5.07785L232.805 5.02454Z" fill="#7D9CFF"/>
<path d="M246.387 1.42599C247.321 1.53261 248.068 1.98576 248.628 2.74544C249.188 3.50512 249.415 4.42473 249.282 5.49095C249.175 6.41056 248.828 7.26353 248.268 8.07652C247.708 8.88952 247.027 9.46261 246.253 9.83578C245.48 10.209 244.692 10.3422 243.919 10.2489C242.985 10.1423 242.238 9.68918 241.664 8.90284C241.09 8.11651 240.863 7.19689 240.997 6.144C241.104 5.26437 241.45 4.42473 242.024 3.62507C242.598 2.8254 243.278 2.23898 244.079 1.85248C244.839 1.4793 245.613 1.3327 246.387 1.42599ZM246.347 2.05239C245.893 1.99908 245.413 2.13236 244.906 2.46555C244.399 2.79875 243.905 3.41182 243.412 4.33143C242.918 5.25105 242.625 6.18399 242.504 7.14358C242.411 7.88994 242.504 8.47636 242.771 8.91617C243.038 9.35599 243.425 9.59588 243.919 9.66252C244.386 9.71583 244.866 9.58256 245.359 9.27602C245.853 8.96948 246.347 8.32975 246.854 7.38348C247.361 6.43721 247.668 5.49095 247.774 4.53135C247.854 3.82498 247.761 3.25189 247.494 2.8254C247.227 2.35893 246.84 2.1057 246.347 2.05239Z" fill="#7D9CFF"/>
<path d="M252.897 4.3581L252.417 3.9716C253.631 3.14528 254.845 2.85207 256.072 3.1053C256.873 3.26523 257.447 3.5851 257.807 4.05157C258.167 4.51804 258.287 5.02449 258.167 5.59758C258.087 5.98409 257.914 6.31728 257.647 6.61049C257.38 6.89037 257.06 7.09029 256.699 7.19691C256.339 7.30353 255.766 7.39682 254.978 7.46346C254.165 7.5301 253.551 7.61007 253.151 7.70336C252.75 7.79666 252.404 7.95659 252.137 8.20982C251.857 8.46304 251.683 8.75625 251.616 9.10277C251.536 9.48928 251.59 9.8358 251.75 10.1823C251.923 10.5155 252.257 10.7421 252.737 10.8354C253.618 11.022 254.605 10.7421 255.712 9.99573L256.072 10.3822C255.565 10.822 254.938 11.1552 254.178 11.3818C253.418 11.6084 252.657 11.6484 251.883 11.4884C251.109 11.3285 250.549 11.022 250.202 10.5688C249.855 10.1157 249.749 9.5959 249.869 9.02281C249.975 8.52968 250.202 8.11652 250.549 7.77C250.896 7.43681 251.323 7.21024 251.803 7.09029C252.284 6.97034 253.057 6.89037 254.098 6.81041C254.912 6.75709 255.512 6.63714 255.886 6.4239C256.259 6.21066 256.513 5.85081 256.619 5.33103C256.699 4.95785 256.633 4.62466 256.446 4.33145C256.259 4.03824 255.926 3.83832 255.485 3.74503C254.658 3.57177 253.791 3.77168 252.897 4.3581Z" fill="#7D9CFF"/>
<path d="M264.371 0C265.585 0.359849 266.532 0.87963 267.199 1.54602C267.866 2.2124 268.306 2.99874 268.493 3.8917C268.68 4.78465 268.613 5.79756 268.28 6.91709C267.679 8.91625 266.612 10.6355 265.051 12.0749C263.49 13.5143 261.983 14.0074 260.502 13.5676C259.621 13.3011 258.981 12.7946 258.554 12.0483C258.14 11.3019 258.087 10.409 258.394 9.36939C258.834 7.87668 259.688 6.74383 260.955 5.97082C262.209 5.19781 263.45 4.9979 264.678 5.35774C266.052 5.7709 266.559 6.79714 266.225 8.43645C266.692 7.54349 267.012 6.77048 267.199 6.14408C267.546 4.97124 267.506 3.8917 267.079 2.87879C266.652 1.86588 265.678 1.1062 264.184 0.58642L264.371 0ZM264.517 6.13075C263.597 5.85087 262.65 6.19739 261.702 7.14366C260.755 8.08993 260.088 9.1828 259.728 10.3956C259.314 11.7817 259.621 12.6214 260.635 12.9146C261.569 13.1944 262.556 12.768 263.61 11.6618C264.664 10.5422 265.331 9.52932 265.598 8.60971C265.772 8.02329 265.758 7.50351 265.571 7.05036C265.385 6.58389 265.024 6.27736 264.517 6.13075Z" fill="#7D9CFF"/>
<path d="M272.322 15.94C271.775 16.3265 271.228 16.5531 270.668 16.633C270.108 16.713 269.627 16.673 269.187 16.4997C268.347 16.1532 267.759 15.5668 267.426 14.7138C267.092 13.8609 267.119 12.9812 267.506 12.035C267.853 11.182 268.427 10.4356 269.214 9.7959C270.001 9.15617 270.841 8.75634 271.749 8.56975C272.642 8.38317 273.43 8.43648 274.11 8.70303C274.644 8.9296 275.057 9.27612 275.351 9.75592C275.631 10.2357 275.738 10.7822 275.671 11.3552L276.765 10.0625L278.152 10.449L273.683 16.1266C273.563 16.2865 273.47 16.4464 273.39 16.6197C273.323 16.7796 273.309 16.9129 273.336 17.0195C273.363 17.1262 273.43 17.2061 273.523 17.2461C273.696 17.3127 273.923 17.2728 274.243 17.1395C274.844 16.8596 275.471 16.4331 276.151 15.8334L276.551 16.2465C274.91 17.7259 273.63 18.2857 272.709 17.9125C272.416 17.7925 272.202 17.5793 272.109 17.2728C272.002 16.9662 272.029 16.633 272.175 16.2732L272.322 15.94ZM273.937 9.42273C273.496 9.23614 272.976 9.23614 272.376 9.4094C271.775 9.58266 271.135 10.0091 270.454 10.7022C269.774 11.3952 269.24 12.1816 268.88 13.0612C268.6 13.7542 268.533 14.3407 268.68 14.7805C268.827 15.2336 269.174 15.5668 269.707 15.7801C270.174 15.9666 270.695 15.98 271.228 15.82C271.762 15.6601 272.442 15.167 273.243 14.3673C274.043 13.5543 274.59 12.7813 274.897 12.0216C275.124 11.4752 275.124 10.9554 274.937 10.449C274.75 9.94251 274.39 9.60932 273.937 9.42273Z" fill="#7D9CFF"/>
<path d="M285.917 21.9907C286.944 21.4842 287.838 20.9245 288.598 20.3247C289.079 19.9515 289.426 19.5917 289.626 19.2452C289.706 19.0986 289.813 18.8453 289.919 18.4855C290.013 18.1923 290.093 17.979 290.173 17.8458C290.306 17.6192 290.48 17.4726 290.706 17.406C290.933 17.3393 291.133 17.3526 291.32 17.4726C291.52 17.5925 291.64 17.7525 291.68 17.979C291.72 18.2056 291.667 18.4322 291.52 18.6854C291.373 18.9386 291.053 19.2718 290.546 19.6983C289.866 20.2714 289.079 20.8178 288.172 21.3376L284.423 23.4967C283.582 23.9898 282.715 24.3764 281.821 24.6562C281.167 24.8561 280.58 24.9494 280.06 24.8961C279.526 24.8561 279.113 24.7362 278.793 24.5496C278.392 24.323 278.126 24.0165 277.992 23.6433C277.859 23.2701 277.872 22.9236 278.059 22.6171C278.206 22.3639 278.419 22.2039 278.673 22.1106C278.939 22.0307 279.18 22.0573 279.393 22.1773C279.593 22.2972 279.727 22.4705 279.78 22.6971C279.833 22.9236 279.82 23.1369 279.7 23.3235L279.526 23.59L279.46 23.6833C279.406 23.7766 279.393 23.8566 279.433 23.9499C279.46 24.0432 279.526 24.1231 279.646 24.1898C279.94 24.363 280.367 24.3897 280.941 24.2831C281.821 24.1098 282.835 23.6966 283.982 23.0436L285.036 20.0715C285.623 18.3922 285.944 17.1794 285.97 16.433C285.984 16.0065 285.917 15.74 285.757 15.66C285.477 15.5001 284.89 15.7933 283.996 16.5663L283.636 16.0865C284.423 15.4201 285.143 15.007 285.77 14.8204C286.224 14.6871 286.611 14.7138 286.917 14.887C287.238 15.0736 287.398 15.3535 287.424 15.74C287.464 16.2864 287.238 17.3926 286.757 19.0719L285.917 21.9907Z" fill="#7D9CFF"/>
<path d="M293.788 21.3377L293.495 20.7913C294.936 20.4981 296.163 20.7113 297.19 21.4177C297.857 21.8842 298.271 22.3906 298.418 22.9637C298.564 23.5368 298.484 24.0566 298.151 24.5231C297.924 24.8429 297.631 25.0828 297.27 25.2428C296.91 25.4027 296.55 25.456 296.176 25.416C295.803 25.376 295.242 25.2294 294.482 24.9762C293.708 24.723 293.108 24.5631 292.708 24.4831C292.307 24.4031 291.92 24.4298 291.574 24.5497C291.227 24.6697 290.947 24.8829 290.746 25.1761C290.52 25.496 290.426 25.8425 290.453 26.2157C290.48 26.5889 290.693 26.9221 291.107 27.2019C291.84 27.7084 292.868 27.8417 294.175 27.6018L294.362 28.1082C293.722 28.3081 293.014 28.3748 292.227 28.2815C291.44 28.1882 290.72 27.935 290.079 27.4818C289.426 27.0287 289.025 26.5222 288.892 25.9758C288.759 25.4294 288.852 24.9096 289.186 24.4298C289.479 24.0166 289.839 23.7234 290.293 23.5501C290.746 23.3769 291.227 23.3236 291.72 23.4169C292.214 23.4968 292.948 23.7234 293.935 24.0566C294.709 24.3365 295.309 24.4431 295.736 24.4031C296.163 24.3631 296.537 24.1232 296.843 23.6834C297.057 23.3769 297.137 23.0437 297.07 22.6838C297.004 22.324 296.79 22.0175 296.416 21.7642C295.709 21.3111 294.842 21.1512 293.788 21.3377Z" fill="#7D9CFF"/>
<path d="M304.061 26.6555C304.795 27.2419 305.182 28.0149 305.262 28.9612C305.328 29.9075 305.035 30.8004 304.355 31.6401C303.768 32.3598 303.034 32.9062 302.127 33.2927C301.219 33.6792 300.339 33.8125 299.485 33.7192C298.631 33.6259 297.897 33.3194 297.284 32.8262C296.55 32.2398 296.15 31.4668 296.083 30.4939C296.016 29.521 296.31 28.628 296.977 27.8017C297.537 27.1086 298.271 26.5755 299.178 26.2024C300.085 25.8292 300.979 25.6826 301.86 25.7892C302.727 25.8825 303.461 26.1757 304.061 26.6555ZM303.701 27.162C303.341 26.8821 302.874 26.7355 302.26 26.7488C301.646 26.7621 300.899 27.0154 300.005 27.5351C299.111 28.0549 298.351 28.6813 297.751 29.441C297.284 30.0274 297.044 30.5739 297.044 31.0803C297.044 31.5868 297.23 32.0132 297.617 32.3198C297.991 32.613 298.458 32.7596 299.058 32.7463C299.645 32.7329 300.406 32.4664 301.326 31.92C302.247 31.3735 303.02 30.7471 303.621 30.0008C304.061 29.441 304.288 28.9079 304.288 28.4014C304.288 27.8817 304.088 27.4685 303.701 27.162Z" fill="#7D9CFF"/>
<path d="M313.653 28.3082C314.574 29.1745 315.188 30.0541 315.495 30.9471C315.801 31.84 315.828 32.733 315.601 33.6259C315.375 34.5189 314.854 35.3852 314.054 36.2382C312.626 37.7575 310.892 38.8104 308.851 39.4102C306.809 39.9966 305.235 39.77 304.114 38.7171C303.447 38.0907 303.087 37.3444 303.061 36.4914C303.034 35.6384 303.381 34.8121 304.114 34.0258C305.182 32.8929 306.449 32.2532 307.93 32.1332C309.398 31.9999 310.598 32.3731 311.532 33.2528C312.573 34.2257 312.573 35.3719 311.532 36.6913C312.346 36.1049 312.986 35.5584 313.44 35.0787C314.281 34.1857 314.721 33.1994 314.787 32.1066C314.854 31.0137 314.334 29.8942 313.227 28.7613L313.653 28.3082ZM311.039 33.8525C310.332 33.1861 309.344 33.0795 308.063 33.506C306.783 33.9325 305.715 34.5989 304.848 35.5318C303.861 36.5847 303.754 37.4643 304.528 38.184C305.235 38.8504 306.316 38.917 307.757 38.3973C309.197 37.8775 310.251 37.2644 310.905 36.558C311.319 36.1182 311.546 35.6384 311.586 35.1453C311.612 34.6388 311.425 34.2123 311.039 33.8525Z" fill="#7D9CFF"/>
<path d="M314.294 41.6225L316.935 44.5013L320.444 42.822L321.418 43.8882L315.054 46.9269C314.774 47.0602 314.561 47.1935 314.427 47.3134C314.174 47.54 314.134 47.7666 314.321 47.9798C314.707 48.4063 315.761 48.3796 317.469 47.9132L317.682 48.4196C316.749 48.7395 315.881 48.8728 315.108 48.8328C314.32 48.7795 313.733 48.5529 313.347 48.1131C313.106 47.8465 313 47.5667 313.013 47.2468C313.04 46.9402 313.186 46.6604 313.467 46.3938C313.907 45.994 314.841 45.4609 316.282 44.7945L313.707 41.9823L309.905 43.9548L308.851 42.9019L315.361 39.5034C315.495 39.4367 315.588 39.3834 315.641 39.3301C315.921 39.0636 315.881 38.7304 315.495 38.3039L314.948 37.7041L315.521 37.4243L317.803 39.6766L314.294 41.6225Z" fill="#7D9CFF"/>
<path d="M326.034 49.2192C326.621 49.9523 326.835 50.7919 326.701 51.7382C326.554 52.6844 326.074 53.4841 325.234 54.1505C324.513 54.7236 323.659 55.0968 322.699 55.27C321.738 55.4433 320.844 55.39 320.031 55.1101C319.217 54.8302 318.563 54.3771 318.083 53.764C317.496 53.031 317.282 52.178 317.429 51.2184C317.576 50.2588 318.056 49.4458 318.897 48.7928C319.59 48.2463 320.431 47.8865 321.405 47.7132C322.379 47.5533 323.286 47.6066 324.113 47.8865C324.913 48.1797 325.567 48.6195 326.034 49.2192ZM325.581 49.6324C325.3 49.2725 324.86 49.0326 324.273 48.9127C323.686 48.7928 322.886 48.8727 321.898 49.1926C320.911 49.5124 320.031 49.9523 319.283 50.552C318.696 51.0185 318.35 51.4983 318.229 52.0047C318.109 52.5112 318.216 52.951 318.523 53.3375C318.817 53.7107 319.257 53.9506 319.83 54.0705C320.404 54.1905 321.205 54.0839 322.219 53.764C323.232 53.4441 324.126 52.991 324.887 52.3912C325.447 51.9514 325.781 51.4849 325.887 50.9785C325.981 50.472 325.887 50.0322 325.581 49.6324Z" fill="#7D9CFF"/>
<path d="M319.43 59.6949L319.684 59.1618C320.364 59.5483 320.964 59.7749 321.511 59.8415C321.925 59.8948 322.219 59.8548 322.405 59.7349C322.512 59.6549 322.512 59.535 322.419 59.375C322.125 58.8819 322.219 58.4554 322.699 58.1089C322.979 57.909 323.259 57.829 323.566 57.8823C323.873 57.9223 324.113 58.0822 324.3 58.3355C324.5 58.602 324.553 58.9085 324.487 59.2417C324.406 59.5749 324.206 59.8681 323.859 60.108C323.326 60.4945 322.699 60.6545 321.952 60.6145C321.191 60.5878 320.351 60.2813 319.43 59.6949Z" fill="#7D9CFF"/>
<path d="M334.426 68.5178C334.893 69.2775 335.079 69.9306 334.973 70.4903C334.866 71.0501 334.599 71.4766 334.145 71.7565C333.532 72.143 332.771 72.2096 331.851 71.9564C330.93 71.7031 330.17 71.1034 329.569 70.1305C328.956 69.1709 328.782 68.2513 329.022 67.3716C329.263 66.492 329.743 65.839 330.45 65.3858C331.571 64.6794 332.945 64.4262 334.559 64.6128C336.173 64.7994 337.387 65.5324 338.188 66.8119C338.601 67.4783 338.762 68.0647 338.668 68.5711C338.575 69.0776 338.361 69.4508 338.028 69.6507C337.561 69.9439 337 69.9705 336.32 69.7173C335.64 69.5041 334.999 69.0909 334.426 68.5178ZM331.851 66.5053C331.611 66.612 331.437 66.7053 331.33 66.7852C330.677 67.1984 330.21 67.6515 329.93 68.1446C329.649 68.6378 329.663 69.1176 329.956 69.5974C330.317 70.1705 330.837 70.5037 331.517 70.5836C332.198 70.6636 332.798 70.557 333.318 70.2238C333.692 69.9839 333.905 69.704 333.985 69.3575C334.052 69.0109 333.999 68.6911 333.799 68.3845C333.612 68.0913 333.252 67.7182 332.705 67.2517C332.384 66.9718 332.104 66.7319 331.851 66.5053ZM332.438 66.2388C333.678 67.3583 334.626 68.0913 335.306 68.4112C335.987 68.7311 336.587 68.7177 337.121 68.3845C337.708 68.0114 337.801 67.5316 337.414 66.9318C337.094 66.4254 336.507 66.0789 335.653 65.9056C334.799 65.7323 333.732 65.839 332.438 66.2388Z" fill="#7D9CFF"/>
<path d="M357.96 72.2762L354.891 78.6602C354.758 78.9401 354.678 79.1667 354.651 79.3533C354.598 79.6998 354.718 79.8864 354.998 79.9264C355.558 80.0063 356.359 79.3133 357.386 77.8606L357.88 78.1138C357.359 78.9534 356.786 79.6065 356.159 80.073C355.532 80.5394 354.918 80.726 354.344 80.646C353.57 80.5394 353.237 80.0463 353.357 79.1533C353.41 78.7402 353.544 78.327 353.744 77.9272L356.519 72.3029L349.741 79.7398L349.501 79.6998L350.342 71.4366L349.862 72.5694C349.008 74.5686 348.114 76.2212 347.193 77.514C346.273 78.8068 345.245 79.3799 344.098 79.2333C343.805 79.1933 343.538 79.0601 343.324 78.8335C343.098 78.6069 343.017 78.3004 343.071 77.9272C343.124 77.5807 343.258 77.3274 343.498 77.1409C343.738 76.9676 344.005 76.8876 344.298 76.9276C344.885 77.0076 345.165 77.3274 345.112 77.8872C345.085 78.1404 345.165 78.2737 345.339 78.3004C345.846 78.367 346.566 77.5807 347.487 75.928C348.407 74.2754 348.901 73.1159 348.994 72.4628C349.074 71.9297 348.794 71.6232 348.154 71.5299L347.927 71.5032L348.181 70.9168L351.663 71.3966L351.049 77.4741L356.025 71.9964L357.96 72.2762Z" fill="#7D9CFF"/>
<path d="M361.882 75.2482L361.455 74.8084C362.749 74.1287 363.99 73.9821 365.177 74.3686C365.951 74.6218 366.485 75.0083 366.792 75.5015C367.099 76.0079 367.165 76.5277 366.978 77.0741C366.858 77.4473 366.645 77.7672 366.338 78.0204C366.045 78.2736 365.711 78.4336 365.337 78.5002C364.964 78.5668 364.39 78.5802 363.59 78.5668C362.776 78.5402 362.149 78.5535 361.749 78.5935C361.348 78.6335 360.975 78.7668 360.681 78.98C360.375 79.2066 360.174 79.4731 360.054 79.8063C359.934 80.1795 359.934 80.5393 360.068 80.8859C360.201 81.2324 360.508 81.4989 360.975 81.6455C361.829 81.9254 362.843 81.7655 364.03 81.1524L364.35 81.5789C363.803 81.9521 363.136 82.2053 362.349 82.3519C361.575 82.4985 360.801 82.4452 360.068 82.192C359.307 81.9387 358.787 81.5789 358.507 81.0858C358.227 80.5927 358.173 80.0729 358.36 79.5131C358.52 79.0333 358.787 78.6468 359.174 78.3536C359.561 78.0604 360.001 77.8738 360.495 77.8205C360.988 77.7672 361.762 77.7672 362.803 77.8072C363.616 77.8471 364.23 77.7938 364.63 77.6339C365.031 77.474 365.311 77.1408 365.484 76.6343C365.604 76.2745 365.578 75.9413 365.418 75.6214C365.257 75.3016 364.964 75.0617 364.524 74.9284C363.723 74.6751 362.843 74.7818 361.882 75.2482Z" fill="#7D9CFF"/>
<path d="M370.234 80.726L373.716 82.4986L376.411 79.6997L377.705 80.3661L372.822 85.444C372.609 85.6706 372.462 85.8571 372.368 86.0171C372.208 86.3236 372.262 86.5369 372.502 86.6701C373.009 86.9367 373.983 86.5369 375.437 85.5106L375.824 85.9104C375.063 86.5369 374.303 86.9633 373.556 87.1899C372.809 87.4165 372.168 87.4032 371.648 87.1366C371.328 86.9767 371.128 86.7501 371.034 86.4436C370.941 86.137 370.994 85.8305 371.168 85.484C371.434 84.9509 372.128 84.1245 373.249 83.005L369.847 81.2724L366.979 84.4444L365.618 83.8313L370.527 78.367C370.634 78.2603 370.701 78.167 370.727 78.1137C370.901 77.7672 370.741 77.4607 370.234 77.2074L369.513 76.8343L369.94 76.3678L372.875 77.6739L370.234 80.726Z" fill="#7D9CFF"/>
<path d="M384.029 84.3911C384.789 84.9375 385.229 85.6839 385.349 86.6301C385.469 87.5764 385.216 88.4827 384.589 89.349C384.042 90.0953 383.335 90.6817 382.441 91.1082C381.56 91.5347 380.68 91.7213 379.826 91.668C378.959 91.6147 378.212 91.3615 377.585 90.895C376.824 90.3485 376.384 89.5889 376.264 88.6293C376.144 87.6697 376.397 86.7501 377.011 85.8971C377.531 85.1774 378.238 84.6043 379.132 84.1911C380.026 83.7647 380.907 83.5781 381.787 83.6314C382.668 83.6847 383.401 83.9379 384.029 84.3911ZM383.695 84.9108C383.321 84.6443 382.841 84.5243 382.241 84.5643C381.64 84.6043 380.907 84.8975 380.026 85.4706C379.146 86.0437 378.439 86.7101 377.865 87.4831C377.425 88.0828 377.224 88.6426 377.251 89.1624C377.278 89.6822 377.491 90.082 377.892 90.3752C378.278 90.6551 378.759 90.775 379.346 90.7351C379.933 90.6951 380.68 90.3752 381.574 89.8021C382.468 89.2157 383.201 88.536 383.762 87.763C384.175 87.1899 384.375 86.6434 384.349 86.137C384.309 85.6039 384.095 85.2041 383.695 84.9108Z" fill="#7D9CFF"/>
<path d="M389.178 94.1603C389.819 94.7734 390.152 95.3731 390.179 95.9462C390.206 96.5193 390.046 96.9991 389.672 97.3723C389.165 97.8921 388.445 98.1453 387.497 98.1186C386.55 98.092 385.67 97.6788 384.842 96.8925C384.015 96.1061 383.628 95.2532 383.655 94.3469C383.682 93.4406 383.989 92.6809 384.576 92.0812C385.496 91.1349 386.764 90.5485 388.378 90.3486C389.992 90.1487 391.34 90.5751 392.434 91.628C392.994 92.1745 393.301 92.7076 393.328 93.2274C393.354 93.7471 393.234 94.147 392.954 94.4402C392.567 94.8267 392.02 94.9866 391.313 94.9066C390.593 94.8267 389.885 94.5735 389.178 94.1603ZM386.203 92.8142C386.003 92.9741 385.856 93.1074 385.763 93.214C385.229 93.7738 384.882 94.3202 384.736 94.8667C384.589 95.4131 384.709 95.8796 385.109 96.2661C385.59 96.7326 386.177 96.9325 386.87 96.8525C387.564 96.7725 388.111 96.5193 388.538 96.0795C388.845 95.7596 388.992 95.4398 388.978 95.0799C388.965 94.7334 388.832 94.4269 388.565 94.1736C388.325 93.9337 387.871 93.6538 387.231 93.334C386.844 93.1474 386.497 92.9741 386.203 92.8142ZM386.71 92.4144C388.178 93.214 389.272 93.6938 390.006 93.8404C390.739 93.987 391.326 93.8404 391.753 93.3873C392.234 92.8942 392.207 92.401 391.7 91.8946C391.273 91.4814 390.619 91.2815 389.752 91.3215C388.885 91.3615 387.871 91.7213 386.71 92.4144Z" fill="#7D9CFF"/>
<path d="M392.474 99.7579C392.233 99.9179 392.033 100.051 391.886 100.171C391.366 100.584 391.059 101.037 390.993 101.504C390.913 101.984 391.046 102.437 391.406 102.877C391.673 103.223 392.033 103.49 392.474 103.676C392.914 103.863 393.608 103.996 394.541 104.076L394.501 104.636C392.674 104.623 391.366 104.103 390.566 103.103C390.019 102.423 389.819 101.637 389.952 100.758C390.085 99.8779 390.566 99.1182 391.366 98.4918C392.073 97.932 392.914 97.5855 393.914 97.4389C394.902 97.2923 395.876 97.3856 396.823 97.7055C397.77 98.0253 398.464 98.4785 398.917 99.0516C399.304 99.5447 399.478 100.051 399.451 100.598C399.411 101.131 399.197 101.571 398.784 101.89C398.437 102.17 397.997 102.317 397.45 102.344C396.903 102.37 396.289 102.224 395.582 101.89C394.875 101.571 393.848 100.851 392.474 99.7579ZM393.02 99.4914C393.941 100.238 394.661 100.718 395.182 100.931C395.702 101.144 396.196 101.224 396.676 101.171C397.156 101.117 397.57 100.944 397.917 100.664C398.197 100.438 398.357 100.198 398.397 99.9179C398.437 99.6513 398.357 99.3848 398.157 99.1315C397.797 98.6784 397.183 98.4385 396.316 98.4252C395.475 98.4385 394.368 98.785 393.02 99.4914Z" fill="#7D9CFF"/>
<path d="M399.464 106.862L401.426 110.247L405.214 109.354L405.948 110.607L399.077 112.219C398.771 112.286 398.544 112.366 398.384 112.459C398.09 112.633 398.01 112.846 398.144 113.086C398.424 113.579 399.464 113.779 401.239 113.699L401.345 114.245C400.358 114.352 399.491 114.298 398.744 114.085C397.983 113.872 397.463 113.512 397.17 113.006C396.996 112.699 396.943 112.393 397.036 112.099C397.13 111.806 397.33 111.553 397.663 111.366C398.184 111.073 399.211 110.753 400.758 110.407L398.837 107.102L394.702 108.208L393.888 106.955L400.972 105.022C401.119 104.982 401.225 104.956 401.279 104.916C401.612 104.716 401.639 104.383 401.359 103.89L400.959 103.183L401.572 103.023L403.32 105.715L399.464 106.862Z" fill="#7D9CFF"/>
<path d="M408.683 116.738L402.933 117.271C402.28 117.297 401.773 117.377 401.412 117.524C401.146 117.617 400.959 117.777 400.865 117.977C400.759 118.177 400.759 118.404 400.852 118.643C401.025 119.137 401.626 119.616 402.64 120.069C403.654 120.536 404.961 120.709 406.562 120.589L409.844 120.336L410.351 121.709L403.387 122.242C403.08 122.269 402.827 122.309 402.613 122.388C402.453 122.442 402.36 122.522 402.306 122.615C402.253 122.708 402.253 122.828 402.293 122.948C402.493 123.481 403.48 123.881 405.268 124.161L405.281 124.734C404.121 124.641 403.227 124.401 402.586 124.028C401.946 123.655 401.532 123.228 401.359 122.735C401.226 122.388 401.239 122.069 401.359 121.789C401.492 121.509 401.746 121.296 402.106 121.162C402.413 121.056 402.853 120.949 403.427 120.856C402.24 120.483 401.372 120.096 400.825 119.696C400.278 119.283 399.932 118.843 399.745 118.364C399.571 117.87 399.558 117.431 399.745 117.044C399.918 116.658 400.238 116.378 400.692 116.204C401.066 116.071 401.666 115.965 402.493 115.885L406.455 115.511C406.562 115.511 406.656 115.485 406.736 115.458C406.882 115.405 406.989 115.285 407.029 115.125C407.069 114.898 407.029 114.618 406.909 114.272L406.736 113.805L407.429 113.752L408.683 116.738Z" fill="#7D9CFF"/>
<path d="M406.349 127.386C406.068 127.413 405.828 127.44 405.628 127.48C404.975 127.613 404.508 127.866 404.214 128.253C403.921 128.639 403.84 129.106 403.947 129.652C404.027 130.079 404.227 130.478 404.534 130.852C404.841 131.225 405.388 131.651 406.189 132.144L405.895 132.624C404.281 131.771 403.347 130.718 403.107 129.466C402.933 128.613 403.12 127.813 403.64 127.107C404.161 126.387 404.934 125.934 405.935 125.734C406.816 125.56 407.736 125.627 408.683 125.96C409.631 126.28 410.458 126.813 411.138 127.533C411.819 128.253 412.245 128.972 412.392 129.692C412.512 130.305 412.432 130.838 412.165 131.305C411.885 131.758 411.498 132.051 410.978 132.144C410.538 132.238 410.084 132.158 409.591 131.944C409.097 131.718 408.617 131.305 408.136 130.692C407.656 130.079 407.069 128.972 406.349 127.386ZM406.962 127.386C407.443 128.479 407.856 129.239 408.23 129.665C408.603 130.092 409.004 130.398 409.457 130.558C409.911 130.718 410.351 130.772 410.791 130.678C411.138 130.612 411.405 130.465 411.565 130.239C411.725 130.012 411.779 129.745 411.712 129.439C411.605 128.866 411.165 128.386 410.404 127.973C409.644 127.56 408.483 127.373 406.962 127.386Z" fill="#7D9CFF"/>
<path d="M415.06 140.687C415.834 141.221 416.288 141.954 416.421 142.9C416.555 143.846 416.328 144.752 415.714 145.632C415.194 146.392 414.487 146.991 413.606 147.445C412.726 147.884 411.859 148.098 410.991 148.058C410.124 148.018 409.377 147.778 408.737 147.338C407.963 146.805 407.509 146.059 407.362 145.099C407.216 144.139 407.456 143.22 408.056 142.353C408.563 141.62 409.257 141.034 410.138 140.594C411.018 140.154 411.899 139.954 412.779 139.981C413.66 140.008 414.433 140.248 415.06 140.687ZM414.74 141.221C414.367 140.967 413.873 140.861 413.273 140.914C412.672 140.967 411.939 141.287 411.085 141.86C410.231 142.447 409.524 143.126 408.977 143.926C408.55 144.539 408.363 145.099 408.39 145.619C408.43 146.125 408.657 146.525 409.057 146.818C409.444 147.085 409.937 147.191 410.524 147.138C411.111 147.085 411.845 146.752 412.726 146.152C413.606 145.552 414.327 144.846 414.874 144.059C415.274 143.473 415.461 142.927 415.421 142.42C415.381 141.914 415.154 141.5 414.74 141.221Z" fill="#7D9CFF"/>
<path d="M432.297 142.287L433.058 142.687C432.604 143.047 432.191 143.3 431.804 143.433C431.417 143.566 431.017 143.62 430.576 143.593C430.149 143.566 429.763 143.486 429.442 143.353C429.109 143.22 428.508 142.927 427.641 142.46C427.028 142.127 426.481 141.954 426.027 141.9C425.56 141.847 425.093 141.914 424.599 142.087C424.106 142.26 423.706 142.473 423.385 142.74C423.052 143.007 422.438 143.54 421.518 144.353C423.119 143.566 424.519 143.5 425.733 144.126C426.641 144.606 427.214 145.299 427.441 146.232C427.681 147.165 427.561 148.084 427.068 149.017C426.441 150.217 425.44 151.083 424.093 151.63C422.745 152.176 421.478 152.136 420.304 151.51C419.383 151.03 418.823 150.323 418.609 149.417C418.396 148.511 418.596 147.485 419.196 146.352C419.93 144.952 421.277 143.513 423.239 142.034C425.2 140.554 427.281 140.381 429.469 141.54L430.817 142.273C431.444 142.58 431.924 142.593 432.297 142.287ZM426.027 147.525C426.334 146.938 426.454 146.392 426.374 145.872C426.294 145.352 426 144.966 425.493 144.686C424.613 144.219 423.626 144.406 422.518 145.232C421.411 146.059 420.584 146.992 420.037 148.031C419.717 148.644 419.596 149.204 419.663 149.724C419.73 150.243 420.023 150.643 420.53 150.91C421.451 151.39 422.465 151.19 423.586 150.31C424.706 149.43 425.507 148.511 426.027 147.525Z" fill="#7D9CFF"/>
<path d="M433.124 149.59L437.794 154.122L431.804 157.707C431.524 157.854 431.323 157.987 431.19 158.12C430.95 158.373 430.923 158.587 431.123 158.787C431.537 159.186 432.578 159.106 434.272 158.533L434.512 159.026C433.591 159.4 432.738 159.586 431.95 159.573C431.163 159.573 430.563 159.36 430.136 158.946C429.883 158.693 429.749 158.413 429.736 158.12C429.722 157.827 429.856 157.534 430.109 157.267C430.416 156.961 430.763 156.694 431.163 156.481L436.18 153.415L435.099 152.376C434.712 152.003 434.339 151.856 433.965 151.909C433.591 151.976 432.924 152.269 431.964 152.802C429.883 153.869 428.335 154.455 427.308 154.575C426.28 154.695 425.507 154.482 424.973 153.949C424.733 153.722 424.599 153.429 424.559 153.096C424.519 152.749 424.626 152.443 424.893 152.176C425.12 151.936 425.387 151.829 425.68 151.829C425.974 151.829 426.227 151.936 426.427 152.136C426.814 152.509 426.827 152.936 426.467 153.402C426.32 153.589 426.32 153.735 426.441 153.855C426.814 154.215 427.841 154.015 429.536 153.256C431.23 152.496 432.324 151.843 432.844 151.31C433.218 150.923 433.178 150.51 432.711 150.057L432.564 149.91L433.124 149.59Z" fill="#7D9CFF"/>
<path d="M436.793 165.677C436.126 165.624 435.553 165.464 435.072 165.184C434.592 164.904 434.232 164.557 434.005 164.144C433.565 163.358 433.485 162.518 433.752 161.652C434.018 160.786 434.605 160.106 435.499 159.613C436.313 159.16 437.22 158.946 438.221 158.946C439.222 158.946 440.142 159.16 440.956 159.586C441.77 160.013 442.357 160.532 442.704 161.172C442.984 161.679 443.09 162.212 442.997 162.771C442.904 163.331 442.664 163.811 442.25 164.224L443.918 163.904L444.758 165.077L437.714 166.703C437.527 166.743 437.34 166.81 437.18 166.903C437.034 166.983 436.94 167.076 436.887 167.183C436.833 167.289 436.847 167.383 436.887 167.463C436.98 167.623 437.18 167.743 437.514 167.823C438.154 167.983 438.915 168.036 439.822 167.996L439.875 168.569C437.661 168.702 436.326 168.329 435.833 167.463C435.673 167.183 435.659 166.89 435.766 166.583C435.873 166.277 436.1 166.037 436.447 165.837L436.793 165.677ZM442.143 161.612C441.916 161.199 441.503 160.866 440.929 160.626C440.356 160.386 439.582 160.319 438.621 160.426C437.647 160.532 436.753 160.826 435.913 161.279C435.259 161.639 434.846 162.052 434.672 162.491C434.512 162.931 434.565 163.411 434.846 163.904C435.099 164.344 435.486 164.677 436.006 164.89C436.54 165.104 437.354 165.144 438.488 165.01C439.608 164.877 440.529 164.611 441.249 164.224C441.756 163.944 442.103 163.544 442.263 163.025C442.423 162.531 442.383 162.052 442.143 161.612Z" fill="#7D9CFF"/>
<path d="M442.237 171.808L437.834 171.621L437.447 170.182L444.585 170.488C444.812 170.502 444.985 170.488 445.105 170.462C445.479 170.382 445.612 170.062 445.492 169.529L445.319 168.742L445.959 168.782L446.799 171.888L442.864 171.781L443.064 172.674C443.211 173.314 443.464 173.78 443.824 174.047C444.185 174.313 444.838 174.58 445.759 174.82C446.466 175.006 446.986 175.233 447.293 175.486C447.6 175.739 447.813 176.112 447.92 176.579C448 176.925 447.96 177.272 447.787 177.605C447.627 177.938 447.333 178.152 446.906 178.245C446.533 178.325 446.226 178.285 445.959 178.125C445.705 177.965 445.532 177.738 445.479 177.445C445.425 177.179 445.452 176.952 445.585 176.779C445.719 176.606 445.866 176.486 446.026 176.459C446.106 176.446 446.266 176.446 446.479 176.459C446.613 176.472 446.706 176.472 446.759 176.459C446.933 176.419 447 176.326 446.96 176.152C446.906 175.886 446.399 175.646 445.452 175.419C444.198 175.113 443.371 174.62 442.984 173.94C443.037 174.42 442.997 174.793 442.877 175.073C442.757 175.353 442.597 175.579 442.397 175.726C442.197 175.873 441.796 176.059 441.169 176.272C440.489 176.499 440.102 176.659 439.995 176.752C439.889 176.845 439.835 176.965 439.875 177.099C439.902 177.205 439.982 177.325 440.116 177.419C440.249 177.525 440.622 177.632 441.236 177.725L441.223 178.312C439.782 178.178 438.955 177.645 438.741 176.686C438.635 176.192 438.701 175.819 438.955 175.553C439.208 175.286 439.715 175.073 440.489 174.913L441.196 174.753C441.77 174.633 442.157 174.42 442.357 174.14C442.557 173.86 442.597 173.474 442.477 172.954L442.237 171.808Z" fill="#7D9CFF"/>
<path d="M440.556 185.882C440.022 185.482 439.635 185.016 439.395 184.522C439.141 184.016 439.048 183.536 439.075 183.07C439.141 182.163 439.528 181.43 440.235 180.857C440.942 180.284 441.796 180.031 442.81 180.111C443.731 180.178 444.611 180.497 445.465 181.057C446.306 181.617 446.959 182.297 447.4 183.096C447.84 183.896 448.04 184.656 447.987 185.375C447.947 185.962 447.733 186.455 447.36 186.868C446.986 187.281 446.506 187.548 445.932 187.668L447.506 188.321L447.56 189.76L440.782 187.241C440.596 187.175 440.409 187.135 440.222 187.121C440.049 187.108 439.915 187.135 439.822 187.201C439.728 187.268 439.675 187.348 439.662 187.441C439.648 187.628 439.755 187.841 439.982 188.094C440.422 188.574 441.036 189.054 441.81 189.507L441.529 190.013C439.608 188.907 438.701 187.854 438.768 186.868C438.795 186.548 438.941 186.295 439.195 186.095C439.448 185.895 439.782 185.815 440.169 185.855L440.556 185.882ZM447.253 185.442C447.293 184.962 447.133 184.469 446.786 183.949C446.439 183.43 445.825 182.95 444.958 182.51C444.091 182.07 443.184 181.817 442.223 181.737C441.476 181.684 440.902 181.79 440.516 182.07C440.129 182.35 439.915 182.776 439.875 183.35C439.835 183.856 439.982 184.349 440.302 184.816C440.622 185.282 441.289 185.775 442.303 186.282C443.317 186.788 444.224 187.081 445.038 187.135C445.625 187.175 446.119 187.028 446.546 186.695C446.986 186.362 447.226 185.935 447.253 185.442Z" fill="#7D9CFF"/>
</g>
<defs>
<clipPath id="clip0">
<rect width="448" height="190" fill="white"/>
</clipPath>
</defs>
</svg>
