<svg width="713" height="302" viewBox="0 0 713 302" fill="none" xmlns="http://www.w3.org/2000/svg">
<path d="M0 266.284L5.92397 245.438L6.92192 245.926L6.60342 247.048C6.3274 248.044 6.58219 248.786 7.38904 249.252L21.9123 257.81C22.2096 258.001 22.4431 258.107 22.613 258.149C23.1651 258.297 23.5897 257.831 23.9082 256.751L24.2055 255.734L25.1822 256.264L22.7404 264.843L21.7637 264.292L22.061 263.275C22.1671 262.894 22.2096 262.492 22.1671 262.068C22.1459 261.644 21.8486 261.284 21.2753 260.945L5.56301 251.645L2.95137 260.818L18.5363 270.054C18.8336 270.224 19.0459 270.33 19.1521 270.351C19.6829 270.499 20.1288 270.012 20.4473 268.889L20.8507 267.449L21.8274 267.978L19.3644 276.664L18.3877 276.092L18.5788 275.414C18.876 274.376 18.7274 273.677 18.1116 273.317L3.26986 264.525C2.99384 264.356 2.78151 264.25 2.63288 264.208C2.08082 264.059 1.65616 264.504 1.33767 265.563L0.976712 266.813L0 266.284Z" fill="white"/>
<path d="M27.8575 245.438C27.0719 243.786 26.2226 242.346 25.2883 241.117C24.715 240.333 24.1418 239.782 23.6109 239.443C23.3774 239.295 22.9739 239.147 22.4007 238.956C21.9335 238.808 21.615 238.659 21.4027 238.532C21.0418 238.321 20.8082 238.024 20.7233 237.685C20.6171 237.325 20.6596 237.007 20.8507 236.711C21.0418 236.393 21.3178 236.202 21.6575 236.16C21.9972 236.096 22.3794 236.202 22.7829 236.435C23.1863 236.668 23.6959 237.198 24.3541 238.003C25.2459 239.104 26.0952 240.375 26.902 241.816L30.2356 247.811C30.9787 249.167 31.5733 250.544 32.0192 251.984C32.3376 253.022 32.4438 253.954 32.3589 254.802C32.2739 255.649 32.0829 256.306 31.7856 256.814C31.4034 257.45 30.915 257.852 30.3205 258.064C29.726 258.276 29.174 258.234 28.6856 257.937C28.2822 257.704 28.0274 257.365 27.9 256.941C27.7726 256.518 27.815 256.136 28.0274 255.797C28.2185 255.48 28.4945 255.289 28.8555 255.183C29.2164 255.098 29.5561 255.141 29.8534 255.31L30.2781 255.607L30.4267 255.713C30.5753 255.797 30.7027 255.819 30.8513 255.776C31 255.734 31.1274 255.628 31.2335 255.458C31.5096 254.992 31.5733 254.315 31.4034 253.404C31.1486 252.005 30.5329 250.395 29.5137 248.552L24.8 246.794C22.1459 245.799 20.2349 245.29 19.0459 245.205C18.3664 245.184 17.9418 245.29 17.7931 245.523C17.5171 245.968 17.9842 246.9 19.1945 248.341L18.4301 248.913C17.3897 247.642 16.7527 246.498 16.4767 245.481C16.2856 244.739 16.3281 244.146 16.6253 243.659C16.9226 243.172 17.3897 242.896 18.0055 242.875C18.876 242.833 20.6383 243.214 23.2924 244.019L27.8575 245.438Z" fill="white"/>
<path d="M35.9897 225.568C35.6924 223.937 35.6075 222.538 35.7561 221.416C35.9048 220.293 36.287 219.403 36.9027 218.768C37.4335 218.217 38.0493 217.941 38.7287 217.941C39.4082 217.941 40.024 218.217 40.5972 218.768C41.1705 219.34 41.7226 220.039 42.2109 220.886L45.4808 226.394C45.5657 226.542 45.6507 226.669 45.7781 226.775C45.9267 226.902 46.0753 226.987 46.2452 226.987C46.4151 226.987 46.5637 226.923 46.6698 226.818C46.8822 226.606 46.9883 226.246 47.0096 225.716C47.0308 224.996 46.8185 223.809 46.3726 222.136L47.2856 221.903C47.8377 223.809 48.0712 225.335 47.9863 226.479C47.9014 227.326 47.6253 228.004 47.1157 228.512C46.7123 228.936 46.2452 229.127 45.7144 229.084C45.1835 229.042 44.6315 228.745 44.0794 228.194C43.8671 227.983 43.6548 227.707 43.4637 227.411L40.024 221.67C39.8116 221.288 39.5568 220.95 39.2596 220.674C38.9411 220.378 38.6014 220.208 38.2404 220.187C37.8794 220.166 37.5609 220.293 37.2849 220.568C36.9664 220.907 36.7541 221.394 36.6479 222.051C36.4781 223.068 36.563 224.106 36.839 225.229C37.2849 226.923 37.837 228.3 38.4527 229.338L41.2767 234.105L39.7055 235.927L34.9068 227.877C34.5034 227.22 34.1637 226.733 33.8664 226.436C33.463 226.034 33.0808 225.843 32.7198 225.822C32.3589 225.801 32.0192 225.949 31.7219 226.267C31.3609 226.648 31.1274 227.135 31.0212 227.728C30.8938 228.555 31.0212 229.656 31.3822 231.054C31.7431 232.452 32.2952 233.766 32.9959 234.995L35.7561 239.74L34.2061 241.519L28.1972 231.436C28.1123 231.309 28.0274 231.203 27.9424 231.097C27.7514 230.906 27.5178 230.821 27.263 230.864C27.0082 230.906 26.7109 231.097 26.3712 231.436L25.8829 231.944L25.3096 231.012L28.2609 227.623L30.5966 231.287C29.7897 228.067 30.0445 225.78 31.3822 224.424C31.9555 223.852 32.55 223.576 33.2082 223.576C33.8664 223.576 34.5246 223.936 35.1829 224.593C35.374 224.847 35.65 225.165 35.9897 225.568Z" fill="white"/>
<path d="M50.8738 218.492C51.1074 218.895 51.3197 219.213 51.4896 219.467C52.1266 220.314 52.806 220.823 53.5704 220.971C54.3348 221.119 55.0567 220.929 55.7786 220.399C56.3307 219.997 56.7766 219.425 57.1163 218.747C57.456 218.048 57.6896 216.967 57.8595 215.484L58.7513 215.569C58.6239 218.471 57.7321 220.505 56.0759 221.712C54.9506 222.539 53.6978 222.814 52.2965 222.539C50.8951 222.263 49.7273 221.479 48.7718 220.166C47.9225 219.022 47.4129 217.645 47.243 216.056C47.0732 214.467 47.2643 212.942 47.8375 211.459C48.4108 209.976 49.154 208.896 50.0882 208.197C50.8951 207.604 51.7232 207.35 52.5725 207.456C53.4218 207.54 54.1012 207.922 54.5896 208.6C55.0143 209.171 55.2266 209.871 55.2478 210.739C55.2691 211.608 54.993 212.582 54.4197 213.684C53.8465 214.785 52.6786 216.395 50.8738 218.492ZM50.4704 217.624C51.7232 216.205 52.53 215.082 52.891 214.277C53.2732 213.472 53.4218 212.667 53.3581 211.925C53.2944 211.163 53.0608 210.506 52.6362 209.913C52.2965 209.447 51.9143 209.193 51.4896 209.108C51.0649 209.023 50.6403 209.129 50.2369 209.447C49.4937 209.998 49.0903 210.951 49.0054 212.328C48.9204 213.705 49.43 215.442 50.4704 217.624Z" fill="white"/>
<path d="M78.519 207.689C77.4361 208.303 76.5231 208.007 75.8224 206.757C75.4614 206.142 75.2067 205.528 75.0368 204.935C75.1217 206.015 74.9519 207.202 74.506 208.451C74.0601 209.723 73.3594 210.612 72.4039 211.163C70.9388 212.01 69.7073 211.566 68.7519 209.871C68.582 209.574 68.4121 209.214 68.2423 208.79C67.945 212.116 67.0108 214.235 65.4395 215.124C64.7601 215.506 64.0806 215.612 63.4224 215.421C62.7642 215.23 62.2334 214.764 61.8087 214.044C61.4265 213.366 61.1293 212.561 60.9169 211.587L59.5368 205.38C59.4519 205.062 59.3882 204.829 59.3032 204.681C59.006 204.172 58.3902 204.172 57.456 204.723L56.7553 205.126L56.5217 204.151L61.0231 201.291L63.1464 211.015C63.3162 211.799 63.4861 212.349 63.6772 212.688C63.9108 213.112 64.2293 213.366 64.5902 213.451C64.9512 213.536 65.2909 213.493 65.5882 213.324C66.4375 212.837 66.9895 211.714 67.2656 209.934C67.5416 208.155 67.4567 206.333 67.0108 204.448L65.7156 198.897L67.7539 197.732L69.9834 206.905C70.1532 207.646 70.3656 208.218 70.5779 208.579C71.1087 209.532 71.7882 209.765 72.595 209.32C73.5293 208.79 74.0601 207.625 74.2299 205.803C74.3998 203.982 74.2724 202.223 73.8902 200.529L72.6162 194.978L74.6334 193.834L77.1389 204.003C77.3512 204.935 77.5635 205.549 77.7334 205.846C77.9669 206.27 78.2854 206.375 78.6676 206.142C79.4532 205.698 79.793 204.045 79.6868 201.228L80.5573 201.079C80.7272 202.626 80.6423 204.003 80.3025 205.21C79.8991 206.397 79.3258 207.244 78.519 207.689Z" fill="white"/>
<path d="M84.1457 198.643C84.2944 199.066 84.4218 199.427 84.5704 199.702C85.0163 200.676 85.5896 201.291 86.3115 201.587C87.0122 201.884 87.7765 201.842 88.5834 201.46C89.2204 201.164 89.7724 200.719 90.2183 200.104C90.6854 199.49 91.1313 198.473 91.5985 197.054L92.469 197.329C91.7683 200.147 90.4731 201.969 88.6259 202.816C87.3519 203.409 86.0779 203.43 84.7615 202.88C83.445 202.329 82.4471 201.333 81.7676 199.85C81.1731 198.558 80.9396 197.118 81.0882 195.529C81.2368 193.94 81.7464 192.478 82.5957 191.144C83.445 189.809 84.4005 188.898 85.4622 188.411C86.3752 187.987 87.2245 187.902 88.0526 188.157C88.8594 188.411 89.4539 188.919 89.7937 189.661C90.0909 190.296 90.1546 191.038 90.006 191.885C89.8574 192.732 89.3902 193.643 88.6046 194.597C87.819 195.55 86.3327 196.948 84.1457 198.643ZM83.9334 197.711C85.4409 196.567 86.4601 195.635 86.9909 194.914C87.5217 194.194 87.819 193.453 87.9252 192.69C88.0313 191.927 87.9039 191.228 87.6067 190.572C87.3731 190.063 87.0546 189.703 86.6512 189.555C86.2478 189.385 85.8231 189.407 85.356 189.618C84.5067 190 83.9122 190.868 83.5937 192.182C83.2115 193.516 83.3389 195.359 83.9334 197.711Z" fill="white"/>
<path d="M104.168 185.17L105.039 184.916C105.485 186.398 105.633 187.669 105.485 188.729C105.357 189.788 104.975 190.741 104.338 191.589C103.51 192.711 102.406 193.326 101.068 193.474C99.7095 193.622 98.393 193.22 97.0978 192.245C95.8875 191.334 94.9321 190.148 94.2314 188.644C93.5307 187.161 93.2547 185.678 93.3396 184.216C93.4245 182.755 93.8704 181.505 94.6348 180.467C95.2718 179.598 96.0149 179.09 96.8218 178.92C97.6286 178.751 98.4143 178.942 99.1149 179.471C99.667 179.874 100.007 180.319 100.113 180.806C100.219 181.293 100.155 181.717 99.8581 182.098C99.6245 182.416 99.306 182.628 98.9026 182.691C98.5204 182.755 98.1595 182.67 97.841 182.437C97.3101 182.056 97.1615 181.505 97.4163 180.827C97.5437 180.467 97.5225 180.213 97.3314 180.086C97.1615 179.958 96.8855 179.958 96.5033 180.086C96.1211 180.213 95.7814 180.467 95.4841 180.869C94.9958 181.526 94.741 182.395 94.7622 183.454C94.7834 184.513 95.1656 185.678 95.9088 186.949C96.6519 188.241 97.6711 189.343 98.9026 190.254C99.9643 191.038 100.898 191.398 101.748 191.356C102.597 191.313 103.255 190.932 103.786 190.233C104.678 189.131 104.784 187.436 104.168 185.17Z" fill="white"/>
<path d="M105.612 165.109C104.827 163.626 104.36 162.334 104.168 161.211C103.977 160.088 104.083 159.135 104.487 158.351C104.848 157.673 105.336 157.228 105.994 157.016C106.653 156.804 107.311 156.889 108.012 157.271C108.733 157.652 109.455 158.16 110.177 158.817L114.912 163.139C115.018 163.244 115.167 163.35 115.316 163.414C115.486 163.499 115.655 163.52 115.825 163.477C115.995 163.435 116.101 163.329 116.186 163.181C116.335 162.905 116.314 162.524 116.186 162.037C115.995 161.338 115.443 160.257 114.53 158.796L115.337 158.309C116.42 159.961 117.099 161.359 117.354 162.482C117.524 163.308 117.46 164.049 117.12 164.685C116.844 165.193 116.462 165.511 115.953 165.638C115.443 165.765 114.827 165.638 114.127 165.278C113.851 165.13 113.575 164.939 113.32 164.706L108.351 160.215C108.033 159.919 107.693 159.664 107.332 159.474C106.95 159.283 106.568 159.219 106.207 159.304C105.846 159.389 105.591 159.622 105.421 159.94C105.209 160.342 105.145 160.893 105.23 161.55C105.379 162.567 105.74 163.541 106.355 164.515C107.29 166.02 108.203 167.163 109.094 167.968L113.192 171.718L112.216 173.921L105.251 167.608C104.678 167.1 104.211 166.74 103.829 166.549C103.319 166.295 102.894 166.21 102.555 166.295C102.215 166.38 101.939 166.634 101.727 167.015C101.493 167.481 101.408 168.011 101.472 168.625C101.599 169.451 102.024 170.468 102.788 171.718C103.553 172.947 104.444 174.048 105.485 175.023L109.519 178.751L108.564 180.912L99.8369 173.01C99.7307 172.904 99.6033 172.82 99.4972 172.777C99.2424 172.65 99.0088 172.629 98.7753 172.756C98.5417 172.862 98.3294 173.137 98.0958 173.561L97.7773 174.197L96.9705 173.476L98.8177 169.367L102.109 172.205C100.389 169.367 99.9643 167.1 100.835 165.405C101.217 164.685 101.705 164.24 102.321 164.071C102.937 163.901 103.68 164.028 104.529 164.473C104.827 164.6 105.188 164.833 105.612 165.109Z" fill="white"/>
<path d="M120.794 149.009C121.813 148.013 122.768 147.505 123.681 147.484C124.594 147.441 125.359 147.738 125.932 148.331C126.739 149.136 127.121 150.301 127.057 151.805C126.994 153.309 126.314 154.707 125.019 155.978C123.724 157.249 122.365 157.864 120.921 157.779C119.477 157.694 118.288 157.186 117.354 156.254C115.868 154.771 114.997 152.737 114.721 150.174C114.445 147.611 115.167 145.471 116.887 143.776C117.779 142.908 118.628 142.442 119.456 142.421C120.284 142.399 120.921 142.59 121.367 143.035C121.983 143.649 122.216 144.539 122.068 145.662C121.919 146.784 121.494 147.907 120.794 149.009ZM117.927 152.885C119.244 150.576 120.029 148.839 120.305 147.695C120.56 146.53 120.348 145.598 119.647 144.899C118.883 144.115 118.076 144.136 117.269 144.941C116.59 145.619 116.271 146.636 116.292 148.034C116.314 149.432 116.866 151.021 117.927 152.885ZM118.564 153.69C118.819 154.008 119.031 154.262 119.18 154.411C120.051 155.279 120.921 155.851 121.77 156.105C122.641 156.36 123.384 156.19 124.021 155.555C124.785 154.792 125.104 153.881 125.019 152.78C124.913 151.699 124.531 150.809 123.83 150.11C123.342 149.623 122.811 149.369 122.259 149.369C121.707 149.369 121.218 149.581 120.815 149.983C120.433 150.365 119.966 151.064 119.435 152.059C119.116 152.695 118.819 153.224 118.564 153.69Z" fill="white"/>
<path d="M135.445 142.526C135.423 140.705 135.232 139.031 134.893 137.527C134.68 136.574 134.404 135.832 134.043 135.324C133.895 135.091 133.597 134.773 133.152 134.37C132.791 134.032 132.557 133.777 132.408 133.565C132.175 133.227 132.09 132.866 132.132 132.506C132.175 132.146 132.345 131.871 132.642 131.68C132.939 131.468 133.258 131.426 133.619 131.511C133.98 131.595 134.256 131.85 134.532 132.231C134.786 132.612 135.063 133.311 135.317 134.307C135.678 135.684 135.912 137.188 136.039 138.84L136.57 145.683C136.697 147.229 136.655 148.733 136.464 150.216C136.315 151.275 136.039 152.186 135.615 152.907C135.19 153.627 134.744 154.156 134.256 154.495C133.64 154.898 133.024 155.089 132.387 155.025C131.75 154.961 131.283 154.707 130.965 154.22C130.71 153.839 130.604 153.436 130.667 152.991C130.731 152.546 130.922 152.229 131.262 151.996C131.559 151.784 131.899 151.72 132.281 151.784C132.642 151.847 132.939 152.038 133.13 152.313L133.385 152.758L133.47 152.907C133.555 153.034 133.682 153.118 133.831 153.14C133.98 153.161 134.15 153.118 134.319 153.012C134.765 152.716 135.105 152.102 135.339 151.212C135.7 149.835 135.784 148.098 135.636 146.022L132.09 142.484C130.094 140.493 128.565 139.222 127.504 138.671C126.888 138.353 126.463 138.29 126.251 138.438C125.826 138.734 125.869 139.772 126.357 141.573L125.423 141.764C125.019 140.175 124.892 138.862 125.062 137.845C125.189 137.103 125.486 136.574 125.932 136.256C126.421 135.938 126.93 135.875 127.504 136.108C128.31 136.425 129.754 137.506 131.835 139.328L135.445 142.526Z" fill="white"/>
<path d="M143.109 126.956L143.895 136.087C143.938 137.125 144.065 137.93 144.277 138.502C144.426 138.925 144.659 139.222 144.978 139.391C145.296 139.561 145.657 139.561 146.04 139.434C146.825 139.158 147.59 138.205 148.333 136.595C149.076 134.985 149.373 132.909 149.203 130.388L148.842 125.177L151.029 124.393L151.815 135.451C151.836 135.938 151.921 136.341 152.048 136.68C152.133 136.934 152.261 137.082 152.409 137.167C152.558 137.252 152.749 137.252 152.94 137.188C153.79 136.892 154.448 135.324 154.915 132.485L155.828 132.464C155.658 134.307 155.276 135.726 154.681 136.743C154.087 137.76 153.386 138.417 152.622 138.692C152.07 138.883 151.56 138.883 151.114 138.671C150.668 138.459 150.35 138.057 150.138 137.485C149.968 136.997 149.798 136.298 149.67 135.387C149.076 137.273 148.439 138.65 147.802 139.497C147.165 140.345 146.443 140.917 145.679 141.192C144.893 141.467 144.192 141.467 143.577 141.192C142.961 140.917 142.515 140.408 142.26 139.667C142.048 139.074 141.878 138.099 141.772 136.786L141.22 130.494C141.22 130.324 141.177 130.176 141.135 130.049C141.05 129.816 140.859 129.647 140.604 129.583C140.243 129.498 139.797 129.562 139.245 129.774L138.502 130.049L138.417 128.948L143.109 126.956ZM148.163 119.012L149.012 119.224C148.736 120.326 148.205 121.321 147.398 122.232C146.592 123.143 145.7 123.736 144.744 124.096C143.98 124.372 143.258 124.414 142.579 124.266C141.899 124.096 141.432 123.673 141.177 122.995C140.986 122.465 141.007 121.978 141.198 121.554C141.411 121.109 141.729 120.813 142.196 120.665C142.6 120.516 142.982 120.537 143.343 120.707C143.704 120.876 143.916 121.152 144.044 121.491C144.15 121.766 144.107 122.105 143.916 122.486C143.789 122.741 143.746 122.931 143.768 123.037C143.853 123.249 144.15 123.27 144.659 123.08C146.273 122.486 147.42 121.131 148.163 119.012Z" fill="white"/>
<path d="M170.542 125.24C171.371 123.8 172.22 122.677 173.069 121.914C173.919 121.152 174.789 120.728 175.66 120.643C176.424 120.58 177.082 120.749 177.592 121.173C178.101 121.597 178.399 122.211 178.484 122.995C178.569 123.8 178.505 124.689 178.335 125.643L177.252 131.956C177.21 132.125 177.21 132.273 177.231 132.443C177.252 132.634 177.316 132.782 177.443 132.909C177.571 133.015 177.719 133.057 177.889 133.057C178.186 133.036 178.505 132.824 178.866 132.422C179.333 131.892 179.949 130.833 180.692 129.286L181.541 129.71C180.734 131.511 179.906 132.845 179.099 133.65C178.484 134.243 177.825 134.582 177.125 134.646C176.551 134.688 176.063 134.54 175.681 134.18C175.299 133.82 175.065 133.227 175.001 132.443C174.98 132.125 174.98 131.807 175.044 131.447L176.148 124.838C176.233 124.393 176.254 123.99 176.212 123.588C176.169 123.143 176.021 122.804 175.745 122.571C175.469 122.338 175.15 122.211 174.768 122.253C174.301 122.296 173.834 122.529 173.303 122.974C172.517 123.63 171.901 124.478 171.392 125.516C170.627 127.104 170.16 128.503 169.948 129.689L168.992 135.154L166.614 135.515L168.186 126.278C168.313 125.516 168.356 124.922 168.313 124.499C168.271 123.948 168.101 123.524 167.846 123.291C167.591 123.058 167.23 122.952 166.784 122.995C166.253 123.037 165.765 123.27 165.298 123.651C164.661 124.202 164.045 125.113 163.408 126.427C162.771 127.74 162.347 129.075 162.071 130.473L161.094 135.875L158.758 136.235L160.712 124.647C160.733 124.499 160.754 124.372 160.733 124.223C160.712 123.948 160.584 123.736 160.372 123.609C160.16 123.482 159.82 123.44 159.332 123.482L158.631 123.546L158.801 122.465L163.26 121.787L162.644 126.088C164.109 123.122 165.786 121.533 167.697 121.364C168.504 121.279 169.141 121.469 169.629 121.893C170.118 122.317 170.394 123.016 170.479 123.948C170.543 124.308 170.542 124.732 170.542 125.24Z" fill="white"/>
<path d="M189.142 128.376C189.27 128.821 189.397 129.181 189.525 129.456C189.928 130.431 190.501 131.087 191.181 131.405C191.881 131.723 192.646 131.723 193.453 131.363C194.09 131.087 194.663 130.664 195.151 130.07C195.64 129.477 196.128 128.482 196.638 127.084L197.487 127.38C196.68 130.155 195.321 131.956 193.453 132.74C192.179 133.269 190.883 133.248 189.588 132.655C188.293 132.062 187.338 131.024 186.722 129.52C186.17 128.206 186 126.766 186.191 125.177C186.403 123.588 186.955 122.148 187.847 120.855C188.739 119.563 189.737 118.673 190.82 118.229C191.733 117.847 192.603 117.784 193.41 118.08C194.217 118.356 194.79 118.885 195.109 119.648C195.385 120.305 195.427 121.046 195.236 121.872C195.045 122.72 194.557 123.588 193.75 124.541C192.922 125.474 191.393 126.766 189.142 128.376ZM188.951 127.422C190.501 126.342 191.542 125.431 192.094 124.732C192.646 124.033 192.986 123.292 193.092 122.55C193.198 121.809 193.134 121.088 192.858 120.432C192.646 119.902 192.327 119.542 191.924 119.373C191.52 119.203 191.096 119.203 190.629 119.394C189.779 119.754 189.142 120.58 188.76 121.893C188.399 123.228 188.442 125.05 188.951 127.422Z" fill="white"/>
<path d="M207.403 108.886L212.159 114.034L210.991 116.089L203.284 107.742C203.05 107.467 202.838 107.297 202.668 107.17C202.158 106.852 201.649 107.043 201.182 107.806L200.481 108.886L199.802 108.124L202.328 103.675L206.639 108.208L207.424 106.98C207.997 106.09 208.231 105.285 208.125 104.586C208.019 103.866 207.573 102.87 206.808 101.556C206.214 100.54 205.895 99.7347 205.81 99.0779C205.747 98.4424 205.917 97.7857 206.341 97.129C206.639 96.6418 207.084 96.3028 207.636 96.1122C208.189 95.9215 208.762 96.0063 209.356 96.3664C209.866 96.6842 210.163 97.0866 210.291 97.5527C210.397 98.0187 210.333 98.4636 210.057 98.8661C209.823 99.2262 209.526 99.4381 209.186 99.5016C208.847 99.5652 208.549 99.5228 208.316 99.3745C208.21 99.311 208.04 99.1203 207.806 98.8661C207.679 98.6966 207.573 98.5907 207.488 98.5483C207.254 98.4001 207.063 98.4424 206.915 98.6543C206.681 99.0144 206.978 99.8618 207.785 101.175C208.847 102.933 209.229 104.395 208.889 105.603C209.356 105.009 209.823 104.628 210.291 104.438C210.758 104.268 211.182 104.183 211.565 104.247C211.947 104.289 212.605 104.543 213.56 105.031C214.58 105.539 215.195 105.793 215.429 105.814C215.662 105.836 215.854 105.751 215.96 105.56C216.066 105.412 216.087 105.2 216.045 104.925C216.002 104.649 215.705 104.12 215.132 103.315L215.811 102.679C217.297 104.438 217.616 105.984 216.767 107.276C216.342 107.954 215.832 108.293 215.259 108.314C214.686 108.314 213.858 107.996 212.796 107.319L211.819 106.704C211.034 106.196 210.354 106.005 209.823 106.09C209.293 106.175 208.804 106.577 208.358 107.276L207.403 108.886Z" fill="white"/>
<path d="M221.905 93.1673C221.246 91.4726 220.503 89.9685 219.675 88.6763C219.166 87.8501 218.635 87.257 218.125 86.8968C217.913 86.7274 217.509 86.5367 216.957 86.3037C216.512 86.113 216.193 85.9435 216.002 85.8164C215.662 85.5834 215.45 85.2868 215.386 84.9267C215.323 84.5666 215.365 84.2488 215.577 83.9734C215.79 83.6769 216.066 83.5074 216.427 83.465C216.788 83.4226 217.149 83.5497 217.531 83.8251C217.913 84.1005 218.401 84.6513 218.975 85.4987C219.781 86.6638 220.525 87.9984 221.225 89.5025L224.092 95.7518C224.729 97.1499 225.217 98.5904 225.557 100.031C225.79 101.09 225.833 102.022 225.684 102.848C225.536 103.675 225.302 104.331 224.941 104.819C224.516 105.412 223.986 105.793 223.37 105.962C222.754 106.132 222.223 106.026 221.756 105.708C221.374 105.433 221.14 105.094 221.055 104.649C220.97 104.225 221.034 103.844 221.268 103.526C221.48 103.23 221.777 103.039 222.138 102.997C222.499 102.954 222.839 102.997 223.115 103.209L223.518 103.526L223.646 103.632C223.773 103.717 223.922 103.759 224.07 103.717C224.219 103.675 224.368 103.59 224.474 103.42C224.792 102.976 224.899 102.298 224.814 101.387C224.665 99.9674 224.177 98.315 223.306 96.4085L218.741 94.3113C216.172 93.1249 214.303 92.4471 213.114 92.2988C212.435 92.214 212.01 92.2988 211.84 92.5106C211.543 92.9343 211.925 93.8876 213.008 95.4128L212.201 95.9212C211.267 94.5655 210.694 93.3792 210.503 92.3623C210.354 91.6209 210.46 91.0277 210.779 90.5617C211.118 90.0956 211.586 89.8626 212.201 89.8838C213.072 89.905 214.813 90.4134 217.382 91.4302L221.905 93.1673Z" fill="white"/>
<path d="M214.622 72.1742C215.896 70.6278 217.234 69.5686 218.635 68.9755C220.036 68.4035 221.438 68.2552 222.882 68.5094C224.325 68.7848 225.748 69.5051 227.192 70.6702C229.761 72.7886 231.63 75.4154 232.776 78.5718C233.923 81.7495 233.732 84.2704 232.16 86.1557C231.226 87.2785 230.101 87.914 228.742 88.0623C227.383 88.2106 226.045 87.7445 224.708 86.643C222.775 85.0754 221.65 83.1264 221.289 80.7962C220.928 78.4871 221.395 76.5382 222.691 74.9705C224.134 73.2123 225.96 73.0852 228.169 74.6104C227.149 73.3817 226.215 72.4285 225.408 71.7718C223.901 70.5431 222.287 69.9287 220.546 69.9499C218.805 69.9711 217.085 70.9032 215.408 72.7674L214.622 72.1742ZM223.71 75.7544C222.733 76.9407 222.648 78.5295 223.455 80.4996C224.262 82.4909 225.451 84.1009 227.001 85.3719C228.763 86.8336 230.186 86.8972 231.269 85.605C232.245 84.4186 232.245 82.7027 231.269 80.4784C230.292 78.2541 229.188 76.6441 228.02 75.6908C227.256 75.0765 226.491 74.7587 225.706 74.7587C224.92 74.7587 224.262 75.0976 223.71 75.7544Z" fill="white"/>
<path d="M242.755 70.1616C243.01 71.1997 243.032 72.1318 242.84 73.0003C242.649 73.8688 242.288 74.5679 241.779 75.1187C240.781 76.1567 239.571 76.6863 238.127 76.6863C236.683 76.6863 235.366 76.1355 234.199 75.034C233.137 74.0171 232.351 72.7461 231.863 71.2208C231.375 69.6956 231.268 68.2127 231.502 66.7722C231.757 65.3317 232.266 64.2089 233.073 63.3616C233.71 62.6837 234.475 62.2812 235.366 62.1329C236.258 61.9846 237.108 62.1329 237.936 62.5777L236.64 60.2051L238.021 58.3833L243.86 68.2763C244.008 68.5517 244.199 68.7847 244.412 68.9965C244.603 69.1872 244.794 69.2931 244.985 69.3143C245.176 69.3355 245.303 69.2931 245.41 69.166C245.601 68.9542 245.686 68.5728 245.664 68.0432C245.601 67.0052 245.325 65.8189 244.815 64.4631L245.664 64.103C246.917 67.3865 247.002 69.5897 245.919 70.7548C245.558 71.1361 245.134 71.3056 244.603 71.2844C244.093 71.2632 243.605 71.0302 243.159 70.6065L242.755 70.1616ZM234.029 63.9971C233.498 64.5479 233.201 65.3105 233.116 66.3061C233.031 67.2806 233.307 68.4881 233.923 69.9074C234.538 71.3268 235.43 72.5554 236.513 73.5935C237.384 74.4196 238.19 74.8433 238.955 74.8857C239.719 74.928 240.399 74.6103 241.036 73.9536C241.588 73.3604 241.906 72.619 241.97 71.7293C242.034 70.8395 241.694 69.5473 240.972 67.9161C240.25 66.285 239.401 65.0139 238.445 64.1242C237.766 63.4887 237.001 63.1709 236.131 63.1709C235.26 63.1709 234.581 63.4251 234.029 63.9971Z" fill="white"/>
<path d="M259.338 53.1721C259.126 51.3503 258.765 49.7191 258.277 48.2574C257.979 47.3253 257.618 46.6262 257.215 46.139C257.045 45.9271 256.705 45.6517 256.217 45.2916C255.835 44.995 255.559 44.762 255.41 44.5714C255.134 44.2536 255.007 43.9147 255.028 43.5545C255.049 43.1944 255.177 42.8978 255.453 42.6648C255.729 42.4318 256.047 42.347 256.408 42.3894C256.769 42.453 257.088 42.6436 257.385 43.0037C257.682 43.3639 258.022 44.0206 258.383 44.995C258.892 46.3085 259.275 47.7913 259.593 49.4225L260.846 56.1802C261.122 57.7055 261.249 59.2096 261.207 60.6924C261.164 61.7728 260.973 62.7049 260.634 63.4675C260.294 64.2302 259.89 64.8021 259.445 65.1835C258.892 65.6495 258.277 65.9037 257.64 65.9037C257.003 65.9037 256.493 65.6919 256.132 65.2682C255.835 64.9081 255.686 64.5268 255.708 64.0819C255.729 63.637 255.899 63.2981 256.196 63.0439C256.472 62.8108 256.812 62.7049 257.173 62.7261C257.534 62.7473 257.852 62.8956 258.064 63.171L258.362 63.5735L258.468 63.7218C258.574 63.8489 258.701 63.9124 258.85 63.9124C258.999 63.9124 259.168 63.8489 259.317 63.7218C259.742 63.3616 259.997 62.7473 260.145 61.8364C260.358 60.4382 260.273 58.7011 259.912 56.6251L256.005 53.4687C253.797 51.6892 252.14 50.5876 251.036 50.1428C250.399 49.8886 249.975 49.8674 249.762 50.058C249.38 50.397 249.508 51.4138 250.187 53.1721L249.274 53.4687C248.701 51.9434 248.446 50.6512 248.51 49.592C248.552 48.8294 248.786 48.2786 249.21 47.9184C249.656 47.5371 250.166 47.4524 250.76 47.6219C251.61 47.8549 253.16 48.7658 255.41 50.3758L259.338 53.1721Z" fill="white"/>
<path d="M262.481 41.0334L261.504 41.1816C261.801 38.8726 262.757 37.1355 264.371 35.9492C265.411 35.1865 266.409 34.8264 267.343 34.89C268.277 34.9535 269.021 35.356 269.551 36.0975C269.934 36.6059 270.146 37.1567 270.188 37.7922C270.231 38.4277 270.146 38.9997 269.891 39.5293C269.636 40.0801 269.127 40.8427 268.362 41.8383C267.577 42.8764 267.025 43.6814 266.706 44.2533C266.388 44.8253 266.218 45.3973 266.218 45.9904C266.218 46.5836 266.388 47.1132 266.727 47.5581C267.088 48.0665 267.577 48.3842 268.15 48.5325C268.723 48.6808 269.339 48.5325 269.976 48.0665C271.123 47.2191 271.845 45.7574 272.163 43.6602L273.012 43.639C272.991 44.6982 272.715 45.7998 272.184 46.9437C271.653 48.0876 270.889 49.0197 269.87 49.7612C268.851 50.5026 267.895 50.8416 266.982 50.7568C266.069 50.6721 265.347 50.2696 264.795 49.507C264.328 48.8715 264.073 48.1512 264.031 47.3674C264.01 46.5836 264.179 45.8633 264.562 45.1642C264.944 44.4652 265.645 43.4695 266.685 42.1561C267.492 41.1393 267.98 40.2919 268.15 39.6352C268.32 38.9785 268.129 38.3006 267.619 37.6015C267.258 37.1143 266.812 36.8389 266.239 36.733C265.666 36.6483 265.092 36.8177 264.519 37.2414C263.436 38.11 262.757 39.3598 262.481 41.0334Z" fill="white"/>
<path d="M275.815 28.302C277.068 27.497 278.448 27.3063 279.913 27.6877C281.378 28.069 282.567 28.9799 283.48 30.4204C284.266 31.6703 284.712 33.0684 284.818 34.6148C284.924 36.1613 284.69 37.5594 284.096 38.8093C283.501 40.038 282.673 40.9912 281.633 41.6691C280.38 42.4741 279 42.6648 277.493 42.2835C275.985 41.9022 274.796 40.9912 273.883 39.5507C273.14 38.3644 272.694 36.9875 272.609 35.4198C272.503 33.8522 272.758 32.4329 273.352 31.183C273.947 29.912 274.775 28.9587 275.815 28.302ZM276.388 29.107C275.773 29.4883 275.327 30.145 275.029 31.0559C274.732 31.9668 274.732 33.2379 275.051 34.8479C275.369 36.4579 275.943 37.9196 276.749 39.2118C277.386 40.2074 278.087 40.843 278.873 41.1183C279.637 41.3726 280.38 41.309 281.038 40.8853C281.675 40.4828 282.143 39.8473 282.419 38.9576C282.695 38.0678 282.673 36.7968 282.355 35.1233C282.015 33.4497 281.442 31.9668 280.635 30.6958C280.019 29.7425 279.34 29.1282 278.554 28.874C277.79 28.5986 277.047 28.6833 276.388 29.107Z" fill="white"/>
<path d="M283.289 14.7229C285.073 13.7908 286.708 13.3247 288.236 13.3459C289.744 13.3459 291.103 13.7696 292.334 14.5746C293.545 15.3796 294.585 16.6083 295.455 18.2394C297.005 21.184 297.685 24.3404 297.515 27.6875C297.345 31.0558 296.156 33.3013 293.99 34.4241C292.695 35.1019 291.4 35.2502 290.105 34.8477C288.81 34.4452 287.748 33.492 286.941 31.9879C285.795 29.7847 285.497 27.5604 286.071 25.2725C286.644 22.9847 287.833 21.3958 289.638 20.4426C291.655 19.3834 293.375 19.9765 294.819 22.222C294.351 20.6968 293.863 19.4681 293.375 18.536C292.462 16.8201 291.209 15.6338 289.595 14.9559C287.982 14.2992 286.028 14.4898 283.756 15.549L283.289 14.7229ZM290.253 21.5441C288.895 22.2644 288.194 23.6837 288.173 25.8233C288.151 27.9629 288.597 29.9118 289.532 31.6913C290.593 33.725 291.867 34.3393 293.353 33.5555C294.712 32.8352 295.392 31.2676 295.349 28.8315C295.307 26.3953 294.946 24.5099 294.224 23.1541C293.778 22.2856 293.184 21.7136 292.462 21.3959C291.761 21.0993 291.018 21.1416 290.253 21.5441Z" fill="white"/>
<path d="M303.758 20.7393L309.512 18.3879L308.917 12.2445L311.062 11.376L312.123 22.5188C312.166 23.006 312.251 23.3873 312.357 23.6627C312.569 24.1711 312.888 24.3406 313.291 24.1711C314.141 23.8322 314.671 22.2434 314.926 19.4259L315.797 19.3836C315.754 20.9512 315.499 22.307 314.99 23.4509C314.48 24.5948 313.822 25.3363 312.951 25.6964C312.421 25.9082 311.932 25.9294 311.486 25.7176C311.04 25.5269 310.701 25.1244 310.467 24.5736C310.106 23.7051 309.83 22.0104 309.618 19.5107L303.991 21.8197L304.862 28.5774L302.717 29.5731L301.188 18.0066C301.167 17.7736 301.125 17.6041 301.082 17.4982C300.849 16.9262 300.318 16.8203 299.469 17.1592L298.28 17.6465L298.173 16.6508L302.802 14.4688L303.758 20.7393Z" fill="white"/>
<path d="M321.806 7.54143C323.228 7.11774 324.608 7.28722 325.925 8.04984C327.241 8.81247 328.133 9.99878 328.621 11.6299C329.046 13.0281 329.089 14.511 328.791 16.0362C328.473 17.5615 327.878 18.8537 326.965 19.8917C326.074 20.9298 325.012 21.6288 323.823 21.989C322.4 22.4126 321.02 22.2432 319.682 21.4594C318.345 20.6755 317.432 19.4892 316.943 17.8792C316.54 16.5235 316.498 15.083 316.816 13.5577C317.134 12.0324 317.771 10.7402 318.663 9.68102C319.597 8.60063 320.638 7.90155 321.806 7.54143ZM322.145 8.47352C321.445 8.68536 320.829 9.19378 320.298 9.97759C319.767 10.7826 319.428 11.9901 319.3 13.6424C319.173 15.2948 319.321 16.8412 319.767 18.3029C320.107 19.4469 320.617 20.2519 321.296 20.6967C321.976 21.1628 322.697 21.2687 323.441 21.0569C324.163 20.845 324.778 20.3366 325.288 19.5528C325.797 18.769 326.116 17.5403 326.243 15.8456C326.371 14.1509 326.222 12.5832 325.776 11.1003C325.458 10.02 324.948 9.25733 324.269 8.79129C323.589 8.32524 322.91 8.2405 322.145 8.47352Z" fill="white"/>
<path d="M344.482 2.71162L343.357 11.8208C343.187 12.8376 343.145 13.6426 343.23 14.2569C343.293 14.7018 343.463 15.0407 343.739 15.2738C344.015 15.5068 344.355 15.5915 344.78 15.528C345.608 15.4221 346.542 14.6382 347.625 13.2401C348.686 11.8208 349.408 9.85065 349.769 7.35093L350.491 2.18202L352.784 1.86426L351.256 12.8376C351.192 13.3248 351.171 13.7485 351.213 14.0875C351.256 14.3417 351.341 14.5323 351.468 14.6382C351.595 14.7442 351.786 14.7865 351.999 14.7654C352.891 14.6382 353.867 13.2401 354.908 10.5709L355.799 10.7404C355.269 12.4987 354.589 13.8121 353.782 14.6806C352.975 15.5492 352.169 16.0364 351.362 16.1423C350.767 16.2271 350.279 16.1211 349.897 15.8034C349.515 15.4856 349.26 15.0407 349.175 14.4264C349.111 13.918 349.09 13.1977 349.154 12.2868C348.177 14.0027 347.285 15.2102 346.457 15.9305C345.629 16.6296 344.822 17.032 344.015 17.1592C343.187 17.2651 342.508 17.1168 341.956 16.7143C341.404 16.3118 341.085 15.7186 340.979 14.956C340.894 14.3205 340.936 13.346 341.106 12.0538L341.871 5.78331C341.892 5.63502 341.892 5.46555 341.871 5.33844C341.828 5.08424 341.701 4.89358 341.446 4.76647C341.106 4.61819 340.66 4.57582 340.087 4.66055L339.302 4.76647L339.45 3.68609L344.482 2.71162Z" fill="white"/>
<path d="M370.514 7.98653L368.539 14.7019L366.161 14.7443L369.389 3.85564C369.495 3.5167 369.558 3.2413 369.558 3.02946C369.58 2.41513 369.134 2.09736 368.242 2.07618L366.947 2.03381L367.244 1.08053L372.361 0.974609L370.684 6.99088L372.149 7.03325C373.21 7.05444 374.017 6.84259 374.569 6.39773C375.121 5.95286 375.78 5.04195 376.502 3.70735C377.054 2.69052 377.606 1.97026 378.115 1.58895C378.625 1.20763 379.283 1.01698 380.047 1.03816C380.621 1.05935 381.13 1.25 381.597 1.63132C382.043 2.01263 382.277 2.54223 382.256 3.22012C382.234 3.81327 382.065 4.27932 381.704 4.61827C381.343 4.95721 380.939 5.12669 380.451 5.1055C380.005 5.08432 379.686 4.95721 379.453 4.68182C379.219 4.40643 379.113 4.15222 379.113 3.87683C379.113 3.74972 379.177 3.5167 379.283 3.17775C379.347 2.9871 379.389 2.83881 379.389 2.75407C379.389 2.47868 379.262 2.33039 378.986 2.33039C378.561 2.30921 377.988 3.00828 377.266 4.38524C376.31 6.20707 375.228 7.26628 374.017 7.6264C374.76 7.73233 375.334 7.92298 375.737 8.24074C376.141 8.53732 376.395 8.87626 376.565 9.21521C376.714 9.57534 376.841 10.2744 376.926 11.3336C377.011 12.4564 377.117 13.1343 377.223 13.3461C377.33 13.5579 377.499 13.6639 377.712 13.6639C377.903 13.6639 378.094 13.5791 378.306 13.4097C378.519 13.2402 378.816 12.7106 379.219 11.7997L380.132 12.0539C379.368 14.2358 378.221 15.295 376.671 15.2527C375.865 15.2315 375.312 14.9773 375.015 14.49C374.718 14.0028 374.569 13.1343 374.612 11.8632L374.633 10.7193C374.654 9.78718 374.506 9.10929 374.145 8.70679C373.784 8.3043 373.189 8.09245 372.361 8.07127L370.514 7.98653Z" fill="white"/>
<path d="M392.129 2.26655C393.615 2.43602 394.804 3.15628 395.696 4.36377C396.588 5.57127 396.949 7.03297 396.736 8.72769C396.566 10.1894 396.014 11.5452 395.122 12.8374C394.231 14.1296 393.148 15.0405 391.916 15.6337C390.685 16.2269 389.432 16.4387 388.201 16.2904C386.714 16.1209 385.525 15.4007 384.612 14.1508C383.699 12.901 383.338 11.4393 383.551 9.76571C383.72 8.36756 384.272 7.03297 385.186 5.76192C386.099 4.49088 387.181 3.55878 388.455 2.94444C389.666 2.35129 390.897 2.11826 392.129 2.26655ZM392.065 3.2622C391.343 3.17747 390.579 3.38931 389.772 3.91891C388.965 4.44851 388.179 5.42298 387.394 6.88468C386.608 8.34638 386.141 9.82926 385.95 11.3545C385.801 12.5408 385.95 13.4729 386.375 14.172C386.799 14.8711 387.415 15.2524 388.201 15.3583C388.944 15.443 389.708 15.2312 390.494 14.744C391.279 14.2567 392.065 13.2399 392.872 11.7358C393.679 10.2318 394.167 8.72769 394.337 7.20244C394.464 6.07968 394.316 5.16877 393.891 4.49088C393.466 3.74944 392.851 3.34694 392.065 3.2622Z" fill="white"/>
<path d="M402.491 6.92736L401.726 6.31302C403.658 4.99961 405.591 4.53356 407.544 4.93606C408.818 5.19026 409.731 5.69868 410.304 6.44012C410.878 7.18157 411.069 7.98656 410.878 8.89747C410.75 9.51181 410.474 10.0414 410.049 10.5075C409.625 10.9523 409.115 11.2701 408.542 11.4396C407.969 11.609 407.056 11.7573 405.803 11.8632C404.508 11.9692 403.531 12.0963 402.894 12.2446C402.257 12.3928 401.705 12.6471 401.28 13.0496C400.834 13.452 400.558 13.9181 400.452 14.4689C400.325 15.0832 400.41 15.634 400.665 16.1848C400.941 16.7144 401.471 17.0745 402.236 17.2228C403.637 17.5194 405.208 17.0745 406.971 15.8882L407.544 16.5026C406.737 17.2016 405.739 17.7312 404.529 18.0914C403.319 18.4515 402.108 18.515 400.877 18.2608C399.645 18.0066 398.754 17.5194 398.202 16.7991C397.649 16.0789 397.48 15.2527 397.671 14.3418C397.841 13.558 398.202 12.9013 398.754 12.3505C399.306 11.8209 399.985 11.4607 400.749 11.2701C401.514 11.0794 402.745 10.9523 404.402 10.8252C405.697 10.7405 406.652 10.5498 407.247 10.2109C407.841 9.87194 408.245 9.29997 408.415 8.47379C408.542 7.88064 408.436 7.35104 408.139 6.88499C407.841 6.41894 407.31 6.10118 406.61 5.95289C405.293 5.6775 403.913 5.99526 402.491 6.92736Z" fill="white"/>
<path d="M420.751 0C422.683 0.57197 424.19 1.39815 425.252 2.45735C426.314 3.51655 427.014 4.76641 427.312 6.18575C427.609 7.60508 427.503 9.21507 426.972 10.9945C426.016 14.1721 424.318 16.9049 421.833 19.1928C419.349 21.4806 416.95 22.2645 414.593 21.5654C413.192 21.1417 412.173 20.3367 411.493 19.1504C410.835 17.9641 410.75 16.5448 411.238 14.8924C411.939 12.5198 413.298 10.7191 415.315 9.49046C417.311 8.26178 419.286 7.94402 421.239 8.51599C423.426 9.1727 424.233 10.8039 423.702 13.4095C424.445 11.9902 424.955 10.7615 425.252 9.76585C425.804 7.90166 425.74 6.18575 425.061 4.57576C424.381 2.96577 422.831 1.75828 420.453 0.932099L420.751 0ZM420.984 9.74467C419.519 9.2998 418.012 9.85059 416.504 11.3547C414.997 12.8587 413.935 14.5958 413.362 16.5236C412.703 18.7267 413.192 20.0613 414.805 20.5274C416.292 20.9722 417.863 20.2943 419.54 18.5361C421.218 16.7566 422.279 15.1466 422.704 13.6849C422.98 12.7528 422.959 11.9266 422.662 11.2064C422.364 10.4649 421.791 9.97769 420.984 9.74467Z" fill="white"/>
<path d="M433.405 25.3362C432.535 25.9505 431.664 26.3106 430.773 26.4377C429.881 26.5648 429.116 26.5013 428.416 26.2259C427.078 25.6751 426.144 24.743 425.613 23.3872C425.082 22.0315 425.125 20.6333 425.74 19.1292C426.292 17.7735 427.205 16.5871 428.458 15.5703C429.711 14.5535 431.049 13.918 432.492 13.6214C433.915 13.3248 435.168 13.4095 436.251 13.8332C437.1 14.1934 437.758 14.7441 438.225 15.5068C438.671 16.2694 438.841 17.1379 438.735 18.0489L440.476 15.994L442.684 16.6083L435.571 25.6327C435.38 25.887 435.232 26.1412 435.104 26.4166C434.998 26.6708 434.977 26.8826 435.019 27.0521C435.062 27.2215 435.168 27.3487 435.316 27.4122C435.592 27.5181 435.953 27.4546 436.463 27.2427C437.418 26.7979 438.416 26.12 439.499 25.1667L440.136 25.8234C437.525 28.1748 435.486 29.0646 434.021 28.4714C433.554 28.2808 433.214 27.9418 433.066 27.4546C432.896 26.9673 432.938 26.4377 433.172 25.8658L433.405 25.3362ZM435.975 14.9772C435.274 14.6806 434.446 14.6806 433.49 14.956C432.535 15.2314 431.516 15.9093 430.433 17.0108C429.35 18.1124 428.501 19.3623 427.927 20.7604C427.481 21.862 427.375 22.7941 427.609 23.4932C427.842 24.2134 428.395 24.743 429.244 25.082C429.987 25.3785 430.815 25.3997 431.664 25.1455C432.514 24.8913 433.597 24.1075 434.871 22.8364C436.145 21.5442 437.015 20.3155 437.503 19.1081C437.864 18.2395 437.864 17.4133 437.567 16.6083C437.27 15.8033 436.697 15.2737 435.975 14.9772Z" fill="white"/>
<path d="M455.042 34.9539C456.677 34.1489 458.099 33.2591 459.309 32.3058C460.074 31.7127 460.626 31.1407 460.944 30.5899C461.072 30.3569 461.242 29.9544 461.411 29.3824C461.56 28.9164 461.688 28.5774 461.815 28.3656C462.027 28.0055 462.303 27.7725 462.664 27.6665C463.025 27.5606 463.344 27.5818 463.641 27.7725C463.959 27.9631 464.151 28.2173 464.214 28.5774C464.278 28.9376 464.193 29.2977 463.959 29.7002C463.726 30.1027 463.216 30.6323 462.409 31.3102C461.327 32.2211 460.074 33.0897 458.63 33.9158L452.664 37.3476C451.326 38.1315 449.946 38.7458 448.523 39.1907C447.483 39.5084 446.549 39.6567 445.72 39.572C444.871 39.5084 444.213 39.3178 443.703 39.0212C443.066 38.6611 442.642 38.1738 442.429 37.5807C442.217 36.9875 442.238 36.4367 442.536 35.9495C442.769 35.547 443.109 35.2928 443.512 35.1445C443.937 35.0174 444.319 35.0598 444.659 35.2504C444.977 35.4411 445.19 35.7165 445.275 36.0766C445.359 36.4367 445.338 36.7757 445.147 37.0723L444.871 37.4959L444.765 37.6442C444.68 37.7925 444.659 37.9196 444.722 38.0679C444.765 38.2162 444.871 38.3433 445.062 38.4492C445.529 38.7246 446.209 38.767 447.122 38.5975C448.523 38.3221 450.137 37.6654 451.963 36.6274L453.64 31.9033C454.575 29.2342 455.084 27.3064 455.127 26.1201C455.148 25.4422 455.042 25.0185 454.787 24.8914C454.341 24.6372 453.407 25.1033 451.984 26.3319L451.411 25.5693C452.664 24.5101 453.81 23.8534 454.808 23.5568C455.53 23.345 456.146 23.3874 456.634 23.6627C457.144 23.9593 457.398 24.4042 457.441 25.0185C457.505 25.8871 457.144 27.6454 456.379 30.3145L455.042 34.9539Z" fill="white"/>
<path d="M467.569 33.9157L467.102 33.0471C469.395 32.5811 471.349 32.92 472.984 34.0428C474.045 34.7842 474.704 35.5892 474.937 36.5001C475.171 37.411 475.043 38.2372 474.513 38.9787C474.152 39.4871 473.685 39.8684 473.111 40.1226C472.538 40.3768 471.965 40.4615 471.37 40.398C470.776 40.3344 469.884 40.1014 468.674 39.6989C467.442 39.2964 466.487 39.0422 465.85 38.9151C465.213 38.788 464.597 38.8304 464.045 39.021C463.493 39.2117 463.047 39.5506 462.728 40.0167C462.367 40.5251 462.219 41.0759 462.261 41.669C462.304 42.2622 462.643 42.7918 463.302 43.2366C464.469 44.0416 466.104 44.2535 468.185 43.8722L468.482 44.6772C467.463 44.9949 466.338 45.1008 465.085 44.9526C463.832 44.8043 462.686 44.4018 461.667 43.6815C460.626 42.9613 459.989 42.1563 459.777 41.2877C459.565 40.4192 459.713 39.593 460.244 38.8304C460.711 38.1737 461.285 37.7076 462.006 37.4322C462.728 37.1568 463.493 37.0721 464.278 37.2204C465.064 37.3475 466.232 37.7076 467.803 38.2372C469.035 38.6821 469.99 38.8515 470.669 38.788C471.349 38.7244 471.943 38.3431 472.432 37.6441C472.772 37.1568 472.899 36.6272 472.793 36.0553C472.687 35.4833 472.347 34.9961 471.752 34.5936C470.627 33.8733 469.247 33.6191 467.569 33.9157Z" fill="white"/>
<path d="M483.918 42.3679C485.086 43.3 485.702 44.5287 485.829 46.0327C485.936 47.5368 485.468 48.9561 484.386 50.2907C483.451 51.4347 482.283 52.3032 480.84 52.9176C479.396 53.5319 477.994 53.7437 476.635 53.5954C475.277 53.4472 474.109 52.9599 473.132 52.1761C471.964 51.244 471.327 50.0153 471.221 48.4689C471.115 46.9225 471.582 45.5031 472.644 44.1897C473.535 43.0882 474.703 42.2408 476.147 41.6476C477.591 41.0545 479.014 40.8215 480.415 40.9909C481.795 41.1392 482.963 41.6053 483.918 42.3679ZM483.345 43.1729C482.772 42.728 482.029 42.495 481.052 42.5162C480.075 42.5374 478.886 42.9399 477.464 43.766C476.041 44.5922 474.831 45.5879 473.875 46.7954C473.132 47.7275 472.75 48.596 472.75 49.401C472.75 50.206 473.047 50.8839 473.663 51.3711C474.257 51.8372 475.001 52.0702 475.956 52.049C476.89 52.0278 478.101 51.6041 479.566 50.7356C481.031 49.8671 482.262 48.8714 483.218 47.6851C483.918 46.7954 484.279 45.948 484.279 45.143C484.279 44.3168 483.961 43.6601 483.345 43.1729Z" fill="white"/>
<path d="M499.185 44.9951C500.65 46.3721 501.627 47.7702 502.115 49.1896C502.603 50.6089 502.646 52.0282 502.285 53.4476C501.924 54.8669 501.096 56.2439 499.822 57.5996C497.55 60.0146 494.79 61.6882 491.541 62.6414C488.292 63.5735 485.787 63.2134 484.003 61.5399C482.942 60.5442 482.368 59.3579 482.326 58.0021C482.284 56.6464 482.836 55.3329 484.003 54.0831C485.702 52.2824 487.719 51.2656 490.076 51.0749C492.412 50.8631 494.323 51.4563 495.809 52.8544C497.465 54.4008 497.465 56.2227 495.809 58.3199C497.104 57.3878 498.123 56.5192 498.845 55.7566C500.183 54.3373 500.884 52.7697 500.99 51.0326C501.096 49.2955 500.268 47.516 498.505 45.7154L499.185 44.9951ZM495.023 53.8077C493.898 52.7485 492.327 52.579 490.288 53.2569C488.25 53.9348 486.551 54.994 485.171 56.4769C483.6 58.1504 483.43 59.5486 484.662 60.6925C485.787 61.7517 487.507 61.8576 489.8 61.0315C492.093 60.2053 493.771 59.2308 494.811 58.1081C495.469 57.409 495.83 56.6464 495.894 55.8625C495.936 55.0576 495.639 54.3797 495.023 53.8077Z" fill="white"/>
<path d="M500.204 66.1578L504.408 70.7336L509.993 68.0644L511.543 69.7591L501.415 74.5891C500.969 74.8009 500.629 75.0128 500.417 75.2034C500.013 75.5636 499.95 75.9237 500.247 76.2626C500.863 76.9405 502.54 76.8982 505.258 76.1567L505.597 76.9617C504.111 77.4701 502.731 77.682 501.5 77.6184C500.247 77.5337 499.312 77.1736 498.697 76.4745C498.315 76.0508 498.145 75.6059 498.166 75.0975C498.208 74.6103 498.442 74.1654 498.888 73.7417C499.589 73.1062 501.075 72.2589 503.368 71.1996L499.27 66.7298L493.219 69.8651L491.541 68.1915L501.903 62.7896C502.115 62.6837 502.264 62.5989 502.349 62.5142C502.795 62.0905 502.731 61.5609 502.115 60.883L501.245 59.9297L502.158 59.4849L505.789 63.065L500.204 66.1578Z" fill="white"/>
<path d="M518.889 78.2325C519.823 79.3976 520.163 80.7322 519.951 82.2363C519.717 83.7403 518.953 85.0114 517.615 86.0706C516.469 86.9815 515.11 87.5747 513.581 87.85C512.052 88.1254 510.63 88.0407 509.334 87.5958C508.039 87.151 506.999 86.4307 506.234 85.4562C505.3 84.2911 504.96 82.9353 505.194 81.4101C505.428 79.8848 506.192 78.5926 507.53 77.5546C508.634 76.686 509.971 76.1141 511.521 75.8387C513.071 75.5845 514.515 75.6692 515.832 76.1141C517.106 76.5801 518.146 77.2792 518.889 78.2325ZM518.167 78.8892C517.721 78.3172 517.021 77.9359 516.086 77.7452C515.152 77.5546 513.878 77.6817 512.307 78.1901C510.736 78.6985 509.334 79.3976 508.145 80.3509C507.211 81.0923 506.659 81.855 506.468 82.6599C506.277 83.4649 506.447 84.164 506.935 84.7784C507.402 85.3715 508.103 85.7528 509.016 85.9435C509.929 86.1341 511.203 85.9647 512.817 85.4562C514.43 84.9478 515.853 84.2276 517.063 83.2743C517.955 82.5752 518.486 81.8338 518.656 81.0288C518.804 80.2238 518.656 79.5247 518.167 78.8892Z" fill="white"/>
<path d="M508.379 94.8837L508.782 94.0363C509.865 94.6506 510.821 95.0108 511.691 95.1167C512.349 95.2014 512.817 95.1379 513.114 94.9472C513.284 94.8201 513.284 94.6295 513.135 94.3753C512.668 93.5914 512.817 92.9136 513.581 92.3628C514.027 92.045 514.473 91.9179 514.961 92.0026C515.449 92.0662 515.832 92.3204 516.129 92.7229C516.447 93.1466 516.532 93.6338 516.426 94.1634C516.299 94.693 515.98 95.1591 515.428 95.5404C514.579 96.1547 513.581 96.4089 512.392 96.3454C511.182 96.303 509.844 95.8158 508.379 94.8837Z" fill="white"/>
<path d="M532.244 108.908C532.988 110.115 533.285 111.153 533.115 112.043C532.945 112.933 532.521 113.61 531.799 114.055C530.822 114.67 529.612 114.776 528.147 114.373C526.681 113.971 525.471 113.017 524.516 111.471C523.539 109.946 523.263 108.484 523.645 107.086C524.027 105.688 524.792 104.65 525.917 103.929C527.701 102.807 529.888 102.404 532.457 102.701C535.026 102.997 536.958 104.162 538.232 106.196C538.89 107.255 539.145 108.187 538.997 108.992C538.848 109.797 538.508 110.39 537.977 110.708C537.234 111.174 536.342 111.217 535.26 110.814C534.177 110.475 533.158 109.818 532.244 108.908ZM528.147 105.709C527.764 105.878 527.488 106.027 527.318 106.154C526.278 106.81 525.535 107.531 525.089 108.314C524.643 109.098 524.664 109.861 525.131 110.623C525.705 111.534 526.533 112.064 527.616 112.191C528.699 112.318 529.654 112.149 530.482 111.619C531.077 111.238 531.416 110.793 531.544 110.242C531.65 109.691 531.565 109.183 531.247 108.696C530.949 108.23 530.376 107.636 529.505 106.895C528.996 106.45 528.55 106.069 528.147 105.709ZM529.081 105.285C531.055 107.065 532.563 108.23 533.646 108.738C534.729 109.246 535.684 109.225 536.534 108.696C537.468 108.103 537.616 107.34 537.001 106.387C536.491 105.582 535.557 105.031 534.198 104.755C532.839 104.48 531.14 104.65 529.081 105.285Z" fill="white"/>
<path d="M569.699 114.881L564.816 125.029C564.603 125.474 564.476 125.834 564.433 126.13C564.348 126.681 564.54 126.978 564.985 127.041C565.877 127.168 567.151 126.067 568.786 123.758L569.572 124.16C568.744 125.495 567.831 126.533 566.833 127.274C565.835 128.016 564.858 128.312 563.945 128.185C562.714 128.016 562.183 127.232 562.374 125.812C562.459 125.156 562.671 124.499 562.99 123.864L567.406 114.924L556.62 126.745L556.238 126.681L557.575 113.547L556.811 115.348C555.452 118.525 554.029 121.152 552.564 123.207C551.099 125.262 549.464 126.173 547.638 125.94C547.171 125.876 546.746 125.664 546.407 125.304C546.046 124.944 545.918 124.457 546.003 123.864C546.088 123.313 546.301 122.91 546.683 122.614C547.065 122.338 547.49 122.211 547.957 122.275C548.891 122.402 549.337 122.91 549.252 123.8C549.209 124.202 549.337 124.414 549.613 124.457C550.42 124.563 551.566 123.313 553.031 120.686C554.496 118.059 555.282 116.216 555.431 115.178C555.558 114.331 555.112 113.843 554.093 113.695L553.732 113.653L554.136 112.721L559.677 113.483L558.701 123.143L566.62 114.437L569.699 114.881Z" fill="white"/>
<path d="M575.942 119.605L575.262 118.906C577.322 117.826 579.297 117.593 581.186 118.207C582.418 118.61 583.267 119.224 583.756 120.008C584.244 120.813 584.35 121.639 584.053 122.507C583.862 123.101 583.522 123.609 583.034 124.012C582.566 124.414 582.036 124.668 581.441 124.774C580.847 124.88 579.934 124.901 578.66 124.88C577.364 124.838 576.366 124.859 575.729 124.922C575.092 124.986 574.498 125.198 574.031 125.537C573.542 125.897 573.224 126.321 573.033 126.85C572.842 127.443 572.842 128.015 573.054 128.566C573.266 129.117 573.755 129.541 574.498 129.774C575.857 130.218 577.471 129.964 579.36 128.99L579.87 129.668C578.999 130.261 577.938 130.663 576.685 130.896C575.453 131.129 574.222 131.045 573.054 130.642C571.844 130.24 571.016 129.668 570.57 128.884C570.124 128.1 570.039 127.274 570.336 126.384C570.591 125.622 571.016 125.007 571.632 124.541C572.247 124.075 572.948 123.778 573.734 123.694C574.519 123.609 575.751 123.609 577.407 123.673C578.702 123.736 579.679 123.651 580.316 123.397C580.953 123.143 581.399 122.613 581.675 121.808C581.866 121.236 581.823 120.707 581.569 120.198C581.314 119.69 580.847 119.309 580.146 119.097C578.872 118.694 577.471 118.864 575.942 119.605Z" fill="white"/>
<path d="M589.234 128.312L594.775 131.129L599.064 126.681L601.124 127.74L593.353 135.811C593.013 136.171 592.779 136.468 592.631 136.722C592.376 137.209 592.461 137.548 592.843 137.76C593.65 138.184 595.2 137.548 597.514 135.917L598.13 136.553C596.92 137.548 595.71 138.226 594.521 138.586C593.332 138.946 592.312 138.925 591.484 138.501C590.975 138.247 590.656 137.887 590.508 137.4C590.359 136.913 590.444 136.425 590.72 135.875C591.145 135.027 592.249 133.714 594.032 131.934L588.618 129.181L584.053 134.222L581.887 133.248L589.701 124.562C589.871 124.393 589.977 124.245 590.019 124.16C590.295 123.609 590.04 123.122 589.234 122.719L588.087 122.126L588.766 121.385L593.438 123.461L589.234 128.312Z" fill="white"/>
<path d="M611.188 134.138C612.399 135.006 613.099 136.192 613.29 137.697C613.482 139.201 613.078 140.641 612.08 142.018C611.21 143.204 610.084 144.137 608.662 144.814C607.26 145.492 605.859 145.789 604.5 145.704C603.12 145.619 601.931 145.217 600.933 144.475C599.723 143.607 599.022 142.399 598.831 140.874C598.64 139.349 599.043 137.887 600.02 136.531C600.848 135.387 601.973 134.477 603.396 133.82C604.818 133.142 606.22 132.845 607.621 132.93C609.023 133.015 610.19 133.417 611.188 134.138ZM610.658 134.964C610.063 134.54 609.299 134.349 608.343 134.413C607.388 134.477 606.22 134.943 604.819 135.854C603.417 136.764 602.292 137.824 601.379 139.052C600.678 140.006 600.36 140.895 600.402 141.722C600.445 142.548 600.784 143.183 601.421 143.649C602.037 144.094 602.801 144.285 603.736 144.221C604.67 144.158 605.859 143.649 607.282 142.738C608.704 141.806 609.872 140.726 610.764 139.497C611.422 138.586 611.74 137.718 611.698 136.913C611.634 136.065 611.295 135.43 610.658 134.964Z" fill="white"/>
<path d="M619.384 149.665C620.403 150.64 620.934 151.593 620.976 152.504C621.019 153.415 620.764 154.178 620.17 154.771C619.363 155.597 618.216 155.999 616.709 155.957C615.201 155.915 613.8 155.258 612.483 154.008C611.167 152.758 610.551 151.403 610.594 149.962C610.636 148.522 611.124 147.314 612.059 146.361C613.524 144.857 615.541 143.925 618.11 143.607C620.679 143.289 622.824 143.967 624.565 145.64C625.457 146.509 625.945 147.356 625.988 148.183C626.03 149.009 625.839 149.644 625.393 150.11C624.777 150.725 623.907 150.979 622.781 150.852C621.635 150.725 620.509 150.322 619.384 149.665ZM614.649 147.526C614.331 147.78 614.097 147.992 613.948 148.161C613.099 149.051 612.547 149.92 612.313 150.788C612.08 151.657 612.271 152.398 612.908 153.013C613.672 153.754 614.607 154.072 615.711 153.945C616.815 153.818 617.685 153.415 618.365 152.716C618.853 152.208 619.087 151.699 619.066 151.127C619.044 150.576 618.832 150.089 618.407 149.687C618.025 149.305 617.303 148.86 616.284 148.352C615.668 148.055 615.116 147.78 614.649 147.526ZM615.456 146.89C617.792 148.161 619.533 148.924 620.7 149.157C621.868 149.39 622.803 149.157 623.482 148.437C624.246 147.653 624.204 146.869 623.397 146.064C622.718 145.407 621.677 145.09 620.297 145.153C618.917 145.217 617.303 145.789 615.456 146.89Z" fill="white"/>
<path d="M624.629 158.563C624.247 158.817 623.928 159.029 623.695 159.22C622.866 159.876 622.378 160.597 622.272 161.338C622.145 162.101 622.357 162.821 622.93 163.52C623.355 164.071 623.928 164.495 624.629 164.791C625.329 165.088 626.434 165.299 627.92 165.427L627.856 166.316C624.947 166.295 622.866 165.469 621.592 163.88C620.722 162.8 620.403 161.55 620.616 160.152C620.828 158.754 621.592 157.546 622.866 156.55C623.992 155.661 625.329 155.11 626.922 154.877C628.493 154.644 630.043 154.792 631.551 155.301C633.058 155.809 634.162 156.529 634.884 157.44C635.5 158.224 635.776 159.029 635.734 159.898C635.67 160.745 635.33 161.444 634.672 161.952C634.12 162.397 633.419 162.63 632.549 162.673C631.678 162.715 630.701 162.482 629.576 161.952C628.451 161.444 626.816 160.3 624.629 158.563ZM625.499 158.139C626.964 159.326 628.111 160.088 628.939 160.427C629.767 160.766 630.553 160.893 631.317 160.808C632.081 160.724 632.74 160.448 633.292 160.003C633.738 159.643 633.992 159.262 634.056 158.817C634.12 158.394 633.992 157.97 633.674 157.567C633.101 156.847 632.124 156.466 630.744 156.445C629.406 156.466 627.644 157.017 625.499 158.139Z" fill="white"/>
<path d="M635.755 169.854L638.876 175.235L644.906 173.815L646.074 175.807L635.139 178.37C634.651 178.476 634.29 178.603 634.035 178.751C633.568 179.027 633.44 179.366 633.653 179.747C634.099 180.531 635.755 180.848 638.579 180.721L638.749 181.59C637.177 181.759 635.797 181.675 634.608 181.336C633.398 180.997 632.57 180.425 632.103 179.62C631.827 179.133 631.742 178.645 631.89 178.179C632.039 177.713 632.358 177.311 632.888 177.014C633.716 176.548 635.351 176.04 637.814 175.489L634.757 170.235L628.175 171.994L626.879 170.002L638.154 166.931C638.388 166.867 638.557 166.825 638.642 166.761C639.173 166.443 639.216 165.914 638.77 165.13L638.133 164.007L639.11 163.753L641.891 168.032L635.755 169.854Z" fill="white"/>
<path d="M650.427 185.551L641.275 186.399C640.235 186.441 639.428 186.568 638.855 186.801C638.43 186.95 638.133 187.204 637.984 187.521C637.814 187.839 637.814 188.199 637.963 188.581C638.239 189.364 639.194 190.127 640.808 190.847C642.422 191.589 644.503 191.864 647.051 191.674L652.274 191.271L653.081 193.453L641.997 194.3C641.509 194.343 641.105 194.406 640.766 194.533C640.511 194.618 640.362 194.745 640.277 194.894C640.192 195.042 640.192 195.232 640.256 195.423C640.575 196.271 642.146 196.906 644.991 197.351L645.012 198.262C643.165 198.114 641.742 197.732 640.723 197.139C639.704 196.546 639.046 195.868 638.77 195.084C638.557 194.533 638.579 194.025 638.77 193.58C638.982 193.135 639.386 192.796 639.959 192.584C640.447 192.415 641.148 192.246 642.061 192.097C640.171 191.504 638.791 190.89 637.921 190.254C637.05 189.598 636.498 188.898 636.201 188.136C635.925 187.352 635.903 186.653 636.201 186.039C636.477 185.424 636.986 184.979 637.708 184.704C638.303 184.492 639.258 184.323 640.575 184.196L646.881 183.602C647.051 183.602 647.199 183.56 647.327 183.518C647.56 183.433 647.73 183.242 647.794 182.988C647.858 182.628 647.794 182.183 647.603 181.632L647.327 180.891L648.431 180.806L650.427 185.551Z" fill="white"/>
<path d="M646.711 202.477C646.265 202.52 645.883 202.562 645.564 202.625C644.524 202.837 643.781 203.24 643.314 203.854C642.847 204.468 642.719 205.21 642.889 206.078C643.017 206.756 643.335 207.392 643.823 207.985C644.312 208.578 645.182 209.256 646.456 210.04L645.989 210.803C643.42 209.447 641.934 207.773 641.551 205.782C641.275 204.426 641.573 203.155 642.401 202.032C643.229 200.888 644.46 200.168 646.053 199.85C647.454 199.575 648.919 199.681 650.427 200.21C651.934 200.719 653.251 201.566 654.334 202.71C655.416 203.854 656.096 204.998 656.329 206.142C656.521 207.116 656.393 207.964 655.969 208.705C655.523 209.426 654.907 209.892 654.079 210.04C653.378 210.188 652.656 210.061 651.871 209.722C651.085 209.362 650.321 208.705 649.556 207.731C648.792 206.756 647.858 204.998 646.711 202.477ZM647.688 202.477C648.452 204.214 649.11 205.422 649.705 206.1C650.299 206.778 650.936 207.265 651.658 207.519C652.38 207.773 653.081 207.858 653.782 207.71C654.334 207.604 654.758 207.371 655.013 207.011C655.268 206.65 655.353 206.227 655.247 205.74C655.077 204.829 654.376 204.066 653.166 203.409C651.956 202.753 650.108 202.456 647.688 202.477Z" fill="white"/>
<path d="M660.576 223.619C661.808 224.467 662.53 225.632 662.742 227.136C662.954 228.64 662.593 230.08 661.617 231.478C660.789 232.686 659.663 233.639 658.262 234.359C656.86 235.059 655.48 235.398 654.1 235.334C652.72 235.27 651.531 234.889 650.512 234.19C649.28 233.343 648.558 232.156 648.325 230.631C648.091 229.106 648.473 227.644 649.429 226.267C650.236 225.102 651.34 224.17 652.741 223.471C654.143 222.772 655.544 222.454 656.945 222.496C658.347 222.539 659.578 222.92 660.576 223.619ZM660.067 224.467C659.472 224.064 658.686 223.895 657.731 223.979C656.775 224.064 655.608 224.572 654.249 225.483C652.89 226.415 651.765 227.496 650.894 228.767C650.215 229.741 649.917 230.631 649.96 231.457C650.023 232.262 650.384 232.898 651.021 233.364C651.637 233.788 652.423 233.957 653.357 233.872C654.291 233.788 655.459 233.258 656.86 232.305C658.262 231.351 659.408 230.229 660.279 228.979C660.916 228.047 661.213 227.178 661.149 226.373C661.086 225.568 660.725 224.911 660.067 224.467Z" fill="white"/>
<path d="M688.009 226.161L689.219 226.797C688.497 227.369 687.839 227.771 687.223 227.983C686.607 228.195 685.97 228.28 685.27 228.237C684.59 228.195 683.975 228.068 683.465 227.856C682.934 227.644 681.979 227.178 680.599 226.437C679.622 225.907 678.751 225.632 678.029 225.547C677.286 225.462 676.543 225.568 675.758 225.844C674.972 226.119 674.335 226.458 673.825 226.882C673.294 227.305 672.318 228.153 670.853 229.445C673.401 228.195 675.63 228.089 677.562 229.085C679.006 229.847 679.919 230.949 680.28 232.432C680.662 233.915 680.471 235.376 679.686 236.859C678.688 238.766 677.095 240.143 674.951 241.011C672.806 241.88 670.789 241.816 668.921 240.821C667.455 240.058 666.564 238.935 666.224 237.495C665.884 236.054 666.203 234.423 667.158 232.623C668.326 230.398 670.47 228.11 673.592 225.759C676.713 223.408 680.025 223.132 683.507 224.975L685.652 226.14C686.65 226.627 687.414 226.649 688.009 226.161ZM678.029 234.487C678.518 233.555 678.709 232.686 678.581 231.86C678.454 231.034 677.987 230.419 677.18 229.975C675.779 229.233 674.208 229.53 672.445 230.843C670.683 232.157 669.366 233.639 668.496 235.292C667.986 236.266 667.795 237.156 667.901 237.982C668.007 238.808 668.475 239.444 669.281 239.868C670.747 240.63 672.36 240.312 674.144 238.914C675.927 237.516 677.201 236.054 678.029 234.487Z" fill="white"/>
<path d="M689.325 237.77L696.757 244.973L687.223 250.671C686.777 250.904 686.459 251.116 686.247 251.328C685.864 251.73 685.822 252.069 686.14 252.387C686.799 253.023 688.455 252.895 691.151 251.985L691.534 252.768C690.069 253.361 688.71 253.658 687.457 253.637C686.204 253.637 685.249 253.298 684.569 252.641C684.166 252.239 683.953 251.794 683.932 251.328C683.911 250.862 684.123 250.396 684.527 249.972C685.015 249.485 685.567 249.061 686.204 248.722L694.188 243.85L692.468 242.197C691.852 241.604 691.258 241.371 690.663 241.456C690.068 241.562 689.007 242.028 687.478 242.875C684.166 244.57 681.703 245.502 680.068 245.693C678.433 245.884 677.201 245.545 676.352 244.697C675.97 244.337 675.758 243.871 675.694 243.341C675.63 242.791 675.8 242.303 676.225 241.88C676.586 241.498 677.01 241.329 677.477 241.329C677.945 241.329 678.348 241.498 678.666 241.816C679.282 242.409 679.303 243.087 678.73 243.829C678.497 244.125 678.497 244.358 678.688 244.549C679.282 245.121 680.917 244.803 683.614 243.596C686.31 242.388 688.051 241.35 688.879 240.503C689.474 239.888 689.41 239.232 688.667 238.511L688.434 238.278L689.325 237.77Z" fill="white"/>
<path d="M695.164 263.339C694.103 263.254 693.19 263 692.425 262.555C691.661 262.11 691.088 261.56 690.727 260.903C690.026 259.653 689.899 258.318 690.323 256.941C690.748 255.565 691.682 254.484 693.105 253.7C694.4 252.98 695.844 252.641 697.436 252.641C699.029 252.641 700.494 252.98 701.789 253.658C703.084 254.336 704.019 255.162 704.571 256.179C705.016 256.984 705.186 257.831 705.038 258.721C704.889 259.611 704.507 260.373 703.849 261.03L706.503 260.522L707.84 262.386L696.63 264.97C696.332 265.034 696.035 265.14 695.78 265.288C695.547 265.415 695.398 265.563 695.313 265.733C695.228 265.902 695.249 266.051 695.313 266.178C695.462 266.432 695.78 266.623 696.311 266.75C697.33 267.004 698.541 267.089 699.984 267.025L700.069 267.936C696.545 268.148 694.421 267.555 693.636 266.178C693.381 265.733 693.36 265.267 693.53 264.78C693.699 264.292 694.06 263.911 694.612 263.593L695.164 263.339ZM703.679 256.878C703.318 256.221 702.66 255.692 701.747 255.31C700.834 254.929 699.602 254.823 698.073 254.993C696.523 255.162 695.101 255.628 693.763 256.348C692.723 256.92 692.064 257.577 691.788 258.276C691.534 258.975 691.619 259.738 692.064 260.522C692.468 261.221 693.084 261.75 693.912 262.089C694.761 262.428 696.056 262.492 697.861 262.28C699.645 262.068 701.11 261.644 702.256 261.03C703.063 260.585 703.615 259.95 703.87 259.123C704.125 258.34 704.061 257.577 703.679 256.878Z" fill="white"/>
<path d="M703.827 273.084L696.821 272.787L696.205 270.499L707.564 270.987C707.925 271.008 708.201 270.987 708.392 270.944C708.987 270.817 709.199 270.309 709.008 269.461L708.732 268.211L709.751 268.275L711.089 273.211L704.825 273.041L705.144 274.461C705.377 275.478 705.781 276.219 706.354 276.643C706.927 277.066 707.968 277.49 709.433 277.871C710.558 278.168 711.386 278.528 711.875 278.931C712.363 279.333 712.703 279.926 712.873 280.668C713 281.218 712.936 281.769 712.66 282.299C712.406 282.828 711.938 283.167 711.259 283.316C710.664 283.443 710.176 283.379 709.751 283.125C709.348 282.871 709.072 282.511 708.987 282.045C708.902 281.621 708.945 281.261 709.157 280.985C709.369 280.71 709.603 280.519 709.858 280.477C709.985 280.456 710.24 280.456 710.579 280.477C710.792 280.498 710.94 280.498 711.025 280.477C711.301 280.413 711.408 280.265 711.344 279.99C711.259 279.566 710.452 279.185 708.945 278.825C706.949 278.337 705.632 277.554 705.016 276.473C705.101 277.236 705.038 277.829 704.847 278.274C704.655 278.719 704.401 279.079 704.082 279.312C703.764 279.545 703.127 279.841 702.129 280.18C701.046 280.541 700.43 280.795 700.26 280.943C700.09 281.091 700.005 281.282 700.069 281.494C700.112 281.663 700.239 281.854 700.451 282.002C700.664 282.172 701.258 282.341 702.235 282.489L702.214 283.422C699.921 283.21 698.604 282.362 698.264 280.837C698.094 280.053 698.201 279.46 698.604 279.036C699.008 278.613 699.814 278.274 701.046 278.02L702.171 277.765C703.084 277.575 703.7 277.236 704.019 276.791C704.337 276.346 704.401 275.732 704.21 274.906L703.827 273.084Z" fill="white"/>
<path d="M701.152 295.454C700.303 294.819 699.687 294.077 699.305 293.294C698.901 292.489 698.753 291.726 698.795 290.985C698.901 289.544 699.517 288.379 700.643 287.468C701.768 286.557 703.127 286.155 704.741 286.282C706.206 286.388 707.607 286.896 708.966 287.786C710.304 288.676 711.344 289.756 712.045 291.027C712.745 292.298 713.064 293.505 712.979 294.649C712.915 295.582 712.575 296.365 711.981 297.022C711.386 297.679 710.622 298.102 709.709 298.293L712.214 299.331L712.299 301.619L701.513 297.615C701.216 297.509 700.919 297.446 700.621 297.425C700.345 297.403 700.133 297.446 699.984 297.552C699.836 297.658 699.751 297.785 699.73 297.933C699.708 298.23 699.878 298.568 700.239 298.971C700.94 299.734 701.917 300.496 703.148 301.216L702.702 302.021C699.645 300.263 698.201 298.59 698.307 297.022C698.349 296.514 698.583 296.111 698.986 295.793C699.39 295.476 699.921 295.348 700.536 295.412L701.152 295.454ZM711.811 294.755C711.875 293.993 711.62 293.209 711.068 292.383C710.516 291.557 709.539 290.794 708.159 290.095C706.779 289.396 705.335 288.993 703.806 288.866C702.617 288.781 701.704 288.951 701.088 289.396C700.473 289.841 700.133 290.519 700.069 291.429C700.006 292.234 700.239 293.018 700.749 293.76C701.258 294.501 702.32 295.285 703.934 296.09C705.547 296.895 706.991 297.361 708.286 297.446C709.221 297.509 710.006 297.276 710.686 296.747C711.386 296.217 711.769 295.539 711.811 294.755Z" fill="white"/>
</svg>
